G04 #@! TF.FileFunction,Legend,Top*
%FSLAX46Y46*%
G04 Gerber Fmt 4.6, Leading zero omitted, Abs format (unit mm)*
G04 Created by KiCad (PCBNEW 4.0.6) date Sunday, December 16, 2018 'PMt' 05:25:45 PM*
%MOMM*%
%LPD*%
G01*
G04 APERTURE LIST*
%ADD10C,0.100000*%
%ADD11C,0.500000*%
%ADD12C,0.150000*%
%ADD13C,0.190500*%
%ADD14C,0.125000*%
%ADD15C,0.187500*%
%ADD16C,0.254000*%
%ADD17C,0.120000*%
%ADD18C,0.090000*%
G04 APERTURE END LIST*
D10*
D11*
X103000000Y-61700000D02*
X85700000Y-66800000D01*
X85700000Y-61700000D02*
X103000000Y-66800000D01*
D12*
X85598000Y-66802000D02*
X85598000Y-61849000D01*
X103124000Y-66802000D02*
X85598000Y-66802000D01*
D13*
X89208428Y-89027000D02*
X89135857Y-88990714D01*
X89027000Y-88990714D01*
X88918143Y-89027000D01*
X88845571Y-89099571D01*
X88809286Y-89172143D01*
X88773000Y-89317286D01*
X88773000Y-89426143D01*
X88809286Y-89571286D01*
X88845571Y-89643857D01*
X88918143Y-89716429D01*
X89027000Y-89752714D01*
X89099571Y-89752714D01*
X89208428Y-89716429D01*
X89244714Y-89680143D01*
X89244714Y-89426143D01*
X89099571Y-89426143D01*
X89571286Y-89752714D02*
X89571286Y-88990714D01*
X90006714Y-89752714D01*
X90006714Y-88990714D01*
X90369572Y-89752714D02*
X90369572Y-88990714D01*
X90551000Y-88990714D01*
X90659857Y-89027000D01*
X90732429Y-89099571D01*
X90768714Y-89172143D01*
X90805000Y-89317286D01*
X90805000Y-89426143D01*
X90768714Y-89571286D01*
X90732429Y-89643857D01*
X90659857Y-89716429D01*
X90551000Y-89752714D01*
X90369572Y-89752714D01*
X83221286Y-84763429D02*
X83801857Y-84763429D01*
X83511571Y-85053714D02*
X83511571Y-84473143D01*
X84527572Y-84291714D02*
X84164715Y-84291714D01*
X84128429Y-84654571D01*
X84164715Y-84618286D01*
X84237286Y-84582000D01*
X84418715Y-84582000D01*
X84491286Y-84618286D01*
X84527572Y-84654571D01*
X84563857Y-84727143D01*
X84563857Y-84908571D01*
X84527572Y-84981143D01*
X84491286Y-85017429D01*
X84418715Y-85053714D01*
X84237286Y-85053714D01*
X84164715Y-85017429D01*
X84128429Y-84981143D01*
X84781571Y-84291714D02*
X85035571Y-85053714D01*
X85289571Y-84291714D01*
D12*
X127952572Y-86747000D02*
X127881143Y-86711286D01*
X127774000Y-86711286D01*
X127666857Y-86747000D01*
X127595429Y-86818429D01*
X127559714Y-86889857D01*
X127524000Y-87032714D01*
X127524000Y-87139857D01*
X127559714Y-87282714D01*
X127595429Y-87354143D01*
X127666857Y-87425571D01*
X127774000Y-87461286D01*
X127845429Y-87461286D01*
X127952572Y-87425571D01*
X127988286Y-87389857D01*
X127988286Y-87139857D01*
X127845429Y-87139857D01*
X128309714Y-87461286D02*
X128309714Y-86711286D01*
X128738286Y-87461286D01*
X128738286Y-86711286D01*
X129095428Y-87461286D02*
X129095428Y-86711286D01*
X129274000Y-86711286D01*
X129381143Y-86747000D01*
X129452571Y-86818429D01*
X129488286Y-86889857D01*
X129524000Y-87032714D01*
X129524000Y-87139857D01*
X129488286Y-87282714D01*
X129452571Y-87354143D01*
X129381143Y-87425571D01*
X129274000Y-87461286D01*
X129095428Y-87461286D01*
D14*
X114874142Y-67407286D02*
X114874142Y-67943000D01*
X114838428Y-68050143D01*
X114766999Y-68121571D01*
X114659856Y-68157286D01*
X114588428Y-68157286D01*
X115159857Y-67407286D02*
X115624143Y-67407286D01*
X115374143Y-67693000D01*
X115481285Y-67693000D01*
X115552714Y-67728714D01*
X115588428Y-67764429D01*
X115624143Y-67835857D01*
X115624143Y-68014429D01*
X115588428Y-68085857D01*
X115552714Y-68121571D01*
X115481285Y-68157286D01*
X115267000Y-68157286D01*
X115195571Y-68121571D01*
X115159857Y-68085857D01*
X115945571Y-67871571D02*
X116517000Y-67871571D01*
X116874142Y-68157286D02*
X116874142Y-67407286D01*
X117052714Y-67407286D01*
X117159857Y-67443000D01*
X117231285Y-67514429D01*
X117267000Y-67585857D01*
X117302714Y-67728714D01*
X117302714Y-67835857D01*
X117267000Y-67978714D01*
X117231285Y-68050143D01*
X117159857Y-68121571D01*
X117052714Y-68157286D01*
X116874142Y-68157286D01*
X117767000Y-67407286D02*
X117909857Y-67407286D01*
X117981285Y-67443000D01*
X118052714Y-67514429D01*
X118088428Y-67657286D01*
X118088428Y-67907286D01*
X118052714Y-68050143D01*
X117981285Y-68121571D01*
X117909857Y-68157286D01*
X117767000Y-68157286D01*
X117695571Y-68121571D01*
X117624142Y-68050143D01*
X117588428Y-67907286D01*
X117588428Y-67657286D01*
X117624142Y-67514429D01*
X117695571Y-67443000D01*
X117767000Y-67407286D01*
X118981285Y-68157286D02*
X118981285Y-67407286D01*
X119409857Y-68157286D01*
X119409857Y-67407286D01*
X119909857Y-67407286D02*
X120052714Y-67407286D01*
X120124142Y-67443000D01*
X120195571Y-67514429D01*
X120231285Y-67657286D01*
X120231285Y-67907286D01*
X120195571Y-68050143D01*
X120124142Y-68121571D01*
X120052714Y-68157286D01*
X119909857Y-68157286D01*
X119838428Y-68121571D01*
X119766999Y-68050143D01*
X119731285Y-67907286D01*
X119731285Y-67657286D01*
X119766999Y-67514429D01*
X119838428Y-67443000D01*
X119909857Y-67407286D01*
X120445571Y-67407286D02*
X120874142Y-67407286D01*
X120659856Y-68157286D02*
X120659856Y-67407286D01*
X121695571Y-68157286D02*
X121695571Y-67407286D01*
X122052714Y-68157286D02*
X122052714Y-67407286D01*
X122481286Y-68157286D01*
X122481286Y-67407286D01*
X122802714Y-68121571D02*
X122909857Y-68157286D01*
X123088428Y-68157286D01*
X123159857Y-68121571D01*
X123195571Y-68085857D01*
X123231286Y-68014429D01*
X123231286Y-67943000D01*
X123195571Y-67871571D01*
X123159857Y-67835857D01*
X123088428Y-67800143D01*
X122945571Y-67764429D01*
X122874143Y-67728714D01*
X122838428Y-67693000D01*
X122802714Y-67621571D01*
X122802714Y-67550143D01*
X122838428Y-67478714D01*
X122874143Y-67443000D01*
X122945571Y-67407286D01*
X123124143Y-67407286D01*
X123231286Y-67443000D01*
X123445572Y-67407286D02*
X123874143Y-67407286D01*
X123659857Y-68157286D02*
X123659857Y-67407286D01*
X124088429Y-67943000D02*
X124445572Y-67943000D01*
X124017001Y-68157286D02*
X124267001Y-67407286D01*
X124517001Y-68157286D01*
X125124143Y-68157286D02*
X124767000Y-68157286D01*
X124767000Y-67407286D01*
X125731286Y-68157286D02*
X125374143Y-68157286D01*
X125374143Y-67407286D01*
D15*
X81387905Y-81559428D02*
X81387905Y-82016571D01*
X81387905Y-81788000D02*
X80587905Y-81788000D01*
X80702190Y-81864190D01*
X80778381Y-81940381D01*
X80816476Y-82016571D01*
X85210286Y-66723286D02*
X84781714Y-66723286D01*
X84996000Y-66723286D02*
X84996000Y-65973286D01*
X84924571Y-66080429D01*
X84853143Y-66151857D01*
X84781714Y-66187571D01*
X82407286Y-80253858D02*
X82407286Y-80611001D01*
X82764429Y-80646715D01*
X82728714Y-80611001D01*
X82693000Y-80539572D01*
X82693000Y-80361001D01*
X82728714Y-80289572D01*
X82764429Y-80253858D01*
X82835857Y-80218143D01*
X83014429Y-80218143D01*
X83085857Y-80253858D01*
X83121571Y-80289572D01*
X83157286Y-80361001D01*
X83157286Y-80539572D01*
X83121571Y-80611001D01*
X83085857Y-80646715D01*
X82407286Y-80003857D02*
X83157286Y-79753857D01*
X82407286Y-79503857D01*
X82443000Y-77718142D02*
X82407286Y-77789571D01*
X82407286Y-77896714D01*
X82443000Y-78003857D01*
X82514429Y-78075285D01*
X82585857Y-78111000D01*
X82728714Y-78146714D01*
X82835857Y-78146714D01*
X82978714Y-78111000D01*
X83050143Y-78075285D01*
X83121571Y-78003857D01*
X83157286Y-77896714D01*
X83157286Y-77825285D01*
X83121571Y-77718142D01*
X83085857Y-77682428D01*
X82835857Y-77682428D01*
X82835857Y-77825285D01*
X83157286Y-77361000D02*
X82407286Y-77361000D01*
X83157286Y-76932428D01*
X82407286Y-76932428D01*
X83157286Y-76575286D02*
X82407286Y-76575286D01*
X82407286Y-76396714D01*
X82443000Y-76289571D01*
X82514429Y-76218143D01*
X82585857Y-76182428D01*
X82728714Y-76146714D01*
X82835857Y-76146714D01*
X82978714Y-76182428D01*
X83050143Y-76218143D01*
X83121571Y-76289571D01*
X83157286Y-76396714D01*
X83157286Y-76575286D01*
X83121571Y-75289571D02*
X83157286Y-75182428D01*
X83157286Y-75003857D01*
X83121571Y-74932428D01*
X83085857Y-74896714D01*
X83014429Y-74860999D01*
X82943000Y-74860999D01*
X82871571Y-74896714D01*
X82835857Y-74932428D01*
X82800143Y-75003857D01*
X82764429Y-75146714D01*
X82728714Y-75218142D01*
X82693000Y-75253857D01*
X82621571Y-75289571D01*
X82550143Y-75289571D01*
X82478714Y-75253857D01*
X82443000Y-75218142D01*
X82407286Y-75146714D01*
X82407286Y-74968142D01*
X82443000Y-74860999D01*
X83085857Y-74110999D02*
X83121571Y-74146713D01*
X83157286Y-74253856D01*
X83157286Y-74325285D01*
X83121571Y-74432428D01*
X83050143Y-74503856D01*
X82978714Y-74539571D01*
X82835857Y-74575285D01*
X82728714Y-74575285D01*
X82585857Y-74539571D01*
X82514429Y-74503856D01*
X82443000Y-74432428D01*
X82407286Y-74325285D01*
X82407286Y-74253856D01*
X82443000Y-74146713D01*
X82478714Y-74110999D01*
X83157286Y-73432428D02*
X83157286Y-73789571D01*
X82407286Y-73789571D01*
X83121571Y-72646713D02*
X83157286Y-72539570D01*
X83157286Y-72360999D01*
X83121571Y-72289570D01*
X83085857Y-72253856D01*
X83014429Y-72218141D01*
X82943000Y-72218141D01*
X82871571Y-72253856D01*
X82835857Y-72289570D01*
X82800143Y-72360999D01*
X82764429Y-72503856D01*
X82728714Y-72575284D01*
X82693000Y-72610999D01*
X82621571Y-72646713D01*
X82550143Y-72646713D01*
X82478714Y-72610999D01*
X82443000Y-72575284D01*
X82407286Y-72503856D01*
X82407286Y-72325284D01*
X82443000Y-72218141D01*
X83157286Y-71896713D02*
X82407286Y-71896713D01*
X82407286Y-71718141D01*
X82443000Y-71610998D01*
X82514429Y-71539570D01*
X82585857Y-71503855D01*
X82728714Y-71468141D01*
X82835857Y-71468141D01*
X82978714Y-71503855D01*
X83050143Y-71539570D01*
X83121571Y-71610998D01*
X83157286Y-71718141D01*
X83157286Y-71896713D01*
X82943000Y-71182427D02*
X82943000Y-70825284D01*
X83157286Y-71253855D02*
X82407286Y-71003855D01*
X83157286Y-70753855D01*
D16*
X91823334Y-89742095D02*
X91823334Y-88442095D01*
X92356668Y-88442095D01*
X92490001Y-88504000D01*
X92556668Y-88565905D01*
X92623334Y-88689714D01*
X92623334Y-88875429D01*
X92556668Y-88999238D01*
X92490001Y-89061143D01*
X92356668Y-89123048D01*
X91823334Y-89123048D01*
X93223334Y-89742095D02*
X93223334Y-88442095D01*
X94156668Y-88442095D02*
X94290001Y-88442095D01*
X94423335Y-88504000D01*
X94490001Y-88565905D01*
X94556668Y-88689714D01*
X94623335Y-88937333D01*
X94623335Y-89246857D01*
X94556668Y-89494476D01*
X94490001Y-89618286D01*
X94423335Y-89680190D01*
X94290001Y-89742095D01*
X94156668Y-89742095D01*
X94023335Y-89680190D01*
X93956668Y-89618286D01*
X93890001Y-89494476D01*
X93823335Y-89246857D01*
X93823335Y-88937333D01*
X93890001Y-88689714D01*
X93956668Y-88565905D01*
X94023335Y-88504000D01*
X94156668Y-88442095D01*
X95090001Y-88442095D02*
X95423334Y-89742095D01*
X95690001Y-88813524D01*
X95956668Y-89742095D01*
X96290001Y-88442095D01*
X97756668Y-88442095D02*
X98090001Y-89742095D01*
X98356668Y-88813524D01*
X98623335Y-89742095D01*
X98956668Y-88442095D01*
X99423335Y-89680190D02*
X99623335Y-89742095D01*
X99956668Y-89742095D01*
X100090001Y-89680190D01*
X100156668Y-89618286D01*
X100223335Y-89494476D01*
X100223335Y-89370667D01*
X100156668Y-89246857D01*
X100090001Y-89184952D01*
X99956668Y-89123048D01*
X99690001Y-89061143D01*
X99556668Y-88999238D01*
X99490001Y-88937333D01*
X99423335Y-88813524D01*
X99423335Y-88689714D01*
X99490001Y-88565905D01*
X99556668Y-88504000D01*
X99690001Y-88442095D01*
X100023335Y-88442095D01*
X100223335Y-88504000D01*
X100823334Y-89742095D02*
X100823334Y-88442095D01*
X101356668Y-88442095D01*
X101490001Y-88504000D01*
X101556668Y-88565905D01*
X101623334Y-88689714D01*
X101623334Y-88875429D01*
X101556668Y-88999238D01*
X101490001Y-89061143D01*
X101356668Y-89123048D01*
X100823334Y-89123048D01*
X103023334Y-89742095D02*
X102556668Y-89123048D01*
X102223334Y-89742095D02*
X102223334Y-88442095D01*
X102756668Y-88442095D01*
X102890001Y-88504000D01*
X102956668Y-88565905D01*
X103023334Y-88689714D01*
X103023334Y-88875429D01*
X102956668Y-88999238D01*
X102890001Y-89061143D01*
X102756668Y-89123048D01*
X102223334Y-89123048D01*
X104490001Y-88442095D02*
X105290001Y-88442095D01*
X104890001Y-89742095D02*
X104890001Y-88442095D01*
X105623335Y-88442095D02*
X106556668Y-89742095D01*
X106556668Y-88442095D02*
X105623335Y-89742095D01*
X108023335Y-88875429D02*
X108356668Y-89742095D01*
X108690002Y-88875429D01*
X109956669Y-89742095D02*
X109156669Y-89742095D01*
X109556669Y-89742095D02*
X109556669Y-88442095D01*
X109423335Y-88627810D01*
X109290002Y-88751619D01*
X109156669Y-88813524D01*
X110556668Y-89618286D02*
X110623335Y-89680190D01*
X110556668Y-89742095D01*
X110490002Y-89680190D01*
X110556668Y-89618286D01*
X110556668Y-89742095D01*
X111890002Y-88442095D02*
X111223335Y-88442095D01*
X111156669Y-89061143D01*
X111223335Y-88999238D01*
X111356669Y-88937333D01*
X111690002Y-88937333D01*
X111823335Y-88999238D01*
X111890002Y-89061143D01*
X111956669Y-89184952D01*
X111956669Y-89494476D01*
X111890002Y-89618286D01*
X111823335Y-89680190D01*
X111690002Y-89742095D01*
X111356669Y-89742095D01*
X111223335Y-89680190D01*
X111156669Y-89618286D01*
X114023335Y-90237333D02*
X113956669Y-90175429D01*
X113823335Y-89989714D01*
X113756669Y-89865905D01*
X113690002Y-89680190D01*
X113623335Y-89370667D01*
X113623335Y-89123048D01*
X113690002Y-88813524D01*
X113756669Y-88627810D01*
X113823335Y-88504000D01*
X113956669Y-88318286D01*
X114023335Y-88256381D01*
X115356668Y-89618286D02*
X115290002Y-89680190D01*
X115090002Y-89742095D01*
X114956668Y-89742095D01*
X114756668Y-89680190D01*
X114623335Y-89556381D01*
X114556668Y-89432571D01*
X114490002Y-89184952D01*
X114490002Y-88999238D01*
X114556668Y-88751619D01*
X114623335Y-88627810D01*
X114756668Y-88504000D01*
X114956668Y-88442095D01*
X115090002Y-88442095D01*
X115290002Y-88504000D01*
X115356668Y-88565905D01*
X115823335Y-90237333D02*
X115890002Y-90175429D01*
X116023335Y-89989714D01*
X116090002Y-89865905D01*
X116156668Y-89680190D01*
X116223335Y-89370667D01*
X116223335Y-89123048D01*
X116156668Y-88813524D01*
X116090002Y-88627810D01*
X116023335Y-88504000D01*
X115890002Y-88318286D01*
X115823335Y-88256381D01*
X116823335Y-88565905D02*
X116890001Y-88504000D01*
X117023335Y-88442095D01*
X117356668Y-88442095D01*
X117490001Y-88504000D01*
X117556668Y-88565905D01*
X117623335Y-88689714D01*
X117623335Y-88813524D01*
X117556668Y-88999238D01*
X116756668Y-89742095D01*
X117623335Y-89742095D01*
X118490001Y-88442095D02*
X118623334Y-88442095D01*
X118756668Y-88504000D01*
X118823334Y-88565905D01*
X118890001Y-88689714D01*
X118956668Y-88937333D01*
X118956668Y-89246857D01*
X118890001Y-89494476D01*
X118823334Y-89618286D01*
X118756668Y-89680190D01*
X118623334Y-89742095D01*
X118490001Y-89742095D01*
X118356668Y-89680190D01*
X118290001Y-89618286D01*
X118223334Y-89494476D01*
X118156668Y-89246857D01*
X118156668Y-88937333D01*
X118223334Y-88689714D01*
X118290001Y-88565905D01*
X118356668Y-88504000D01*
X118490001Y-88442095D01*
X120290001Y-89742095D02*
X119490001Y-89742095D01*
X119890001Y-89742095D02*
X119890001Y-88442095D01*
X119756667Y-88627810D01*
X119623334Y-88751619D01*
X119490001Y-88813524D01*
X121090000Y-88999238D02*
X120956667Y-88937333D01*
X120890000Y-88875429D01*
X120823334Y-88751619D01*
X120823334Y-88689714D01*
X120890000Y-88565905D01*
X120956667Y-88504000D01*
X121090000Y-88442095D01*
X121356667Y-88442095D01*
X121490000Y-88504000D01*
X121556667Y-88565905D01*
X121623334Y-88689714D01*
X121623334Y-88751619D01*
X121556667Y-88875429D01*
X121490000Y-88937333D01*
X121356667Y-88999238D01*
X121090000Y-88999238D01*
X120956667Y-89061143D01*
X120890000Y-89123048D01*
X120823334Y-89246857D01*
X120823334Y-89494476D01*
X120890000Y-89618286D01*
X120956667Y-89680190D01*
X121090000Y-89742095D01*
X121356667Y-89742095D01*
X121490000Y-89680190D01*
X121556667Y-89618286D01*
X121623334Y-89494476D01*
X121623334Y-89246857D01*
X121556667Y-89123048D01*
X121490000Y-89061143D01*
X121356667Y-88999238D01*
X123223334Y-89370667D02*
X123890000Y-89370667D01*
X123090000Y-89742095D02*
X123556667Y-88442095D01*
X124023334Y-89742095D01*
X125290000Y-89618286D02*
X125223334Y-89680190D01*
X125023334Y-89742095D01*
X124890000Y-89742095D01*
X124690000Y-89680190D01*
X124556667Y-89556381D01*
X124490000Y-89432571D01*
X124423334Y-89184952D01*
X124423334Y-88999238D01*
X124490000Y-88751619D01*
X124556667Y-88627810D01*
X124690000Y-88504000D01*
X124890000Y-88442095D01*
X125023334Y-88442095D01*
X125223334Y-88504000D01*
X125290000Y-88565905D01*
X126090000Y-88999238D02*
X125956667Y-88937333D01*
X125890000Y-88875429D01*
X125823334Y-88751619D01*
X125823334Y-88689714D01*
X125890000Y-88565905D01*
X125956667Y-88504000D01*
X126090000Y-88442095D01*
X126356667Y-88442095D01*
X126490000Y-88504000D01*
X126556667Y-88565905D01*
X126623334Y-88689714D01*
X126623334Y-88751619D01*
X126556667Y-88875429D01*
X126490000Y-88937333D01*
X126356667Y-88999238D01*
X126090000Y-88999238D01*
X125956667Y-89061143D01*
X125890000Y-89123048D01*
X125823334Y-89246857D01*
X125823334Y-89494476D01*
X125890000Y-89618286D01*
X125956667Y-89680190D01*
X126090000Y-89742095D01*
X126356667Y-89742095D01*
X126490000Y-89680190D01*
X126556667Y-89618286D01*
X126623334Y-89494476D01*
X126623334Y-89246857D01*
X126556667Y-89123048D01*
X126490000Y-89061143D01*
X126356667Y-88999238D01*
X127223333Y-89061143D02*
X127690000Y-89061143D01*
X127890000Y-89742095D02*
X127223333Y-89742095D01*
X127223333Y-88442095D01*
X127890000Y-88442095D01*
X128423334Y-89680190D02*
X128623334Y-89742095D01*
X128956667Y-89742095D01*
X129090000Y-89680190D01*
X129156667Y-89618286D01*
X129223334Y-89494476D01*
X129223334Y-89370667D01*
X129156667Y-89246857D01*
X129090000Y-89184952D01*
X128956667Y-89123048D01*
X128690000Y-89061143D01*
X128556667Y-88999238D01*
X128490000Y-88937333D01*
X128423334Y-88813524D01*
X128423334Y-88689714D01*
X128490000Y-88565905D01*
X128556667Y-88504000D01*
X128690000Y-88442095D01*
X129023334Y-88442095D01*
X129223334Y-88504000D01*
D17*
X131004000Y-76200000D02*
X131004000Y-76260000D01*
X131004000Y-76260000D02*
X133664000Y-76260000D01*
X133664000Y-76260000D02*
X133664000Y-76200000D01*
X133664000Y-76200000D02*
X131004000Y-76200000D01*
X131004000Y-74930000D02*
X131004000Y-73600000D01*
X131004000Y-73600000D02*
X132334000Y-73600000D01*
X97292000Y-79106000D02*
X97292000Y-82526000D01*
X97292000Y-82526000D02*
X104412000Y-82526000D01*
X104412000Y-82526000D02*
X104412000Y-79106000D01*
X104412000Y-79106000D02*
X97292000Y-79106000D01*
X96752000Y-80816000D02*
X97292000Y-80816000D01*
X104952000Y-80816000D02*
X104412000Y-80816000D01*
X96736000Y-83128000D02*
X102856000Y-83128000D01*
X96736000Y-87648000D02*
X102856000Y-87648000D01*
X96736000Y-83128000D02*
X96736000Y-84392000D01*
X96736000Y-86384000D02*
X96736000Y-87648000D01*
X102856000Y-83128000D02*
X102856000Y-84392000D01*
X102856000Y-86384000D02*
X102856000Y-87648000D01*
X110556000Y-87648000D02*
X104436000Y-87648000D01*
X110556000Y-83128000D02*
X104436000Y-83128000D01*
X110556000Y-87648000D02*
X110556000Y-86384000D01*
X110556000Y-84392000D02*
X110556000Y-83128000D01*
X104436000Y-87648000D02*
X104436000Y-86384000D01*
X104436000Y-84392000D02*
X104436000Y-83128000D01*
X118176000Y-87648000D02*
X112056000Y-87648000D01*
X118176000Y-83128000D02*
X112056000Y-83128000D01*
X118176000Y-87648000D02*
X118176000Y-86384000D01*
X118176000Y-84392000D02*
X118176000Y-83128000D01*
X112056000Y-87648000D02*
X112056000Y-86384000D01*
X112056000Y-84392000D02*
X112056000Y-83128000D01*
X99635000Y-75057000D02*
X99635000Y-75117000D01*
X99635000Y-75117000D02*
X102295000Y-75117000D01*
X102295000Y-75117000D02*
X102295000Y-75057000D01*
X102295000Y-75057000D02*
X99635000Y-75057000D01*
X99635000Y-73787000D02*
X99635000Y-72457000D01*
X99635000Y-72457000D02*
X100965000Y-72457000D01*
X123317000Y-81213000D02*
X123377000Y-81213000D01*
X123377000Y-81213000D02*
X123377000Y-78553000D01*
X123377000Y-78553000D02*
X123317000Y-78553000D01*
X123317000Y-78553000D02*
X123317000Y-81213000D01*
X122047000Y-81213000D02*
X120717000Y-81213000D01*
X120717000Y-81213000D02*
X120717000Y-79883000D01*
X112800000Y-75438000D02*
G75*
G03X112800000Y-75438000I-2310000J0D01*
G01*
X112800000Y-75438000D02*
X114270000Y-75438000D01*
X121944000Y-71120000D02*
G75*
G03X121944000Y-71120000I-2310000J0D01*
G01*
X121944000Y-71120000D02*
X123414000Y-71120000D01*
X109992000Y-79106000D02*
X109992000Y-82526000D01*
X109992000Y-82526000D02*
X117112000Y-82526000D01*
X117112000Y-82526000D02*
X117112000Y-79106000D01*
X117112000Y-79106000D02*
X109992000Y-79106000D01*
X109452000Y-80816000D02*
X109992000Y-80816000D01*
X117652000Y-80816000D02*
X117112000Y-80816000D01*
X89686000Y-79121000D02*
G75*
G03X89686000Y-79121000I-2310000J0D01*
G01*
X87376000Y-76811000D02*
X87376000Y-75341000D01*
D12*
X141106000Y-80910000D02*
G75*
G03X141106000Y-80910000I-2000000J0D01*
G01*
X135106000Y-78410000D02*
X134606000Y-78410000D01*
X135106000Y-73410000D02*
X134606000Y-73410000D01*
X141106000Y-75910000D02*
G75*
G03X141106000Y-75910000I-2000000J0D01*
G01*
X141106000Y-70910000D02*
G75*
G03X141106000Y-70910000I-2000000J0D01*
G01*
X136606000Y-68410000D02*
X136606000Y-83410000D01*
X141506000Y-68410000D02*
X141506000Y-83410000D01*
X135106000Y-68410000D02*
X135106000Y-83410000D01*
X134606000Y-68410000D02*
X134606000Y-83410000D01*
X134606000Y-83410000D02*
X144406000Y-83410000D01*
X144406000Y-83410000D02*
X144406000Y-68410000D01*
X144406000Y-68410000D02*
X134606000Y-68410000D01*
D17*
X99635000Y-72517000D02*
X99635000Y-72577000D01*
X99635000Y-72577000D02*
X102295000Y-72577000D01*
X102295000Y-72577000D02*
X102295000Y-72517000D01*
X102295000Y-72517000D02*
X99635000Y-72517000D01*
X99635000Y-71247000D02*
X99635000Y-69917000D01*
X99635000Y-69917000D02*
X100965000Y-69917000D01*
X99635000Y-77597000D02*
X99635000Y-77657000D01*
X99635000Y-77657000D02*
X102295000Y-77657000D01*
X102295000Y-77657000D02*
X102295000Y-77597000D01*
X102295000Y-77597000D02*
X99635000Y-77597000D01*
X99635000Y-76327000D02*
X99635000Y-74997000D01*
X99635000Y-74997000D02*
X100965000Y-74997000D01*
X123317000Y-78419000D02*
X123377000Y-78419000D01*
X123377000Y-78419000D02*
X123377000Y-75759000D01*
X123377000Y-75759000D02*
X123317000Y-75759000D01*
X123317000Y-75759000D02*
X123317000Y-78419000D01*
X122047000Y-78419000D02*
X120717000Y-78419000D01*
X120717000Y-78419000D02*
X120717000Y-77089000D01*
D12*
X105368000Y-69004000D02*
X105368000Y-70904000D01*
X106468000Y-69004000D02*
X106468000Y-70904000D01*
X105918000Y-69904000D02*
X105918000Y-70354000D01*
X106168000Y-69854000D02*
X105668000Y-69854000D01*
X105918000Y-69854000D02*
X106168000Y-70104000D01*
X106168000Y-70104000D02*
X105668000Y-70104000D01*
X105668000Y-70104000D02*
X105918000Y-69854000D01*
X104561000Y-69604000D02*
X104561000Y-70604000D01*
X103211000Y-70604000D02*
X103211000Y-69604000D01*
D17*
X90558000Y-78867000D02*
X90558000Y-78987000D01*
X90558000Y-78987000D02*
X93338000Y-78987000D01*
X93338000Y-78987000D02*
X93338000Y-78867000D01*
X93338000Y-78867000D02*
X90558000Y-78867000D01*
X90558000Y-78232000D02*
X90558000Y-77477000D01*
X90558000Y-77477000D02*
X91948000Y-77477000D01*
X125857000Y-83686000D02*
X125977000Y-83686000D01*
X125977000Y-83686000D02*
X125977000Y-80906000D01*
X125977000Y-80906000D02*
X125857000Y-80906000D01*
X125857000Y-80906000D02*
X125857000Y-83686000D01*
X125222000Y-83686000D02*
X124467000Y-83686000D01*
X124467000Y-83686000D02*
X124467000Y-82296000D01*
X129928000Y-88519000D02*
X129928000Y-88639000D01*
X129928000Y-88639000D02*
X132708000Y-88639000D01*
X132708000Y-88639000D02*
X132708000Y-88519000D01*
X132708000Y-88519000D02*
X129928000Y-88519000D01*
X129928000Y-87884000D02*
X129928000Y-87129000D01*
X129928000Y-87129000D02*
X131318000Y-87129000D01*
X131184000Y-70231000D02*
X131184000Y-70111000D01*
X131184000Y-70111000D02*
X128404000Y-70111000D01*
X128404000Y-70111000D02*
X128404000Y-70231000D01*
X128404000Y-70231000D02*
X131184000Y-70231000D01*
X131184000Y-70866000D02*
X131184000Y-71621000D01*
X131184000Y-71621000D02*
X129794000Y-71621000D01*
X82040000Y-78350000D02*
X82040000Y-70610000D01*
X82040000Y-70610000D02*
X79260000Y-70610000D01*
X79260000Y-70610000D02*
X79260000Y-78350000D01*
X79260000Y-78350000D02*
X82040000Y-78350000D01*
X82040000Y-79620000D02*
X82040000Y-81010000D01*
X82040000Y-81010000D02*
X80650000Y-81010000D01*
X88186356Y-66977611D02*
X103546356Y-66977611D01*
X103546356Y-66977611D02*
X103546356Y-61657611D01*
X103546356Y-61657611D02*
X85526356Y-61657611D01*
X85526356Y-61657611D02*
X85526356Y-64317611D01*
X85526356Y-64317611D02*
X88186356Y-64317611D01*
X88186356Y-64317611D02*
X88186356Y-66977611D01*
X86916356Y-66977611D02*
X85526356Y-66977611D01*
X85526356Y-66977611D02*
X85526356Y-65587611D01*
D12*
X92623000Y-74176000D02*
X92623000Y-75176000D01*
X91273000Y-75176000D02*
X91273000Y-74176000D01*
D17*
X123317000Y-83499000D02*
X123377000Y-83499000D01*
X123377000Y-83499000D02*
X123377000Y-80839000D01*
X123377000Y-80839000D02*
X123317000Y-80839000D01*
X123317000Y-80839000D02*
X123317000Y-83499000D01*
X122047000Y-83499000D02*
X120717000Y-83499000D01*
X120717000Y-83499000D02*
X120717000Y-82169000D01*
X105966356Y-66977611D02*
X136566356Y-66977611D01*
X136566356Y-66977611D02*
X136566356Y-61657611D01*
X136566356Y-61657611D02*
X103306356Y-61657611D01*
X103306356Y-61657611D02*
X103306356Y-64317611D01*
X103306356Y-64317611D02*
X105966356Y-64317611D01*
X105966356Y-64317611D02*
X105966356Y-66977611D01*
X104696356Y-66977611D02*
X103306356Y-66977611D01*
X103306356Y-66977611D02*
X103306356Y-65587611D01*
D12*
X132788000Y-77507000D02*
X132296000Y-77015000D01*
X132296000Y-77015000D02*
X127209000Y-77015000D01*
X127209000Y-77015000D02*
X127209000Y-81315000D01*
X127209000Y-81315000D02*
X132788000Y-81315000D01*
X132788000Y-81315000D02*
X132788000Y-77507000D01*
D17*
X98164000Y-69215000D02*
X98164000Y-69095000D01*
X98164000Y-69095000D02*
X95384000Y-69095000D01*
X95384000Y-69095000D02*
X95384000Y-69215000D01*
X95384000Y-69215000D02*
X98164000Y-69215000D01*
X98164000Y-69850000D02*
X98164000Y-70605000D01*
X98164000Y-70605000D02*
X96774000Y-70605000D01*
X128464000Y-76200000D02*
X128464000Y-76260000D01*
X128464000Y-76260000D02*
X131124000Y-76260000D01*
X131124000Y-76260000D02*
X131124000Y-76200000D01*
X131124000Y-76200000D02*
X128464000Y-76200000D01*
X128464000Y-74930000D02*
X128464000Y-73600000D01*
X128464000Y-73600000D02*
X129794000Y-73600000D01*
X128464000Y-84836000D02*
X128464000Y-84896000D01*
X128464000Y-84896000D02*
X131124000Y-84896000D01*
X131124000Y-84896000D02*
X131124000Y-84836000D01*
X131124000Y-84836000D02*
X128464000Y-84836000D01*
X128464000Y-83566000D02*
X128464000Y-82236000D01*
X128464000Y-82236000D02*
X129794000Y-82236000D01*
X130877000Y-84836000D02*
X130877000Y-84896000D01*
X130877000Y-84896000D02*
X133537000Y-84896000D01*
X133537000Y-84896000D02*
X133537000Y-84836000D01*
X133537000Y-84836000D02*
X130877000Y-84836000D01*
X130877000Y-83566000D02*
X130877000Y-82236000D01*
X130877000Y-82236000D02*
X132207000Y-82236000D01*
D12*
X106772000Y-75850000D02*
X106772000Y-76550000D01*
X105572000Y-76550000D02*
X105572000Y-75850000D01*
X114970000Y-70708000D02*
X114970000Y-70008000D01*
X116170000Y-70008000D02*
X116170000Y-70708000D01*
X126400000Y-75026000D02*
X126400000Y-74326000D01*
X127600000Y-74326000D02*
X127600000Y-75026000D01*
X110943000Y-68536000D02*
X110943000Y-68736000D01*
X110943000Y-71130000D02*
X110943000Y-70950000D01*
X107715256Y-70819643D02*
G75*
G03X110943000Y-71136000I1727744J1003643D01*
G01*
X108390994Y-70949068D02*
G75*
G03X110494000Y-70950000I1052006J1133068D01*
G01*
X110930220Y-68509274D02*
G75*
G03X107693000Y-68856000I-1497220J-1306726D01*
G01*
X110456889Y-68736747D02*
G75*
G03X108409000Y-68756000I-1013889J-1079253D01*
G01*
X96004000Y-72303000D02*
X95004000Y-72303000D01*
X95004000Y-70953000D02*
X96004000Y-70953000D01*
X94039920Y-83365340D02*
X93791000Y-83665060D01*
X93791000Y-83665060D02*
X93689400Y-83814920D01*
X93689400Y-83814920D02*
X93689400Y-82966560D01*
X94390440Y-84866480D02*
X94390440Y-83065620D01*
X94390440Y-84866480D02*
X93740200Y-84866480D01*
X88516560Y-84866480D02*
X88516560Y-83065620D01*
X88516560Y-84866480D02*
X89166800Y-84866480D01*
X124622000Y-79090000D02*
X124622000Y-78390000D01*
X125822000Y-78390000D02*
X125822000Y-79090000D01*
X90516000Y-74453000D02*
X90516000Y-75153000D01*
X89316000Y-75153000D02*
X89316000Y-74453000D01*
X85598000Y-87122000D02*
X85598000Y-84582000D01*
X85318000Y-89942000D02*
X85318000Y-88392000D01*
X85598000Y-87122000D02*
X88138000Y-87122000D01*
X88418000Y-88392000D02*
X88418000Y-89942000D01*
X88418000Y-89942000D02*
X85318000Y-89942000D01*
X88138000Y-87122000D02*
X88138000Y-84582000D01*
X88138000Y-84582000D02*
X85598000Y-84582000D01*
X93310000Y-70516000D02*
X93310000Y-71216000D01*
X92110000Y-71216000D02*
X92110000Y-70516000D01*
D17*
X98826000Y-72624000D02*
X98826000Y-77744000D01*
X93706000Y-72624000D02*
X93706000Y-77744000D01*
X98826000Y-72624000D02*
X97446000Y-72624000D01*
X95086000Y-72624000D02*
X93706000Y-72624000D01*
X98826000Y-77744000D02*
X98246000Y-77744000D01*
X96586000Y-77744000D02*
X95946000Y-77744000D01*
X94286000Y-77744000D02*
X93706000Y-77744000D01*
X95381062Y-76009218D02*
G75*
G02X95056000Y-75184000I884938J825218D01*
G01*
X96600851Y-76342610D02*
G75*
G02X95936000Y-76344000I-334851J1158610D01*
G01*
X97155364Y-74364042D02*
G75*
G02X97146000Y-76014000I-889364J-819958D01*
G01*
X95049222Y-75205194D02*
G75*
G02X95376000Y-74354000I1216778J21194D01*
G01*
D12*
X84828000Y-81954000D02*
X83828000Y-81954000D01*
X83828000Y-83654000D02*
X84828000Y-83654000D01*
X83380000Y-76057000D02*
X83380000Y-74057000D01*
X85530000Y-74057000D02*
X85530000Y-76057000D01*
X93464000Y-68747000D02*
X92464000Y-68747000D01*
X92464000Y-67397000D02*
X93464000Y-67397000D01*
X96528000Y-67397000D02*
X97528000Y-67397000D01*
X97528000Y-68747000D02*
X96528000Y-68747000D01*
X93940000Y-86225000D02*
X93940000Y-85225000D01*
X95290000Y-85225000D02*
X95290000Y-86225000D01*
X132032477Y-72096381D02*
X132032477Y-72810667D01*
X131984857Y-72953524D01*
X131889619Y-73048762D01*
X131746762Y-73096381D01*
X131651524Y-73096381D01*
X132937239Y-72429714D02*
X132937239Y-73096381D01*
X132699143Y-72048762D02*
X132461048Y-72763048D01*
X133080096Y-72763048D01*
X133413429Y-72191619D02*
X133461048Y-72144000D01*
X133556286Y-72096381D01*
X133794382Y-72096381D01*
X133889620Y-72144000D01*
X133937239Y-72191619D01*
X133984858Y-72286857D01*
X133984858Y-72382095D01*
X133937239Y-72524952D01*
X133365810Y-73096381D01*
X133984858Y-73096381D01*
X100209143Y-80633381D02*
X99732952Y-80633381D01*
X99732952Y-79633381D01*
X100494857Y-79728619D02*
X100542476Y-79681000D01*
X100637714Y-79633381D01*
X100875810Y-79633381D01*
X100971048Y-79681000D01*
X101018667Y-79728619D01*
X101066286Y-79823857D01*
X101066286Y-79919095D01*
X101018667Y-80061952D01*
X100447238Y-80633381D01*
X101066286Y-80633381D01*
X101685333Y-79633381D02*
X101780572Y-79633381D01*
X101875810Y-79681000D01*
X101923429Y-79728619D01*
X101971048Y-79823857D01*
X102018667Y-80014333D01*
X102018667Y-80252429D01*
X101971048Y-80442905D01*
X101923429Y-80538143D01*
X101875810Y-80585762D01*
X101780572Y-80633381D01*
X101685333Y-80633381D01*
X101590095Y-80585762D01*
X101542476Y-80538143D01*
X101494857Y-80442905D01*
X101447238Y-80252429D01*
X101447238Y-80014333D01*
X101494857Y-79823857D01*
X101542476Y-79728619D01*
X101590095Y-79681000D01*
X101685333Y-79633381D01*
X81338095Y-64852381D02*
X81338095Y-63852381D01*
X81338095Y-64328571D02*
X81909524Y-64328571D01*
X81909524Y-64852381D02*
X81909524Y-63852381D01*
X82909524Y-64852381D02*
X82338095Y-64852381D01*
X82623809Y-64852381D02*
X82623809Y-63852381D01*
X82528571Y-63995238D01*
X82433333Y-64090476D01*
X82338095Y-64138095D01*
X139338095Y-64872381D02*
X139338095Y-63872381D01*
X139338095Y-64348571D02*
X139909524Y-64348571D01*
X139909524Y-64872381D02*
X139909524Y-63872381D01*
X140338095Y-63967619D02*
X140385714Y-63920000D01*
X140480952Y-63872381D01*
X140719048Y-63872381D01*
X140814286Y-63920000D01*
X140861905Y-63967619D01*
X140909524Y-64062857D01*
X140909524Y-64158095D01*
X140861905Y-64300952D01*
X140290476Y-64872381D01*
X140909524Y-64872381D01*
X99193143Y-84475143D02*
X99145524Y-84522762D01*
X99002667Y-84570381D01*
X98907429Y-84570381D01*
X98764571Y-84522762D01*
X98669333Y-84427524D01*
X98621714Y-84332286D01*
X98574095Y-84141810D01*
X98574095Y-83998952D01*
X98621714Y-83808476D01*
X98669333Y-83713238D01*
X98764571Y-83618000D01*
X98907429Y-83570381D01*
X99002667Y-83570381D01*
X99145524Y-83618000D01*
X99193143Y-83665619D01*
X99574095Y-83665619D02*
X99621714Y-83618000D01*
X99716952Y-83570381D01*
X99955048Y-83570381D01*
X100050286Y-83618000D01*
X100097905Y-83665619D01*
X100145524Y-83760857D01*
X100145524Y-83856095D01*
X100097905Y-83998952D01*
X99526476Y-84570381D01*
X100145524Y-84570381D01*
X100764571Y-83570381D02*
X100859810Y-83570381D01*
X100955048Y-83618000D01*
X101002667Y-83665619D01*
X101050286Y-83760857D01*
X101097905Y-83951333D01*
X101097905Y-84189429D01*
X101050286Y-84379905D01*
X101002667Y-84475143D01*
X100955048Y-84522762D01*
X100859810Y-84570381D01*
X100764571Y-84570381D01*
X100669333Y-84522762D01*
X100621714Y-84475143D01*
X100574095Y-84379905D01*
X100526476Y-84189429D01*
X100526476Y-83951333D01*
X100574095Y-83760857D01*
X100621714Y-83665619D01*
X100669333Y-83618000D01*
X100764571Y-83570381D01*
X106813143Y-84475143D02*
X106765524Y-84522762D01*
X106622667Y-84570381D01*
X106527429Y-84570381D01*
X106384571Y-84522762D01*
X106289333Y-84427524D01*
X106241714Y-84332286D01*
X106194095Y-84141810D01*
X106194095Y-83998952D01*
X106241714Y-83808476D01*
X106289333Y-83713238D01*
X106384571Y-83618000D01*
X106527429Y-83570381D01*
X106622667Y-83570381D01*
X106765524Y-83618000D01*
X106813143Y-83665619D01*
X107194095Y-83665619D02*
X107241714Y-83618000D01*
X107336952Y-83570381D01*
X107575048Y-83570381D01*
X107670286Y-83618000D01*
X107717905Y-83665619D01*
X107765524Y-83760857D01*
X107765524Y-83856095D01*
X107717905Y-83998952D01*
X107146476Y-84570381D01*
X107765524Y-84570381D01*
X108717905Y-84570381D02*
X108146476Y-84570381D01*
X108432190Y-84570381D02*
X108432190Y-83570381D01*
X108336952Y-83713238D01*
X108241714Y-83808476D01*
X108146476Y-83856095D01*
X114433143Y-84475143D02*
X114385524Y-84522762D01*
X114242667Y-84570381D01*
X114147429Y-84570381D01*
X114004571Y-84522762D01*
X113909333Y-84427524D01*
X113861714Y-84332286D01*
X113814095Y-84141810D01*
X113814095Y-83998952D01*
X113861714Y-83808476D01*
X113909333Y-83713238D01*
X114004571Y-83618000D01*
X114147429Y-83570381D01*
X114242667Y-83570381D01*
X114385524Y-83618000D01*
X114433143Y-83665619D01*
X114814095Y-83665619D02*
X114861714Y-83618000D01*
X114956952Y-83570381D01*
X115195048Y-83570381D01*
X115290286Y-83618000D01*
X115337905Y-83665619D01*
X115385524Y-83760857D01*
X115385524Y-83856095D01*
X115337905Y-83998952D01*
X114766476Y-84570381D01*
X115385524Y-84570381D01*
X115766476Y-83665619D02*
X115814095Y-83618000D01*
X115909333Y-83570381D01*
X116147429Y-83570381D01*
X116242667Y-83618000D01*
X116290286Y-83665619D01*
X116337905Y-83760857D01*
X116337905Y-83856095D01*
X116290286Y-83998952D01*
X115718857Y-84570381D01*
X116337905Y-84570381D01*
X102830381Y-73993333D02*
X103544667Y-73993333D01*
X103687524Y-74040953D01*
X103782762Y-74136191D01*
X103830381Y-74279048D01*
X103830381Y-74374286D01*
X102830381Y-73088571D02*
X102830381Y-73279048D01*
X102878000Y-73374286D01*
X102925619Y-73421905D01*
X103068476Y-73517143D01*
X103258952Y-73564762D01*
X103639905Y-73564762D01*
X103735143Y-73517143D01*
X103782762Y-73469524D01*
X103830381Y-73374286D01*
X103830381Y-73183809D01*
X103782762Y-73088571D01*
X103735143Y-73040952D01*
X103639905Y-72993333D01*
X103401810Y-72993333D01*
X103306571Y-73040952D01*
X103258952Y-73088571D01*
X103211333Y-73183809D01*
X103211333Y-73374286D01*
X103258952Y-73469524D01*
X103306571Y-73517143D01*
X103401810Y-73564762D01*
X119340381Y-79581333D02*
X120054667Y-79581333D01*
X120197524Y-79628953D01*
X120292762Y-79724191D01*
X120340381Y-79867048D01*
X120340381Y-79962286D01*
X119768952Y-78962286D02*
X119721333Y-79057524D01*
X119673714Y-79105143D01*
X119578476Y-79152762D01*
X119530857Y-79152762D01*
X119435619Y-79105143D01*
X119388000Y-79057524D01*
X119340381Y-78962286D01*
X119340381Y-78771809D01*
X119388000Y-78676571D01*
X119435619Y-78628952D01*
X119530857Y-78581333D01*
X119578476Y-78581333D01*
X119673714Y-78628952D01*
X119721333Y-78676571D01*
X119768952Y-78771809D01*
X119768952Y-78962286D01*
X119816571Y-79057524D01*
X119864190Y-79105143D01*
X119959429Y-79152762D01*
X120149905Y-79152762D01*
X120245143Y-79105143D01*
X120292762Y-79057524D01*
X120340381Y-78962286D01*
X120340381Y-78771809D01*
X120292762Y-78676571D01*
X120245143Y-78628952D01*
X120149905Y-78581333D01*
X119959429Y-78581333D01*
X119864190Y-78628952D01*
X119816571Y-78676571D01*
X119768952Y-78771809D01*
X113135143Y-74449381D02*
X112658952Y-74449381D01*
X112658952Y-73449381D01*
X113992286Y-74449381D02*
X113420857Y-74449381D01*
X113706571Y-74449381D02*
X113706571Y-73449381D01*
X113611333Y-73592238D01*
X113516095Y-73687476D01*
X113420857Y-73735095D01*
X114611333Y-73449381D02*
X114706572Y-73449381D01*
X114801810Y-73497000D01*
X114849429Y-73544619D01*
X114897048Y-73639857D01*
X114944667Y-73830333D01*
X114944667Y-74068429D01*
X114897048Y-74258905D01*
X114849429Y-74354143D01*
X114801810Y-74401762D01*
X114706572Y-74449381D01*
X114611333Y-74449381D01*
X114516095Y-74401762D01*
X114468476Y-74354143D01*
X114420857Y-74258905D01*
X114373238Y-74068429D01*
X114373238Y-73830333D01*
X114420857Y-73639857D01*
X114468476Y-73544619D01*
X114516095Y-73497000D01*
X114611333Y-73449381D01*
X122293143Y-73604381D02*
X121816952Y-73604381D01*
X121816952Y-72604381D01*
X123150286Y-73604381D02*
X122578857Y-73604381D01*
X122864571Y-73604381D02*
X122864571Y-72604381D01*
X122769333Y-72747238D01*
X122674095Y-72842476D01*
X122578857Y-72890095D01*
X124102667Y-73604381D02*
X123531238Y-73604381D01*
X123816952Y-73604381D02*
X123816952Y-72604381D01*
X123721714Y-72747238D01*
X123626476Y-72842476D01*
X123531238Y-72890095D01*
X112909143Y-80633381D02*
X112432952Y-80633381D01*
X112432952Y-79633381D01*
X113194857Y-79728619D02*
X113242476Y-79681000D01*
X113337714Y-79633381D01*
X113575810Y-79633381D01*
X113671048Y-79681000D01*
X113718667Y-79728619D01*
X113766286Y-79823857D01*
X113766286Y-79919095D01*
X113718667Y-80061952D01*
X113147238Y-80633381D01*
X113766286Y-80633381D01*
X114718667Y-80633381D02*
X114147238Y-80633381D01*
X114432952Y-80633381D02*
X114432952Y-79633381D01*
X114337714Y-79776238D01*
X114242476Y-79871476D01*
X114147238Y-79919095D01*
X88844381Y-75858666D02*
X88844381Y-76334857D01*
X87844381Y-76334857D01*
X88844381Y-75001523D02*
X88844381Y-75572952D01*
X88844381Y-75287238D02*
X87844381Y-75287238D01*
X87987238Y-75382476D01*
X88082476Y-75477714D01*
X88130095Y-75572952D01*
X135080477Y-84034381D02*
X135080477Y-84748667D01*
X135032857Y-84891524D01*
X134937619Y-84986762D01*
X134794762Y-85034381D01*
X134699524Y-85034381D01*
X136080477Y-85034381D02*
X135509048Y-85034381D01*
X135794762Y-85034381D02*
X135794762Y-84034381D01*
X135699524Y-84177238D01*
X135604286Y-84272476D01*
X135509048Y-84320095D01*
X136699524Y-84034381D02*
X136794763Y-84034381D01*
X136890001Y-84082000D01*
X136937620Y-84129619D01*
X136985239Y-84224857D01*
X137032858Y-84415333D01*
X137032858Y-84653429D01*
X136985239Y-84843905D01*
X136937620Y-84939143D01*
X136890001Y-84986762D01*
X136794763Y-85034381D01*
X136699524Y-85034381D01*
X136604286Y-84986762D01*
X136556667Y-84939143D01*
X136509048Y-84843905D01*
X136461429Y-84653429D01*
X136461429Y-84415333D01*
X136509048Y-84224857D01*
X136556667Y-84129619D01*
X136604286Y-84082000D01*
X136699524Y-84034381D01*
X81338095Y-87852381D02*
X81338095Y-86852381D01*
X81338095Y-87328571D02*
X81909524Y-87328571D01*
X81909524Y-87852381D02*
X81909524Y-86852381D01*
X82290476Y-86852381D02*
X82909524Y-86852381D01*
X82576190Y-87233333D01*
X82719048Y-87233333D01*
X82814286Y-87280952D01*
X82861905Y-87328571D01*
X82909524Y-87423810D01*
X82909524Y-87661905D01*
X82861905Y-87757143D01*
X82814286Y-87804762D01*
X82719048Y-87852381D01*
X82433333Y-87852381D01*
X82338095Y-87804762D01*
X82290476Y-87757143D01*
X139338095Y-87852381D02*
X139338095Y-86852381D01*
X139338095Y-87328571D02*
X139909524Y-87328571D01*
X139909524Y-87852381D02*
X139909524Y-86852381D01*
X140814286Y-87185714D02*
X140814286Y-87852381D01*
X140576190Y-86804762D02*
X140338095Y-87519048D01*
X140957143Y-87519048D01*
X100028477Y-68540381D02*
X100028477Y-69254667D01*
X99980857Y-69397524D01*
X99885619Y-69492762D01*
X99742762Y-69540381D01*
X99647524Y-69540381D01*
X100409429Y-68540381D02*
X101076096Y-68540381D01*
X100647524Y-69540381D01*
X101980858Y-69540381D02*
X101409429Y-69540381D01*
X101695143Y-69540381D02*
X101695143Y-68540381D01*
X101599905Y-68683238D01*
X101504667Y-68778476D01*
X101409429Y-68826095D01*
X102830381Y-77517523D02*
X103544667Y-77517523D01*
X103687524Y-77565143D01*
X103782762Y-77660381D01*
X103830381Y-77803238D01*
X103830381Y-77898476D01*
X102830381Y-77136571D02*
X102830381Y-76469904D01*
X103830381Y-76898476D01*
X102925619Y-76136571D02*
X102878000Y-76088952D01*
X102830381Y-75993714D01*
X102830381Y-75755618D01*
X102878000Y-75660380D01*
X102925619Y-75612761D01*
X103020857Y-75565142D01*
X103116095Y-75565142D01*
X103258952Y-75612761D01*
X103830381Y-76184190D01*
X103830381Y-75565142D01*
X121110477Y-74128381D02*
X121110477Y-74842667D01*
X121062857Y-74985524D01*
X120967619Y-75080762D01*
X120824762Y-75128381D01*
X120729524Y-75128381D01*
X121634286Y-75128381D02*
X121824762Y-75128381D01*
X121920001Y-75080762D01*
X121967620Y-75033143D01*
X122062858Y-74890286D01*
X122110477Y-74699810D01*
X122110477Y-74318857D01*
X122062858Y-74223619D01*
X122015239Y-74176000D01*
X121920001Y-74128381D01*
X121729524Y-74128381D01*
X121634286Y-74176000D01*
X121586667Y-74223619D01*
X121539048Y-74318857D01*
X121539048Y-74556952D01*
X121586667Y-74652190D01*
X121634286Y-74699810D01*
X121729524Y-74747429D01*
X121920001Y-74747429D01*
X122015239Y-74699810D01*
X122062858Y-74652190D01*
X122110477Y-74556952D01*
X123062858Y-75128381D02*
X122491429Y-75128381D01*
X122777143Y-75128381D02*
X122777143Y-74128381D01*
X122681905Y-74271238D01*
X122586667Y-74366476D01*
X122491429Y-74414095D01*
X106370381Y-68556095D02*
X105370381Y-68556095D01*
X105370381Y-68318000D01*
X105418000Y-68175142D01*
X105513238Y-68079904D01*
X105608476Y-68032285D01*
X105798952Y-67984666D01*
X105941810Y-67984666D01*
X106132286Y-68032285D01*
X106227524Y-68079904D01*
X106322762Y-68175142D01*
X106370381Y-68318000D01*
X106370381Y-68556095D01*
X106370381Y-67032285D02*
X106370381Y-67603714D01*
X106370381Y-67318000D02*
X105370381Y-67318000D01*
X105513238Y-67413238D01*
X105608476Y-67508476D01*
X105656095Y-67603714D01*
X104592381Y-67984666D02*
X104116190Y-68318000D01*
X104592381Y-68556095D02*
X103592381Y-68556095D01*
X103592381Y-68175142D01*
X103640000Y-68079904D01*
X103687619Y-68032285D01*
X103782857Y-67984666D01*
X103925714Y-67984666D01*
X104020952Y-68032285D01*
X104068571Y-68079904D01*
X104116190Y-68175142D01*
X104116190Y-68556095D01*
X104592381Y-67032285D02*
X104592381Y-67603714D01*
X104592381Y-67318000D02*
X103592381Y-67318000D01*
X103735238Y-67413238D01*
X103830476Y-67508476D01*
X103878095Y-67603714D01*
X88273095Y-78700381D02*
X88844524Y-78700381D01*
X88558809Y-79700381D02*
X88558809Y-78700381D01*
X89177857Y-79700381D02*
X89177857Y-78700381D01*
X89558810Y-78700381D01*
X89654048Y-78748000D01*
X89701667Y-78795619D01*
X89749286Y-78890857D01*
X89749286Y-79033714D01*
X89701667Y-79128952D01*
X89654048Y-79176571D01*
X89558810Y-79224190D01*
X89177857Y-79224190D01*
X90701667Y-79700381D02*
X90130238Y-79700381D01*
X90415952Y-79700381D02*
X90415952Y-78700381D01*
X90320714Y-78843238D01*
X90225476Y-78938476D01*
X90130238Y-78986095D01*
X123737905Y-84034381D02*
X124309334Y-84034381D01*
X124023619Y-85034381D02*
X124023619Y-84034381D01*
X124642667Y-85034381D02*
X124642667Y-84034381D01*
X125023620Y-84034381D01*
X125118858Y-84082000D01*
X125166477Y-84129619D01*
X125214096Y-84224857D01*
X125214096Y-84367714D01*
X125166477Y-84462952D01*
X125118858Y-84510571D01*
X125023620Y-84558190D01*
X124642667Y-84558190D01*
X126166477Y-85034381D02*
X125595048Y-85034381D01*
X125880762Y-85034381D02*
X125880762Y-84034381D01*
X125785524Y-84177238D01*
X125690286Y-84272476D01*
X125595048Y-84320095D01*
X127118858Y-85034381D02*
X126547429Y-85034381D01*
X126833143Y-85034381D02*
X126833143Y-84034381D01*
X126737905Y-84177238D01*
X126642667Y-84272476D01*
X126547429Y-84320095D01*
X129833905Y-89114381D02*
X130405334Y-89114381D01*
X130119619Y-90114381D02*
X130119619Y-89114381D01*
X130738667Y-90114381D02*
X130738667Y-89114381D01*
X131119620Y-89114381D01*
X131214858Y-89162000D01*
X131262477Y-89209619D01*
X131310096Y-89304857D01*
X131310096Y-89447714D01*
X131262477Y-89542952D01*
X131214858Y-89590571D01*
X131119620Y-89638190D01*
X130738667Y-89638190D01*
X132262477Y-90114381D02*
X131691048Y-90114381D01*
X131976762Y-90114381D02*
X131976762Y-89114381D01*
X131881524Y-89257238D01*
X131786286Y-89352476D01*
X131691048Y-89400095D01*
X132643429Y-89209619D02*
X132691048Y-89162000D01*
X132786286Y-89114381D01*
X133024382Y-89114381D01*
X133119620Y-89162000D01*
X133167239Y-89209619D01*
X133214858Y-89304857D01*
X133214858Y-89400095D01*
X133167239Y-89542952D01*
X132595810Y-90114381D01*
X133214858Y-90114381D01*
X128055905Y-68794381D02*
X128627334Y-68794381D01*
X128341619Y-69794381D02*
X128341619Y-68794381D01*
X128960667Y-69794381D02*
X128960667Y-68794381D01*
X129341620Y-68794381D01*
X129436858Y-68842000D01*
X129484477Y-68889619D01*
X129532096Y-68984857D01*
X129532096Y-69127714D01*
X129484477Y-69222952D01*
X129436858Y-69270571D01*
X129341620Y-69318190D01*
X128960667Y-69318190D01*
X129865429Y-68794381D02*
X130484477Y-68794381D01*
X130151143Y-69175333D01*
X130294001Y-69175333D01*
X130389239Y-69222952D01*
X130436858Y-69270571D01*
X130484477Y-69365810D01*
X130484477Y-69603905D01*
X130436858Y-69699143D01*
X130389239Y-69746762D01*
X130294001Y-69794381D01*
X130008286Y-69794381D01*
X129913048Y-69746762D01*
X129865429Y-69699143D01*
X131436858Y-69794381D02*
X130865429Y-69794381D01*
X131151143Y-69794381D02*
X131151143Y-68794381D01*
X131055905Y-68937238D01*
X130960667Y-69032476D01*
X130865429Y-69080095D01*
X79930667Y-82510381D02*
X79930667Y-83224667D01*
X79883047Y-83367524D01*
X79787809Y-83462762D01*
X79644952Y-83510381D01*
X79549714Y-83510381D01*
X80359238Y-82605619D02*
X80406857Y-82558000D01*
X80502095Y-82510381D01*
X80740191Y-82510381D01*
X80835429Y-82558000D01*
X80883048Y-82605619D01*
X80930667Y-82700857D01*
X80930667Y-82796095D01*
X80883048Y-82938952D01*
X80311619Y-83510381D01*
X80930667Y-83510381D01*
X84288381Y-67643333D02*
X85002667Y-67643333D01*
X85145524Y-67690953D01*
X85240762Y-67786191D01*
X85288381Y-67929048D01*
X85288381Y-68024286D01*
X85288381Y-66643333D02*
X85288381Y-67214762D01*
X85288381Y-66929048D02*
X84288381Y-66929048D01*
X84431238Y-67024286D01*
X84526476Y-67119524D01*
X84574095Y-67214762D01*
X92035334Y-73096381D02*
X91702000Y-72620190D01*
X91463905Y-73096381D02*
X91463905Y-72096381D01*
X91844858Y-72096381D01*
X91940096Y-72144000D01*
X91987715Y-72191619D01*
X92035334Y-72286857D01*
X92035334Y-72429714D01*
X91987715Y-72524952D01*
X91940096Y-72572571D01*
X91844858Y-72620190D01*
X91463905Y-72620190D01*
X92416286Y-72191619D02*
X92463905Y-72144000D01*
X92559143Y-72096381D01*
X92797239Y-72096381D01*
X92892477Y-72144000D01*
X92940096Y-72191619D01*
X92987715Y-72286857D01*
X92987715Y-72382095D01*
X92940096Y-72524952D01*
X92368667Y-73096381D01*
X92987715Y-73096381D01*
X121110477Y-84034381D02*
X121110477Y-84748667D01*
X121062857Y-84891524D01*
X120967619Y-84986762D01*
X120824762Y-85034381D01*
X120729524Y-85034381D01*
X121634286Y-85034381D02*
X121824762Y-85034381D01*
X121920001Y-84986762D01*
X121967620Y-84939143D01*
X122062858Y-84796286D01*
X122110477Y-84605810D01*
X122110477Y-84224857D01*
X122062858Y-84129619D01*
X122015239Y-84082000D01*
X121920001Y-84034381D01*
X121729524Y-84034381D01*
X121634286Y-84082000D01*
X121586667Y-84129619D01*
X121539048Y-84224857D01*
X121539048Y-84462952D01*
X121586667Y-84558190D01*
X121634286Y-84605810D01*
X121729524Y-84653429D01*
X121920001Y-84653429D01*
X122015239Y-84605810D01*
X122062858Y-84558190D01*
X122110477Y-84462952D01*
X122491429Y-84129619D02*
X122539048Y-84082000D01*
X122634286Y-84034381D01*
X122872382Y-84034381D01*
X122967620Y-84082000D01*
X123015239Y-84129619D01*
X123062858Y-84224857D01*
X123062858Y-84320095D01*
X123015239Y-84462952D01*
X122443810Y-85034381D01*
X123062858Y-85034381D01*
X126339715Y-81638857D02*
X127025429Y-81638857D01*
X126682572Y-82838857D02*
X126682572Y-81638857D01*
X128054001Y-82838857D02*
X127368286Y-82838857D01*
X127711144Y-82838857D02*
X127711144Y-81638857D01*
X127596858Y-81810286D01*
X127482572Y-81924571D01*
X127368286Y-81981714D01*
D18*
X98477429Y-70607143D02*
X98477429Y-70264286D01*
X99077429Y-70435715D02*
X98477429Y-70435715D01*
X99077429Y-70064286D02*
X98477429Y-70064286D01*
X98477429Y-69835714D01*
X98506000Y-69778572D01*
X98534571Y-69750000D01*
X98591714Y-69721429D01*
X98677429Y-69721429D01*
X98734571Y-69750000D01*
X98763143Y-69778572D01*
X98791714Y-69835714D01*
X98791714Y-70064286D01*
X98477429Y-69350000D02*
X98477429Y-69292857D01*
X98506000Y-69235714D01*
X98534571Y-69207143D01*
X98591714Y-69178572D01*
X98706000Y-69150000D01*
X98848857Y-69150000D01*
X98963143Y-69178572D01*
X99020286Y-69207143D01*
X99048857Y-69235714D01*
X99077429Y-69292857D01*
X99077429Y-69350000D01*
X99048857Y-69407143D01*
X99020286Y-69435714D01*
X98963143Y-69464286D01*
X98848857Y-69492857D01*
X98706000Y-69492857D01*
X98591714Y-69464286D01*
X98534571Y-69435714D01*
X98506000Y-69407143D01*
X98477429Y-69350000D01*
D12*
X128222477Y-72096381D02*
X128222477Y-72810667D01*
X128174857Y-72953524D01*
X128079619Y-73048762D01*
X127936762Y-73096381D01*
X127841524Y-73096381D01*
X129127239Y-72429714D02*
X129127239Y-73096381D01*
X128889143Y-72048762D02*
X128651048Y-72763048D01*
X129270096Y-72763048D01*
X130174858Y-73096381D02*
X129603429Y-73096381D01*
X129889143Y-73096381D02*
X129889143Y-72096381D01*
X129793905Y-72239238D01*
X129698667Y-72334476D01*
X129603429Y-72382095D01*
X128476477Y-85304381D02*
X128476477Y-86018667D01*
X128428857Y-86161524D01*
X128333619Y-86256762D01*
X128190762Y-86304381D01*
X128095524Y-86304381D01*
X129381239Y-85637714D02*
X129381239Y-86304381D01*
X129143143Y-85256762D02*
X128905048Y-85971048D01*
X129524096Y-85971048D01*
X129809810Y-85304381D02*
X130428858Y-85304381D01*
X130095524Y-85685333D01*
X130238382Y-85685333D01*
X130333620Y-85732952D01*
X130381239Y-85780571D01*
X130428858Y-85875810D01*
X130428858Y-86113905D01*
X130381239Y-86209143D01*
X130333620Y-86256762D01*
X130238382Y-86304381D01*
X129952667Y-86304381D01*
X129857429Y-86256762D01*
X129809810Y-86209143D01*
X131397477Y-85304381D02*
X131397477Y-86018667D01*
X131349857Y-86161524D01*
X131254619Y-86256762D01*
X131111762Y-86304381D01*
X131016524Y-86304381D01*
X132302239Y-85637714D02*
X132302239Y-86304381D01*
X132064143Y-85256762D02*
X131826048Y-85971048D01*
X132445096Y-85971048D01*
X133254620Y-85637714D02*
X133254620Y-86304381D01*
X133016524Y-85256762D02*
X132778429Y-85971048D01*
X133397477Y-85971048D01*
X105529143Y-74525143D02*
X105481524Y-74572762D01*
X105338667Y-74620381D01*
X105243429Y-74620381D01*
X105100571Y-74572762D01*
X105005333Y-74477524D01*
X104957714Y-74382286D01*
X104910095Y-74191810D01*
X104910095Y-74048952D01*
X104957714Y-73858476D01*
X105005333Y-73763238D01*
X105100571Y-73668000D01*
X105243429Y-73620381D01*
X105338667Y-73620381D01*
X105481524Y-73668000D01*
X105529143Y-73715619D01*
X106481524Y-74620381D02*
X105910095Y-74620381D01*
X106195809Y-74620381D02*
X106195809Y-73620381D01*
X106100571Y-73763238D01*
X106005333Y-73858476D01*
X105910095Y-73906095D01*
X107100571Y-73620381D02*
X107195810Y-73620381D01*
X107291048Y-73668000D01*
X107338667Y-73715619D01*
X107386286Y-73810857D01*
X107433905Y-74001333D01*
X107433905Y-74239429D01*
X107386286Y-74429905D01*
X107338667Y-74525143D01*
X107291048Y-74572762D01*
X107195810Y-74620381D01*
X107100571Y-74620381D01*
X107005333Y-74572762D01*
X106957714Y-74525143D01*
X106910095Y-74429905D01*
X106862476Y-74239429D01*
X106862476Y-74001333D01*
X106910095Y-73810857D01*
X106957714Y-73715619D01*
X107005333Y-73668000D01*
X107100571Y-73620381D01*
X112895143Y-71985143D02*
X112847524Y-72032762D01*
X112704667Y-72080381D01*
X112609429Y-72080381D01*
X112466571Y-72032762D01*
X112371333Y-71937524D01*
X112323714Y-71842286D01*
X112276095Y-71651810D01*
X112276095Y-71508952D01*
X112323714Y-71318476D01*
X112371333Y-71223238D01*
X112466571Y-71128000D01*
X112609429Y-71080381D01*
X112704667Y-71080381D01*
X112847524Y-71128000D01*
X112895143Y-71175619D01*
X113847524Y-72080381D02*
X113276095Y-72080381D01*
X113561809Y-72080381D02*
X113561809Y-71080381D01*
X113466571Y-71223238D01*
X113371333Y-71318476D01*
X113276095Y-71366095D01*
X114799905Y-72080381D02*
X114228476Y-72080381D01*
X114514190Y-72080381D02*
X114514190Y-71080381D01*
X114418952Y-71223238D01*
X114323714Y-71318476D01*
X114228476Y-71366095D01*
X127357143Y-72270857D02*
X127404762Y-72318476D01*
X127452381Y-72461333D01*
X127452381Y-72556571D01*
X127404762Y-72699429D01*
X127309524Y-72794667D01*
X127214286Y-72842286D01*
X127023810Y-72889905D01*
X126880952Y-72889905D01*
X126690476Y-72842286D01*
X126595238Y-72794667D01*
X126500000Y-72699429D01*
X126452381Y-72556571D01*
X126452381Y-72461333D01*
X126500000Y-72318476D01*
X126547619Y-72270857D01*
X127452381Y-71318476D02*
X127452381Y-71889905D01*
X127452381Y-71604191D02*
X126452381Y-71604191D01*
X126595238Y-71699429D01*
X126690476Y-71794667D01*
X126738095Y-71889905D01*
X126547619Y-70937524D02*
X126500000Y-70889905D01*
X126452381Y-70794667D01*
X126452381Y-70556571D01*
X126500000Y-70461333D01*
X126547619Y-70413714D01*
X126642857Y-70366095D01*
X126738095Y-70366095D01*
X126880952Y-70413714D01*
X127452381Y-70985143D01*
X127452381Y-70366095D01*
X112291905Y-70302381D02*
X112291905Y-69302381D01*
X112530000Y-69302381D01*
X112672858Y-69350000D01*
X112768096Y-69445238D01*
X112815715Y-69540476D01*
X112863334Y-69730952D01*
X112863334Y-69873810D01*
X112815715Y-70064286D01*
X112768096Y-70159524D01*
X112672858Y-70254762D01*
X112530000Y-70302381D01*
X112291905Y-70302381D01*
X113244286Y-69397619D02*
X113291905Y-69350000D01*
X113387143Y-69302381D01*
X113625239Y-69302381D01*
X113720477Y-69350000D01*
X113768096Y-69397619D01*
X113815715Y-69492857D01*
X113815715Y-69588095D01*
X113768096Y-69730952D01*
X113196667Y-70302381D01*
X113815715Y-70302381D01*
X112260095Y-69032381D02*
X112260095Y-68032381D01*
X112831524Y-69032381D02*
X112402952Y-68460952D01*
X112831524Y-68032381D02*
X112260095Y-68603810D01*
D18*
X97426429Y-71601000D02*
X97140714Y-71801000D01*
X97426429Y-71943857D02*
X96826429Y-71943857D01*
X96826429Y-71715285D01*
X96855000Y-71658143D01*
X96883571Y-71629571D01*
X96940714Y-71601000D01*
X97026429Y-71601000D01*
X97083571Y-71629571D01*
X97112143Y-71658143D01*
X97140714Y-71715285D01*
X97140714Y-71943857D01*
X97026429Y-71086714D02*
X97426429Y-71086714D01*
X96797857Y-71229571D02*
X97226429Y-71372428D01*
X97226429Y-71001000D01*
D12*
X89338095Y-86182190D02*
X89300000Y-86258381D01*
X89223810Y-86334571D01*
X89109524Y-86448857D01*
X89071429Y-86525048D01*
X89071429Y-86601238D01*
X89261905Y-86563143D02*
X89223810Y-86639333D01*
X89147619Y-86715524D01*
X88995238Y-86753619D01*
X88728571Y-86753619D01*
X88576190Y-86715524D01*
X88500000Y-86639333D01*
X88461905Y-86563143D01*
X88461905Y-86410762D01*
X88500000Y-86334571D01*
X88576190Y-86258381D01*
X88728571Y-86220286D01*
X88995238Y-86220286D01*
X89147619Y-86258381D01*
X89223810Y-86334571D01*
X89261905Y-86410762D01*
X89261905Y-86563143D01*
X89261905Y-85458381D02*
X89261905Y-85915524D01*
X89261905Y-85686953D02*
X88461905Y-85686953D01*
X88576190Y-85763143D01*
X88652381Y-85839334D01*
X88690476Y-85915524D01*
X124547334Y-76811143D02*
X124499715Y-76858762D01*
X124356858Y-76906381D01*
X124261620Y-76906381D01*
X124118762Y-76858762D01*
X124023524Y-76763524D01*
X123975905Y-76668286D01*
X123928286Y-76477810D01*
X123928286Y-76334952D01*
X123975905Y-76144476D01*
X124023524Y-76049238D01*
X124118762Y-75954000D01*
X124261620Y-75906381D01*
X124356858Y-75906381D01*
X124499715Y-75954000D01*
X124547334Y-76001619D01*
X124928286Y-76001619D02*
X124975905Y-75954000D01*
X125071143Y-75906381D01*
X125309239Y-75906381D01*
X125404477Y-75954000D01*
X125452096Y-76001619D01*
X125499715Y-76096857D01*
X125499715Y-76192095D01*
X125452096Y-76334952D01*
X124880667Y-76906381D01*
X125499715Y-76906381D01*
X89241334Y-77446143D02*
X89193715Y-77493762D01*
X89050858Y-77541381D01*
X88955620Y-77541381D01*
X88812762Y-77493762D01*
X88717524Y-77398524D01*
X88669905Y-77303286D01*
X88622286Y-77112810D01*
X88622286Y-76969952D01*
X88669905Y-76779476D01*
X88717524Y-76684238D01*
X88812762Y-76589000D01*
X88955620Y-76541381D01*
X89050858Y-76541381D01*
X89193715Y-76589000D01*
X89241334Y-76636619D01*
X90193715Y-77541381D02*
X89622286Y-77541381D01*
X89908000Y-77541381D02*
X89908000Y-76541381D01*
X89812762Y-76684238D01*
X89717524Y-76779476D01*
X89622286Y-76827095D01*
X83994667Y-89114381D02*
X83994667Y-89828667D01*
X83947047Y-89971524D01*
X83851809Y-90066762D01*
X83708952Y-90114381D01*
X83613714Y-90114381D01*
X84899429Y-89447714D02*
X84899429Y-90114381D01*
X84661333Y-89066762D02*
X84423238Y-89781048D01*
X85042286Y-89781048D01*
D18*
X92610000Y-69302286D02*
X92581429Y-69330857D01*
X92495715Y-69359429D01*
X92438572Y-69359429D01*
X92352857Y-69330857D01*
X92295715Y-69273714D01*
X92267143Y-69216571D01*
X92238572Y-69102286D01*
X92238572Y-69016571D01*
X92267143Y-68902286D01*
X92295715Y-68845143D01*
X92352857Y-68788000D01*
X92438572Y-68759429D01*
X92495715Y-68759429D01*
X92581429Y-68788000D01*
X92610000Y-68816571D01*
X92810000Y-68759429D02*
X93181429Y-68759429D01*
X92981429Y-68988000D01*
X93067143Y-68988000D01*
X93124286Y-69016571D01*
X93152857Y-69045143D01*
X93181429Y-69102286D01*
X93181429Y-69245143D01*
X93152857Y-69302286D01*
X93124286Y-69330857D01*
X93067143Y-69359429D01*
X92895715Y-69359429D01*
X92838572Y-69330857D01*
X92810000Y-69302286D01*
D12*
X98496381Y-74763238D02*
X98020190Y-75096572D01*
X98496381Y-75334667D02*
X97496381Y-75334667D01*
X97496381Y-74953714D01*
X97544000Y-74858476D01*
X97591619Y-74810857D01*
X97686857Y-74763238D01*
X97829714Y-74763238D01*
X97924952Y-74810857D01*
X97972571Y-74858476D01*
X98020190Y-74953714D01*
X98020190Y-75334667D01*
X97496381Y-74477524D02*
X98496381Y-74144191D01*
X97496381Y-73810857D01*
X98496381Y-72953714D02*
X98496381Y-73525143D01*
X98496381Y-73239429D02*
X97496381Y-73239429D01*
X97639238Y-73334667D01*
X97734476Y-73429905D01*
X97782095Y-73525143D01*
X84203000Y-81547857D02*
X84167286Y-81583571D01*
X84060143Y-81619286D01*
X83988714Y-81619286D01*
X83881571Y-81583571D01*
X83810143Y-81512143D01*
X83774428Y-81440714D01*
X83738714Y-81297857D01*
X83738714Y-81190714D01*
X83774428Y-81047857D01*
X83810143Y-80976429D01*
X83881571Y-80905000D01*
X83988714Y-80869286D01*
X84060143Y-80869286D01*
X84167286Y-80905000D01*
X84203000Y-80940714D01*
X84881571Y-80869286D02*
X84524428Y-80869286D01*
X84488714Y-81226429D01*
X84524428Y-81190714D01*
X84595857Y-81155000D01*
X84774428Y-81155000D01*
X84845857Y-81190714D01*
X84881571Y-81226429D01*
X84917286Y-81297857D01*
X84917286Y-81476429D01*
X84881571Y-81547857D01*
X84845857Y-81583571D01*
X84774428Y-81619286D01*
X84595857Y-81619286D01*
X84524428Y-81583571D01*
X84488714Y-81547857D01*
D18*
X84980429Y-75442715D02*
X84694714Y-75642715D01*
X84980429Y-75785572D02*
X84380429Y-75785572D01*
X84380429Y-75557000D01*
X84409000Y-75499858D01*
X84437571Y-75471286D01*
X84494714Y-75442715D01*
X84580429Y-75442715D01*
X84637571Y-75471286D01*
X84666143Y-75499858D01*
X84694714Y-75557000D01*
X84694714Y-75785572D01*
X84380429Y-74899858D02*
X84380429Y-75185572D01*
X84666143Y-75214143D01*
X84637571Y-75185572D01*
X84609000Y-75128429D01*
X84609000Y-74985572D01*
X84637571Y-74928429D01*
X84666143Y-74899858D01*
X84723286Y-74871286D01*
X84866143Y-74871286D01*
X84923286Y-74899858D01*
X84951857Y-74928429D01*
X84980429Y-74985572D01*
X84980429Y-75128429D01*
X84951857Y-75185572D01*
X84923286Y-75214143D01*
X84380429Y-74328429D02*
X84380429Y-74614143D01*
X84666143Y-74642714D01*
X84637571Y-74614143D01*
X84609000Y-74557000D01*
X84609000Y-74414143D01*
X84637571Y-74357000D01*
X84666143Y-74328429D01*
X84723286Y-74299857D01*
X84866143Y-74299857D01*
X84923286Y-74328429D01*
X84951857Y-74357000D01*
X84980429Y-74414143D01*
X84980429Y-74557000D01*
X84951857Y-74614143D01*
X84923286Y-74642714D01*
X90197000Y-68089429D02*
X89997000Y-67803714D01*
X89854143Y-68089429D02*
X89854143Y-67489429D01*
X90082715Y-67489429D01*
X90139857Y-67518000D01*
X90168429Y-67546571D01*
X90197000Y-67603714D01*
X90197000Y-67689429D01*
X90168429Y-67746571D01*
X90139857Y-67775143D01*
X90082715Y-67803714D01*
X89854143Y-67803714D01*
X90397000Y-67489429D02*
X90768429Y-67489429D01*
X90568429Y-67718000D01*
X90654143Y-67718000D01*
X90711286Y-67746571D01*
X90739857Y-67775143D01*
X90768429Y-67832286D01*
X90768429Y-67975143D01*
X90739857Y-68032286D01*
X90711286Y-68060857D01*
X90654143Y-68089429D01*
X90482715Y-68089429D01*
X90425572Y-68060857D01*
X90397000Y-68032286D01*
X99468000Y-68343429D02*
X99268000Y-68057714D01*
X99125143Y-68343429D02*
X99125143Y-67743429D01*
X99353715Y-67743429D01*
X99410857Y-67772000D01*
X99439429Y-67800571D01*
X99468000Y-67857714D01*
X99468000Y-67943429D01*
X99439429Y-68000571D01*
X99410857Y-68029143D01*
X99353715Y-68057714D01*
X99125143Y-68057714D01*
X99982286Y-67743429D02*
X99868000Y-67743429D01*
X99810857Y-67772000D01*
X99782286Y-67800571D01*
X99725143Y-67886286D01*
X99696572Y-68000571D01*
X99696572Y-68229143D01*
X99725143Y-68286286D01*
X99753715Y-68314857D01*
X99810857Y-68343429D01*
X99925143Y-68343429D01*
X99982286Y-68314857D01*
X100010857Y-68286286D01*
X100039429Y-68229143D01*
X100039429Y-68086286D01*
X100010857Y-68029143D01*
X99982286Y-68000571D01*
X99925143Y-67972000D01*
X99810857Y-67972000D01*
X99753715Y-68000571D01*
X99725143Y-68029143D01*
X99696572Y-68086286D01*
D12*
X95474286Y-85800285D02*
X95474286Y-85371714D01*
X96224286Y-85586000D02*
X95474286Y-85586000D01*
X96224286Y-85121714D02*
X95474286Y-85121714D01*
X95831429Y-85121714D02*
X95831429Y-84693142D01*
X96224286Y-84693142D02*
X95474286Y-84693142D01*
X96224286Y-83943142D02*
X96224286Y-84371714D01*
X96224286Y-84157428D02*
X95474286Y-84157428D01*
X95581429Y-84228857D01*
X95652857Y-84300285D01*
X95688571Y-84371714D01*
M02*
