G04 #@! TF.FileFunction,Paste,Top*
%FSLAX46Y46*%
G04 Gerber Fmt 4.6, Leading zero omitted, Abs format (unit mm)*
G04 Created by KiCad (PCBNEW 4.0.6) date Sunday, December 16, 2018 'PMt' 05:25:45 PM*
%MOMM*%
%LPD*%
G01*
G04 APERTURE LIST*
%ADD10C,0.100000*%
%ADD11R,0.797560X0.797560*%
%ADD12R,0.900000X0.500000*%
%ADD13R,1.400000X0.760000*%
%ADD14R,0.750000X0.800000*%
%ADD15R,0.500000X0.900000*%
%ADD16R,3.860000X4.499740*%
%ADD17R,1.000760X1.501140*%
%ADD18R,1.500000X1.250000*%
%ADD19R,1.700000X2.000000*%
%ADD20R,1.200000X0.900000*%
%ADD21R,0.900000X1.200000*%
G04 APERTURE END LIST*
D10*
D11*
X105918000Y-70853300D03*
X105918000Y-69354700D03*
D12*
X103886000Y-70854000D03*
X103886000Y-69354000D03*
X91948000Y-75426000D03*
X91948000Y-73926000D03*
D13*
X128286000Y-77895000D03*
X131711000Y-77895000D03*
X131711000Y-79165000D03*
X128286000Y-80435000D03*
X131711000Y-80435000D03*
D14*
X106172000Y-75450000D03*
X106172000Y-76950000D03*
X115570000Y-71108000D03*
X115570000Y-69608000D03*
X127000000Y-75426000D03*
X127000000Y-73926000D03*
D15*
X94754000Y-71628000D03*
X96254000Y-71628000D03*
D16*
X91440000Y-85415820D03*
D17*
X92941140Y-81714340D03*
X91440000Y-81714340D03*
X89938860Y-81714340D03*
D10*
G36*
X90439240Y-83191350D02*
X90939620Y-82442050D01*
X91940380Y-82442050D01*
X92440760Y-83191350D01*
X90439240Y-83191350D01*
X90439240Y-83191350D01*
G37*
D14*
X125222000Y-79490000D03*
X125222000Y-77990000D03*
X89916000Y-74053000D03*
X89916000Y-75553000D03*
X92710000Y-70116000D03*
X92710000Y-71616000D03*
D18*
X83078000Y-82804000D03*
X85578000Y-82804000D03*
D19*
X84455000Y-73057000D03*
X84455000Y-77057000D03*
D20*
X91864000Y-68072000D03*
X94064000Y-68072000D03*
X98128000Y-68072000D03*
X95928000Y-68072000D03*
D21*
X94615000Y-84625000D03*
X94615000Y-86825000D03*
M02*
