G04 #@! TF.FileFunction,Copper,L1,Top,Signal*
%FSLAX46Y46*%
G04 Gerber Fmt 4.6, Leading zero omitted, Abs format (unit mm)*
G04 Created by KiCad (PCBNEW 4.0.6) date Sunday, December 16, 2018 'PMt' 05:25:45 PM*
%MOMM*%
%LPD*%
G01*
G04 APERTURE LIST*
%ADD10C,0.100000*%
%ADD11R,1.700000X1.700000*%
%ADD12C,1.600000*%
%ADD13O,1.600000X1.600000*%
%ADD14C,3.000000*%
%ADD15C,2.000000*%
%ADD16O,2.000000X2.000000*%
%ADD17C,2.500000*%
%ADD18R,2.500000X2.500000*%
%ADD19R,0.797560X0.797560*%
%ADD20R,0.900000X0.500000*%
%ADD21R,1.000000X1.000000*%
%ADD22O,1.700000X1.700000*%
%ADD23C,1.000000*%
%ADD24R,1.400000X0.760000*%
%ADD25R,0.750000X0.800000*%
%ADD26R,2.000000X2.000000*%
%ADD27R,0.500000X0.900000*%
%ADD28R,3.860000X4.499740*%
%ADD29C,0.837000*%
%ADD30R,1.000760X1.501140*%
%ADD31R,2.032000X2.032000*%
%ADD32O,2.032000X2.032000*%
%ADD33R,1.200000X1.200000*%
%ADD34R,1.600000X1.500000*%
%ADD35R,1.500000X1.250000*%
%ADD36R,1.700000X2.000000*%
%ADD37R,1.200000X0.900000*%
%ADD38R,0.900000X1.200000*%
%ADD39C,0.600000*%
%ADD40C,0.600000*%
%ADD41C,0.500000*%
%ADD42C,0.400000*%
%ADD43C,0.254000*%
G04 APERTURE END LIST*
D10*
D11*
X132334000Y-74930000D03*
D12*
X95772000Y-80816000D03*
D13*
X105932000Y-80816000D03*
D14*
X82040000Y-64310000D03*
X140040000Y-64330000D03*
D12*
X97296000Y-85388000D03*
X102296000Y-85388000D03*
X109996000Y-85388000D03*
X104996000Y-85388000D03*
X117616000Y-85388000D03*
X112616000Y-85388000D03*
D11*
X100965000Y-73787000D03*
X122047000Y-79883000D03*
D15*
X110490000Y-75438000D03*
D16*
X115570000Y-75438000D03*
D15*
X119634000Y-71120000D03*
D16*
X124714000Y-71120000D03*
D12*
X108472000Y-80816000D03*
D13*
X118632000Y-80816000D03*
D15*
X87376000Y-79121000D03*
D16*
X87376000Y-74041000D03*
D17*
X139206000Y-80910000D03*
D18*
X139206000Y-70910000D03*
D17*
X139206000Y-75910000D03*
D14*
X82040000Y-87310000D03*
X140040000Y-87310000D03*
D11*
X100965000Y-71247000D03*
X100965000Y-76327000D03*
X122047000Y-77089000D03*
D19*
X105918000Y-70853300D03*
X105918000Y-69354700D03*
D20*
X103886000Y-70854000D03*
X103886000Y-69354000D03*
D21*
X91948000Y-78232000D03*
X125222000Y-82296000D03*
X131318000Y-87884000D03*
X129794000Y-70866000D03*
D11*
X80650000Y-79620000D03*
D22*
X80650000Y-77080000D03*
X80650000Y-74540000D03*
X80650000Y-72000000D03*
D11*
X86916356Y-65587611D03*
D22*
X86916356Y-63047611D03*
X89456356Y-65587611D03*
X89456356Y-63047611D03*
X91996356Y-65587611D03*
X91996356Y-63047611D03*
X94536356Y-65587611D03*
X94536356Y-63047611D03*
X97076356Y-65587611D03*
X97076356Y-63047611D03*
X99616356Y-65587611D03*
X99616356Y-63047611D03*
X102156356Y-65587611D03*
X102156356Y-63047611D03*
D20*
X91948000Y-75426000D03*
X91948000Y-73926000D03*
D11*
X122047000Y-82423000D03*
X104696356Y-65587611D03*
D22*
X104696356Y-63047611D03*
X107236356Y-65587611D03*
X107236356Y-63047611D03*
X109776356Y-65587611D03*
X109776356Y-63047611D03*
X112316356Y-65587611D03*
X112316356Y-63047611D03*
X114856356Y-65587611D03*
X114856356Y-63047611D03*
X117396356Y-65587611D03*
X117396356Y-63047611D03*
X119936356Y-65587611D03*
X119936356Y-63047611D03*
X122476356Y-65587611D03*
X122476356Y-63047611D03*
X125016356Y-65587611D03*
X125016356Y-63047611D03*
X127556356Y-65587611D03*
X127556356Y-63047611D03*
X130096356Y-65587611D03*
X130096356Y-63047611D03*
X132636356Y-65587611D03*
X132636356Y-63047611D03*
X135176356Y-65587611D03*
X135176356Y-63047611D03*
D23*
X135269000Y-88055000D03*
X80500000Y-68500000D03*
D24*
X128286000Y-77895000D03*
X131711000Y-77895000D03*
X131711000Y-79165000D03*
X128286000Y-80435000D03*
X131711000Y-80435000D03*
D21*
X96774000Y-69850000D03*
D11*
X129794000Y-74930000D03*
X129794000Y-83566000D03*
X132207000Y-83566000D03*
D25*
X106172000Y-75450000D03*
X106172000Y-76950000D03*
X115570000Y-71108000D03*
X115570000Y-69608000D03*
X127000000Y-75426000D03*
X127000000Y-73926000D03*
D26*
X110744000Y-69850000D03*
D15*
X108204000Y-69850000D03*
D27*
X94754000Y-71628000D03*
X96254000Y-71628000D03*
D28*
X91440000Y-85415820D03*
D29*
X90170000Y-87249000D03*
X90805000Y-86868000D03*
X91440000Y-87249000D03*
X92075000Y-86868000D03*
X92710000Y-87249000D03*
X90170000Y-86487000D03*
X91440000Y-86487000D03*
X92710000Y-86487000D03*
X90805000Y-86106000D03*
X92075000Y-86106000D03*
X90170000Y-85725000D03*
X90805000Y-85344000D03*
X91440000Y-85725000D03*
X92075000Y-85344000D03*
X92710000Y-85725000D03*
X90170000Y-84963000D03*
X92710000Y-84963000D03*
X90805000Y-84582000D03*
X92075000Y-84582000D03*
X91440000Y-84963000D03*
X91440000Y-84201000D03*
X90805000Y-83820000D03*
X92075000Y-83820000D03*
X90170000Y-84201000D03*
X92710000Y-84201000D03*
D30*
X92941140Y-81714340D03*
X91440000Y-81714340D03*
X89938860Y-81714340D03*
D10*
G36*
X90439240Y-83191350D02*
X90939620Y-82442050D01*
X91940380Y-82442050D01*
X92440760Y-83191350D01*
X90439240Y-83191350D01*
X90439240Y-83191350D01*
G37*
D29*
X91440000Y-83439000D03*
D25*
X125222000Y-79490000D03*
X125222000Y-77990000D03*
X89916000Y-74053000D03*
X89916000Y-75553000D03*
D31*
X86868000Y-88392000D03*
D32*
X86868000Y-85852000D03*
D25*
X92710000Y-70116000D03*
X92710000Y-71616000D03*
D33*
X97266000Y-76984000D03*
D34*
X96266000Y-73734000D03*
D33*
X95266000Y-76984000D03*
D35*
X83078000Y-82804000D03*
X85578000Y-82804000D03*
D36*
X84455000Y-73057000D03*
X84455000Y-77057000D03*
D37*
X91864000Y-68072000D03*
X94064000Y-68072000D03*
X98128000Y-68072000D03*
X95928000Y-68072000D03*
D38*
X94615000Y-84625000D03*
X94615000Y-86825000D03*
D39*
X125730000Y-86360000D03*
X123190000Y-86360000D03*
X124460000Y-86360000D03*
X121666000Y-86360000D03*
X120396000Y-86360000D03*
X104648000Y-78232000D03*
X104648000Y-76962000D03*
X103378000Y-76962000D03*
X103378000Y-78232000D03*
X131572000Y-68326000D03*
X130302000Y-68326000D03*
X129032000Y-68326000D03*
X127762000Y-68326000D03*
X104648000Y-75692000D03*
X103378000Y-75692000D03*
X133096000Y-71120000D03*
X133096000Y-70104000D03*
X133096000Y-69088000D03*
X88773000Y-80899000D03*
X95885000Y-87122000D03*
X90424000Y-67818000D03*
X88773000Y-82423000D03*
X88773000Y-81661000D03*
X89916000Y-77978000D03*
X89916000Y-76962000D03*
X83439000Y-84201000D03*
X81661000Y-82804000D03*
X83058000Y-81534000D03*
X87757000Y-69469000D03*
X94742000Y-83439000D03*
X92075000Y-68961000D03*
X87630000Y-70866000D03*
X93726000Y-68961000D03*
D40*
X89938860Y-81714340D02*
X89123520Y-80899000D01*
X89123520Y-80899000D02*
X88773000Y-80899000D01*
X94615000Y-86825000D02*
X94912000Y-87122000D01*
X94912000Y-87122000D02*
X95885000Y-87122000D01*
D41*
X88773000Y-82423000D02*
X89357200Y-82296000D01*
X89357200Y-82296000D02*
X89938860Y-81714340D01*
X88773000Y-81661000D02*
X89758520Y-81534000D01*
D40*
X89916000Y-75553000D02*
X89916000Y-76962000D01*
X89916000Y-76962000D02*
X89916000Y-77978000D01*
D41*
X89758520Y-81534000D02*
X89938860Y-81714340D01*
D40*
X83078000Y-83840000D02*
X83439000Y-84201000D01*
X83078000Y-82804000D02*
X83078000Y-83840000D01*
X83078000Y-82804000D02*
X81661000Y-82804000D01*
X83058000Y-82784000D02*
X83058000Y-81534000D01*
X83078000Y-82804000D02*
X83058000Y-82784000D01*
X82697000Y-82931000D02*
X83078000Y-82550000D01*
X83078000Y-82550000D02*
X83058000Y-82550000D01*
X106172000Y-75450000D02*
X110478000Y-75450000D01*
D42*
X110478000Y-75450000D02*
X110490000Y-75438000D01*
X106172000Y-75450000D02*
X106172000Y-75184000D01*
D40*
X106172000Y-75184000D02*
X102235000Y-71247000D01*
X102235000Y-71247000D02*
X100965000Y-71247000D01*
X115570000Y-75438000D02*
X115570000Y-71108000D01*
X115570000Y-75438000D02*
X119634000Y-71374000D01*
D42*
X119634000Y-71374000D02*
X119634000Y-71120000D01*
D40*
X100965000Y-76327000D02*
X100965000Y-79629000D01*
X100965000Y-79629000D02*
X99778000Y-80816000D01*
X99778000Y-80816000D02*
X95772000Y-80816000D01*
X95772000Y-80816000D02*
X95772000Y-83864000D01*
X95772000Y-83864000D02*
X97296000Y-85388000D01*
X109996000Y-85388000D02*
X108472000Y-83864000D01*
X108472000Y-83864000D02*
X108472000Y-80816000D01*
X105932000Y-80816000D02*
X108472000Y-80816000D01*
D42*
X117616000Y-85388000D02*
X117616000Y-85046000D01*
D40*
X117616000Y-85046000D02*
X120239000Y-82423000D01*
X118632000Y-80816000D02*
X120239000Y-82423000D01*
X120239000Y-82423000D02*
X122047000Y-82423000D01*
X131711000Y-77895000D02*
X132334000Y-77272000D01*
X132334000Y-77272000D02*
X132334000Y-74930000D01*
X136735000Y-70910000D02*
X136354000Y-70910000D01*
X139206000Y-70910000D02*
X136735000Y-70910000D01*
X136354000Y-70910000D02*
X132334000Y-74930000D01*
X139206000Y-75910000D02*
X135951000Y-79165000D01*
X135951000Y-79165000D02*
X131711000Y-79165000D01*
X132207000Y-83566000D02*
X131711000Y-83070000D01*
X131711000Y-83070000D02*
X131711000Y-80435000D01*
X131711000Y-80435000D02*
X138731000Y-80435000D01*
D42*
X138731000Y-80435000D02*
X139206000Y-80910000D01*
D40*
X123698000Y-75438000D02*
X123698000Y-72136000D01*
X123698000Y-72136000D02*
X124714000Y-71120000D01*
X122047000Y-77089000D02*
X123698000Y-75438000D01*
X123698000Y-75438000D02*
X123710000Y-75426000D01*
X123710000Y-75426000D02*
X127000000Y-75426000D01*
D41*
X105918000Y-70853300D02*
X107200700Y-70853300D01*
X107200700Y-70853300D02*
X108204000Y-69850000D01*
X103886000Y-70854000D02*
X105917300Y-70854000D01*
D43*
X105917300Y-70854000D02*
X105918000Y-70853300D01*
D41*
X98128000Y-68072000D02*
X98128000Y-67902000D01*
X98128000Y-67902000D02*
X97282000Y-67056000D01*
X97282000Y-67056000D02*
X96004745Y-67056000D01*
X96004745Y-67056000D02*
X94536356Y-65587611D01*
D40*
X94536356Y-65587611D02*
X94730000Y-65781255D01*
D41*
X102156356Y-65587611D02*
X102156356Y-67624356D01*
X102156356Y-67624356D02*
X103886000Y-69354000D01*
X91440000Y-83439000D02*
X91440000Y-82918111D01*
D40*
X100965000Y-73787000D02*
X99949000Y-73787000D01*
X99822000Y-73914000D02*
X98806000Y-75184000D01*
X98806000Y-75184000D02*
X98806000Y-78232000D01*
X98806000Y-78232000D02*
X97790000Y-79248000D01*
X97790000Y-79248000D02*
X95250000Y-79248000D01*
X95250000Y-79248000D02*
X94234000Y-80264000D01*
X94234000Y-80264000D02*
X94234000Y-82621820D01*
X94234000Y-82621820D02*
X91440000Y-85415820D01*
X99949000Y-73787000D02*
X99822000Y-73914000D01*
X89916000Y-74053000D02*
X87388000Y-74053000D01*
X87388000Y-74053000D02*
X85451000Y-74053000D01*
X85451000Y-74053000D02*
X84455000Y-73057000D01*
D41*
X84487000Y-73025000D02*
X84455000Y-73057000D01*
X84455000Y-73057000D02*
X84463640Y-73065640D01*
D40*
X125222000Y-79490000D02*
X125222000Y-82296000D01*
D42*
X122047000Y-79883000D02*
X122440000Y-79490000D01*
D40*
X122440000Y-79490000D02*
X125222000Y-79490000D01*
X129794000Y-70866000D02*
X129794000Y-74930000D01*
X129794000Y-74930000D02*
X129794000Y-76387000D01*
X129794000Y-76387000D02*
X128286000Y-77895000D01*
X128286000Y-77895000D02*
X125317000Y-77895000D01*
D42*
X125317000Y-77895000D02*
X125222000Y-77990000D01*
D40*
X94615000Y-84625000D02*
X94742000Y-84498000D01*
X94742000Y-84498000D02*
X94742000Y-83439000D01*
D41*
X91948000Y-78232000D02*
X92941140Y-79225140D01*
X92941140Y-79225140D02*
X92941140Y-81714340D01*
X91948000Y-78232000D02*
X91948000Y-76696000D01*
X91948000Y-76696000D02*
X91948000Y-75426000D01*
D40*
X91948000Y-75426000D02*
X92148000Y-75426000D01*
X91899644Y-75474356D02*
X91948000Y-75426000D01*
X92710000Y-71616000D02*
X92710000Y-73164000D01*
X92710000Y-73164000D02*
X91948000Y-73926000D01*
D41*
X94754000Y-71628000D02*
X92722000Y-71628000D01*
X92722000Y-71628000D02*
X92710000Y-71616000D01*
X96266000Y-73734000D02*
X96266000Y-71640000D01*
X96266000Y-71640000D02*
X96254000Y-71628000D01*
D40*
X95746000Y-73214000D02*
X96266000Y-73734000D01*
D41*
X92075000Y-68961000D02*
X92075000Y-69481000D01*
X92075000Y-69481000D02*
X92710000Y-70116000D01*
X91864000Y-68072000D02*
X92075000Y-68283000D01*
X92075000Y-68283000D02*
X92075000Y-68961000D01*
X86916356Y-65587611D02*
X86868000Y-65635967D01*
X86868000Y-65635967D02*
X86868000Y-70104000D01*
X86868000Y-70104000D02*
X87630000Y-70866000D01*
X94064000Y-68072000D02*
X94064000Y-68623000D01*
X94064000Y-68623000D02*
X93726000Y-68961000D01*
X96774000Y-69850000D02*
X95928000Y-69004000D01*
X95928000Y-69004000D02*
X95928000Y-68072000D01*
X95928000Y-68072000D02*
X94064000Y-68072000D01*
D40*
X91440000Y-81714340D02*
X91440000Y-80772000D01*
X89789000Y-79121000D02*
X87376000Y-79121000D01*
X91440000Y-80772000D02*
X89789000Y-79121000D01*
D43*
G36*
X86389519Y-62106416D02*
X86069442Y-62379672D01*
X85878300Y-62754616D01*
X85902396Y-62920611D01*
X86789356Y-62920611D01*
X86789356Y-62900611D01*
X87043356Y-62900611D01*
X87043356Y-62920611D01*
X87930316Y-62920611D01*
X87954412Y-62754616D01*
X87763270Y-62379672D01*
X87443193Y-62106416D01*
X87434945Y-62103000D01*
X88937767Y-62103000D01*
X88929519Y-62106416D01*
X88609442Y-62379672D01*
X88418300Y-62754616D01*
X88442396Y-62920611D01*
X89329356Y-62920611D01*
X89329356Y-62900611D01*
X89583356Y-62900611D01*
X89583356Y-62920611D01*
X90470316Y-62920611D01*
X90494412Y-62754616D01*
X90303270Y-62379672D01*
X89983193Y-62106416D01*
X89974945Y-62103000D01*
X91291978Y-62103000D01*
X91161829Y-62189963D01*
X90905993Y-62572847D01*
X90816156Y-63024490D01*
X90816156Y-63070732D01*
X90905993Y-63522375D01*
X91161829Y-63905259D01*
X91544713Y-64161095D01*
X91996356Y-64250932D01*
X92447999Y-64161095D01*
X92830883Y-63905259D01*
X93086719Y-63522375D01*
X93176556Y-63070732D01*
X93176556Y-63024490D01*
X93086719Y-62572847D01*
X92830883Y-62189963D01*
X92700734Y-62103000D01*
X93831978Y-62103000D01*
X93701829Y-62189963D01*
X93445993Y-62572847D01*
X93356156Y-63024490D01*
X93356156Y-63070732D01*
X93445993Y-63522375D01*
X93701829Y-63905259D01*
X94084713Y-64161095D01*
X94536356Y-64250932D01*
X94987999Y-64161095D01*
X95370883Y-63905259D01*
X95626719Y-63522375D01*
X95631000Y-63500853D01*
X95631000Y-65134369D01*
X95626719Y-65112847D01*
X95370883Y-64729963D01*
X94987999Y-64474127D01*
X94536356Y-64384290D01*
X94084713Y-64474127D01*
X93701829Y-64729963D01*
X93445993Y-65112847D01*
X93356156Y-65564490D01*
X93356156Y-65610732D01*
X93445993Y-66062375D01*
X93701829Y-66445259D01*
X94084713Y-66701095D01*
X94536356Y-66790932D01*
X94855641Y-66727423D01*
X95413549Y-67285331D01*
X95328000Y-67285331D01*
X95205635Y-67308356D01*
X95093251Y-67380673D01*
X95017856Y-67491017D01*
X95017697Y-67491800D01*
X94972602Y-67491800D01*
X94905327Y-67387251D01*
X94794983Y-67311856D01*
X94664000Y-67285331D01*
X93464000Y-67285331D01*
X93341635Y-67308356D01*
X93229251Y-67380673D01*
X93153856Y-67491017D01*
X93127331Y-67622000D01*
X93127331Y-68522000D01*
X93150356Y-68644365D01*
X93165400Y-68667744D01*
X93095910Y-68835096D01*
X93095691Y-69085805D01*
X93191431Y-69317513D01*
X93368554Y-69494946D01*
X93600096Y-69591090D01*
X93850805Y-69591309D01*
X94082513Y-69495569D01*
X94259946Y-69318446D01*
X94310267Y-69197259D01*
X94474263Y-69033263D01*
X94590924Y-68858669D01*
X94664000Y-68858669D01*
X94786365Y-68835644D01*
X94898749Y-68763327D01*
X94974144Y-68652983D01*
X94974303Y-68652200D01*
X95019398Y-68652200D01*
X95086673Y-68756749D01*
X95197017Y-68832144D01*
X95328000Y-68858669D01*
X95347800Y-68858669D01*
X95347800Y-69004000D01*
X95383412Y-69183033D01*
X95391965Y-69226033D01*
X95517737Y-69414263D01*
X95631000Y-69527526D01*
X95631000Y-72606675D01*
X95504833Y-72631771D01*
X95481546Y-72647331D01*
X95466000Y-72647331D01*
X95343635Y-72670356D01*
X95231251Y-72742673D01*
X95155856Y-72853017D01*
X95129331Y-72984000D01*
X95129331Y-73145975D01*
X95115800Y-73214000D01*
X95129331Y-73282025D01*
X95129331Y-74484000D01*
X95152356Y-74606365D01*
X95224673Y-74718749D01*
X95335017Y-74794144D01*
X95466000Y-74820669D01*
X95631000Y-74820669D01*
X95631000Y-76155400D01*
X95450150Y-76155400D01*
X95393000Y-76212550D01*
X95393000Y-76857000D01*
X95413000Y-76857000D01*
X95413000Y-77111000D01*
X95393000Y-77111000D01*
X95393000Y-77755450D01*
X95450150Y-77812600D01*
X95631000Y-77812600D01*
X95631000Y-78105000D01*
X94488000Y-78105000D01*
X94438590Y-78115006D01*
X94396965Y-78143447D01*
X94369685Y-78185841D01*
X94361000Y-78232000D01*
X94361000Y-79245762D01*
X93788381Y-79818381D01*
X93651771Y-80022833D01*
X93603800Y-80264000D01*
X93603800Y-80675010D01*
X93572503Y-80653626D01*
X93521340Y-80643265D01*
X93521340Y-79225140D01*
X93477175Y-79003107D01*
X93351403Y-78814877D01*
X92784669Y-78248143D01*
X92784669Y-77732000D01*
X92761644Y-77609635D01*
X92689327Y-77497251D01*
X92578983Y-77421856D01*
X92528200Y-77411572D01*
X92528200Y-77168150D01*
X94437400Y-77168150D01*
X94437400Y-77629471D01*
X94472202Y-77713491D01*
X94536508Y-77777797D01*
X94620528Y-77812600D01*
X95081850Y-77812600D01*
X95139000Y-77755450D01*
X95139000Y-77111000D01*
X94494550Y-77111000D01*
X94437400Y-77168150D01*
X92528200Y-77168150D01*
X92528200Y-76338529D01*
X94437400Y-76338529D01*
X94437400Y-76799850D01*
X94494550Y-76857000D01*
X95139000Y-76857000D01*
X95139000Y-76212550D01*
X95081850Y-76155400D01*
X94620528Y-76155400D01*
X94536508Y-76190203D01*
X94472202Y-76254509D01*
X94437400Y-76338529D01*
X92528200Y-76338529D01*
X92528200Y-75984602D01*
X92632749Y-75917327D01*
X92708144Y-75806983D01*
X92734669Y-75676000D01*
X92734669Y-75644846D01*
X92778200Y-75426000D01*
X92734669Y-75207154D01*
X92734669Y-75176000D01*
X92711644Y-75053635D01*
X92639327Y-74941251D01*
X92528983Y-74865856D01*
X92398000Y-74839331D01*
X92366846Y-74839331D01*
X92148000Y-74795800D01*
X91948005Y-74795800D01*
X91948000Y-74795799D01*
X91729154Y-74839331D01*
X91498000Y-74839331D01*
X91375635Y-74862356D01*
X91263251Y-74934673D01*
X91187856Y-75045017D01*
X91161331Y-75176000D01*
X91161331Y-75676000D01*
X91184356Y-75798365D01*
X91256673Y-75910749D01*
X91367017Y-75986144D01*
X91367800Y-75986303D01*
X91367800Y-77410422D01*
X91325635Y-77418356D01*
X91213251Y-77490673D01*
X91137856Y-77601017D01*
X91111331Y-77732000D01*
X91111331Y-78732000D01*
X91134356Y-78854365D01*
X91206673Y-78966749D01*
X91317017Y-79042144D01*
X91448000Y-79068669D01*
X91964143Y-79068669D01*
X92360940Y-79465466D01*
X92360940Y-80642120D01*
X92318395Y-80650126D01*
X92206011Y-80722443D01*
X92191315Y-80743952D01*
X92181707Y-80729021D01*
X92071363Y-80653626D01*
X92045617Y-80648412D01*
X92022229Y-80530833D01*
X91968865Y-80450968D01*
X91885619Y-80326381D01*
X91885616Y-80326379D01*
X90234619Y-78675381D01*
X90098537Y-78584454D01*
X90272513Y-78512569D01*
X90449946Y-78335446D01*
X90546090Y-78103904D01*
X90546309Y-77853195D01*
X90546200Y-77852931D01*
X90546200Y-76962000D01*
X90546309Y-76837195D01*
X90546200Y-76836931D01*
X90546200Y-76164396D01*
X90601144Y-76083983D01*
X90627669Y-75953000D01*
X90627669Y-75153000D01*
X90604644Y-75030635D01*
X90532327Y-74918251D01*
X90421983Y-74842856D01*
X90291000Y-74816331D01*
X89541000Y-74816331D01*
X89418635Y-74839356D01*
X89306251Y-74911673D01*
X89230856Y-75022017D01*
X89204331Y-75153000D01*
X89204331Y-75953000D01*
X89227356Y-76075365D01*
X89285800Y-76166190D01*
X89285800Y-76962000D01*
X89285691Y-77086805D01*
X89285800Y-77087069D01*
X89285800Y-77978000D01*
X89285691Y-78102805D01*
X89381431Y-78334513D01*
X89537445Y-78490800D01*
X88554885Y-78490800D01*
X88504346Y-78368487D01*
X88130481Y-77993969D01*
X87641754Y-77791032D01*
X87112568Y-77790570D01*
X86623487Y-77992654D01*
X86248969Y-78366519D01*
X86046032Y-78855246D01*
X86045570Y-79384432D01*
X86247654Y-79873513D01*
X86621519Y-80248031D01*
X87110246Y-80450968D01*
X87639432Y-80451430D01*
X88128513Y-80249346D01*
X88503031Y-79875481D01*
X88554637Y-79751200D01*
X89527962Y-79751200D01*
X90403864Y-80627101D01*
X89742859Y-80627101D01*
X89569139Y-80453381D01*
X89364687Y-80316771D01*
X89123520Y-80268800D01*
X88773000Y-80268800D01*
X88648195Y-80268691D01*
X88416487Y-80364431D01*
X88239054Y-80541554D01*
X88142910Y-80773096D01*
X88142691Y-81023805D01*
X88238431Y-81255513D01*
X88262762Y-81279887D01*
X88239054Y-81303554D01*
X88142910Y-81535096D01*
X88142691Y-81785805D01*
X88238431Y-82017513D01*
X88262762Y-82041887D01*
X88239054Y-82065554D01*
X88142910Y-82297096D01*
X88142691Y-82547805D01*
X88238431Y-82779513D01*
X88415554Y-82956946D01*
X88647096Y-83053090D01*
X88897805Y-83053309D01*
X89129513Y-82957569D01*
X89152974Y-82934149D01*
X89315280Y-82898865D01*
X89275251Y-82924623D01*
X89199856Y-83034967D01*
X89173331Y-83165950D01*
X89173331Y-87665690D01*
X89196356Y-87788055D01*
X89268673Y-87900439D01*
X89379017Y-87975834D01*
X89510000Y-88002359D01*
X93370000Y-88002359D01*
X93492365Y-87979334D01*
X93604749Y-87907017D01*
X93680144Y-87796673D01*
X93706669Y-87665690D01*
X93706669Y-84040388D01*
X93858773Y-83888284D01*
X93854856Y-83894017D01*
X93828331Y-84025000D01*
X93828331Y-85225000D01*
X93851356Y-85347365D01*
X93923673Y-85459749D01*
X94034017Y-85535144D01*
X94165000Y-85561669D01*
X94361000Y-85561669D01*
X94361000Y-85888331D01*
X94165000Y-85888331D01*
X94042635Y-85911356D01*
X93930251Y-85983673D01*
X93854856Y-86094017D01*
X93828331Y-86225000D01*
X93828331Y-87425000D01*
X93851356Y-87547365D01*
X93923673Y-87659749D01*
X94034017Y-87735144D01*
X94165000Y-87761669D01*
X94361000Y-87761669D01*
X94361000Y-89789000D01*
X85901655Y-89789000D01*
X85853630Y-89744669D01*
X87884000Y-89744669D01*
X88006365Y-89721644D01*
X88118749Y-89649327D01*
X88194144Y-89538983D01*
X88220669Y-89408000D01*
X88220669Y-87376000D01*
X88197644Y-87253635D01*
X88125327Y-87141251D01*
X88014983Y-87065856D01*
X87884000Y-87039331D01*
X87219105Y-87039331D01*
X87623199Y-86841310D01*
X87944305Y-86477001D01*
X88070993Y-86171118D01*
X88048639Y-85979000D01*
X86995000Y-85979000D01*
X86995000Y-85999000D01*
X86741000Y-85999000D01*
X86741000Y-85979000D01*
X85687361Y-85979000D01*
X85665007Y-86171118D01*
X85791695Y-86477001D01*
X86112801Y-86841310D01*
X86516895Y-87039331D01*
X85852000Y-87039331D01*
X85729635Y-87062356D01*
X85617251Y-87134673D01*
X85541856Y-87245017D01*
X85515331Y-87376000D01*
X85515331Y-89408000D01*
X85520886Y-89437521D01*
X84891834Y-88856857D01*
X85266439Y-87954706D01*
X85267559Y-86670926D01*
X84797330Y-85532882D01*
X85665007Y-85532882D01*
X85687361Y-85725000D01*
X86741000Y-85725000D01*
X86741000Y-84671035D01*
X86995000Y-84671035D01*
X86995000Y-85725000D01*
X88048639Y-85725000D01*
X88070993Y-85532882D01*
X87944305Y-85226999D01*
X87623199Y-84862690D01*
X87187120Y-84648995D01*
X86995000Y-84671035D01*
X86741000Y-84671035D01*
X86548880Y-84648995D01*
X86112801Y-84862690D01*
X85791695Y-85226999D01*
X85665007Y-85532882D01*
X84797330Y-85532882D01*
X84777313Y-85484439D01*
X83912836Y-84618451D01*
X83972946Y-84558446D01*
X84069090Y-84326904D01*
X84069309Y-84076195D01*
X83973569Y-83844487D01*
X83884311Y-83755073D01*
X83950365Y-83742644D01*
X84062749Y-83670327D01*
X84138144Y-83559983D01*
X84164669Y-83429000D01*
X84164669Y-82988150D01*
X84599400Y-82988150D01*
X84599400Y-83474472D01*
X84634203Y-83558492D01*
X84698509Y-83622798D01*
X84782529Y-83657600D01*
X85393850Y-83657600D01*
X85451000Y-83600450D01*
X85451000Y-82931000D01*
X85705000Y-82931000D01*
X85705000Y-83600450D01*
X85762150Y-83657600D01*
X86373471Y-83657600D01*
X86457491Y-83622798D01*
X86521797Y-83558492D01*
X86556600Y-83474472D01*
X86556600Y-82988150D01*
X86499450Y-82931000D01*
X85705000Y-82931000D01*
X85451000Y-82931000D01*
X84656550Y-82931000D01*
X84599400Y-82988150D01*
X84164669Y-82988150D01*
X84164669Y-82179000D01*
X84156113Y-82133528D01*
X84599400Y-82133528D01*
X84599400Y-82619850D01*
X84656550Y-82677000D01*
X85451000Y-82677000D01*
X85451000Y-82007550D01*
X85705000Y-82007550D01*
X85705000Y-82677000D01*
X86499450Y-82677000D01*
X86556600Y-82619850D01*
X86556600Y-82133528D01*
X86521797Y-82049508D01*
X86457491Y-81985202D01*
X86373471Y-81950400D01*
X85762150Y-81950400D01*
X85705000Y-82007550D01*
X85451000Y-82007550D01*
X85393850Y-81950400D01*
X84782529Y-81950400D01*
X84698509Y-81985202D01*
X84634203Y-82049508D01*
X84599400Y-82133528D01*
X84156113Y-82133528D01*
X84141644Y-82056635D01*
X84069327Y-81944251D01*
X83958983Y-81868856D01*
X83828000Y-81842331D01*
X83688200Y-81842331D01*
X83688200Y-81534000D01*
X83688309Y-81409195D01*
X83592569Y-81177487D01*
X83415446Y-81000054D01*
X83183904Y-80903910D01*
X83058000Y-80903800D01*
X82933195Y-80903691D01*
X82701487Y-80999431D01*
X82524054Y-81176554D01*
X82427910Y-81408096D01*
X82427691Y-81658805D01*
X82427800Y-81659069D01*
X82427800Y-81842331D01*
X82328000Y-81842331D01*
X82205635Y-81865356D01*
X82093251Y-81937673D01*
X82017856Y-82048017D01*
X81992384Y-82173800D01*
X81661000Y-82173800D01*
X81536195Y-82173691D01*
X81304487Y-82269431D01*
X81127054Y-82446554D01*
X81030910Y-82678096D01*
X81030691Y-82928805D01*
X81126431Y-83160513D01*
X81303554Y-83337946D01*
X81535096Y-83434090D01*
X81661000Y-83434200D01*
X81661023Y-83434200D01*
X81785805Y-83434309D01*
X81786069Y-83434200D01*
X81992309Y-83434200D01*
X82014356Y-83551365D01*
X82086673Y-83663749D01*
X82197017Y-83739144D01*
X82328000Y-83765669D01*
X82447800Y-83765669D01*
X82447800Y-83840000D01*
X82495771Y-84081167D01*
X82497261Y-84083397D01*
X81400926Y-84082441D01*
X80239453Y-84562352D01*
X79375000Y-83764395D01*
X79375000Y-79804150D01*
X79571400Y-79804150D01*
X79571400Y-80515472D01*
X79606203Y-80599492D01*
X79670509Y-80663798D01*
X79754529Y-80698600D01*
X80465850Y-80698600D01*
X80523000Y-80641450D01*
X80523000Y-79747000D01*
X80777000Y-79747000D01*
X80777000Y-80641450D01*
X80834150Y-80698600D01*
X81545471Y-80698600D01*
X81629491Y-80663798D01*
X81693797Y-80599492D01*
X81728600Y-80515472D01*
X81728600Y-79804150D01*
X81671450Y-79747000D01*
X80777000Y-79747000D01*
X80523000Y-79747000D01*
X79628550Y-79747000D01*
X79571400Y-79804150D01*
X79375000Y-79804150D01*
X79375000Y-78724528D01*
X79571400Y-78724528D01*
X79571400Y-79435850D01*
X79628550Y-79493000D01*
X80523000Y-79493000D01*
X80523000Y-78598550D01*
X80777000Y-78598550D01*
X80777000Y-79493000D01*
X81671450Y-79493000D01*
X81728600Y-79435850D01*
X81728600Y-78724528D01*
X81693797Y-78640508D01*
X81629491Y-78576202D01*
X81545471Y-78541400D01*
X80834150Y-78541400D01*
X80777000Y-78598550D01*
X80523000Y-78598550D01*
X80465850Y-78541400D01*
X79754529Y-78541400D01*
X79670509Y-78576202D01*
X79606203Y-78640508D01*
X79571400Y-78724528D01*
X79375000Y-78724528D01*
X79375000Y-77080000D01*
X79446679Y-77080000D01*
X79536516Y-77531643D01*
X79792352Y-77914527D01*
X80175236Y-78170363D01*
X80626879Y-78260200D01*
X80673121Y-78260200D01*
X81124764Y-78170363D01*
X81507648Y-77914527D01*
X81763484Y-77531643D01*
X81821266Y-77241150D01*
X83376400Y-77241150D01*
X83376400Y-78102471D01*
X83411202Y-78186491D01*
X83475508Y-78250797D01*
X83559528Y-78285600D01*
X84270850Y-78285600D01*
X84328000Y-78228450D01*
X84328000Y-77184000D01*
X84582000Y-77184000D01*
X84582000Y-78228450D01*
X84639150Y-78285600D01*
X85350472Y-78285600D01*
X85434492Y-78250797D01*
X85498798Y-78186491D01*
X85533600Y-78102471D01*
X85533600Y-77241150D01*
X85476450Y-77184000D01*
X84582000Y-77184000D01*
X84328000Y-77184000D01*
X83433550Y-77184000D01*
X83376400Y-77241150D01*
X81821266Y-77241150D01*
X81853321Y-77080000D01*
X81763484Y-76628357D01*
X81507648Y-76245473D01*
X81157528Y-76011529D01*
X83376400Y-76011529D01*
X83376400Y-76872850D01*
X83433550Y-76930000D01*
X84328000Y-76930000D01*
X84328000Y-75885550D01*
X84582000Y-75885550D01*
X84582000Y-76930000D01*
X85476450Y-76930000D01*
X85533600Y-76872850D01*
X85533600Y-76011529D01*
X85498798Y-75927509D01*
X85434492Y-75863203D01*
X85350472Y-75828400D01*
X84639150Y-75828400D01*
X84582000Y-75885550D01*
X84328000Y-75885550D01*
X84270850Y-75828400D01*
X83559528Y-75828400D01*
X83475508Y-75863203D01*
X83411202Y-75927509D01*
X83376400Y-76011529D01*
X81157528Y-76011529D01*
X81124764Y-75989637D01*
X80673121Y-75899800D01*
X80626879Y-75899800D01*
X80175236Y-75989637D01*
X79792352Y-76245473D01*
X79536516Y-76628357D01*
X79446679Y-77080000D01*
X79375000Y-77080000D01*
X79375000Y-74540000D01*
X79446679Y-74540000D01*
X79536516Y-74991643D01*
X79792352Y-75374527D01*
X80175236Y-75630363D01*
X80626879Y-75720200D01*
X80673121Y-75720200D01*
X81124764Y-75630363D01*
X81507648Y-75374527D01*
X81763484Y-74991643D01*
X81853321Y-74540000D01*
X81763484Y-74088357D01*
X81507648Y-73705473D01*
X81124764Y-73449637D01*
X80673121Y-73359800D01*
X80626879Y-73359800D01*
X80175236Y-73449637D01*
X79792352Y-73705473D01*
X79536516Y-74088357D01*
X79446679Y-74540000D01*
X79375000Y-74540000D01*
X79375000Y-72000000D01*
X79446679Y-72000000D01*
X79536516Y-72451643D01*
X79792352Y-72834527D01*
X80175236Y-73090363D01*
X80626879Y-73180200D01*
X80673121Y-73180200D01*
X81124764Y-73090363D01*
X81507648Y-72834527D01*
X81763484Y-72451643D01*
X81841983Y-72057000D01*
X83268331Y-72057000D01*
X83268331Y-74057000D01*
X83291356Y-74179365D01*
X83363673Y-74291749D01*
X83474017Y-74367144D01*
X83605000Y-74393669D01*
X84900432Y-74393669D01*
X85005379Y-74498616D01*
X85005381Y-74498619D01*
X85120240Y-74575365D01*
X85209833Y-74635229D01*
X85451000Y-74683201D01*
X85451005Y-74683200D01*
X86218613Y-74683200D01*
X86435407Y-75007653D01*
X86866954Y-75296005D01*
X87376000Y-75397260D01*
X87885046Y-75296005D01*
X88316593Y-75007653D01*
X88533387Y-74683200D01*
X89296746Y-74683200D01*
X89299673Y-74687749D01*
X89410017Y-74763144D01*
X89541000Y-74789669D01*
X90291000Y-74789669D01*
X90413365Y-74766644D01*
X90525749Y-74694327D01*
X90601144Y-74583983D01*
X90627669Y-74453000D01*
X90627669Y-73676000D01*
X91161331Y-73676000D01*
X91161331Y-74176000D01*
X91184356Y-74298365D01*
X91256673Y-74410749D01*
X91367017Y-74486144D01*
X91498000Y-74512669D01*
X91729154Y-74512669D01*
X91948000Y-74556200D01*
X92166846Y-74512669D01*
X92398000Y-74512669D01*
X92520365Y-74489644D01*
X92632749Y-74417327D01*
X92708144Y-74306983D01*
X92734669Y-74176000D01*
X92734669Y-74030569D01*
X93155619Y-73609619D01*
X93292229Y-73405167D01*
X93340201Y-73164000D01*
X93340200Y-73163995D01*
X93340200Y-72227396D01*
X93353316Y-72208200D01*
X94195398Y-72208200D01*
X94262673Y-72312749D01*
X94373017Y-72388144D01*
X94504000Y-72414669D01*
X95004000Y-72414669D01*
X95126365Y-72391644D01*
X95238749Y-72319327D01*
X95314144Y-72208983D01*
X95340669Y-72078000D01*
X95340669Y-71178000D01*
X95317644Y-71055635D01*
X95245327Y-70943251D01*
X95134983Y-70867856D01*
X95004000Y-70841331D01*
X94504000Y-70841331D01*
X94381635Y-70864356D01*
X94269251Y-70936673D01*
X94193856Y-71047017D01*
X94193697Y-71047800D01*
X93369150Y-71047800D01*
X93326327Y-70981251D01*
X93215983Y-70905856D01*
X93085000Y-70879331D01*
X92335000Y-70879331D01*
X92212635Y-70902356D01*
X92100251Y-70974673D01*
X92024856Y-71085017D01*
X91998331Y-71216000D01*
X91998331Y-72016000D01*
X92021356Y-72138365D01*
X92079800Y-72229190D01*
X92079800Y-72902962D01*
X91643431Y-73339331D01*
X91498000Y-73339331D01*
X91375635Y-73362356D01*
X91263251Y-73434673D01*
X91187856Y-73545017D01*
X91161331Y-73676000D01*
X90627669Y-73676000D01*
X90627669Y-73653000D01*
X90604644Y-73530635D01*
X90532327Y-73418251D01*
X90421983Y-73342856D01*
X90291000Y-73316331D01*
X89541000Y-73316331D01*
X89418635Y-73339356D01*
X89306251Y-73411673D01*
X89298648Y-73422800D01*
X88549423Y-73422800D01*
X88316593Y-73074347D01*
X87885046Y-72785995D01*
X87376000Y-72684740D01*
X86866954Y-72785995D01*
X86435407Y-73074347D01*
X86202577Y-73422800D01*
X85712037Y-73422800D01*
X85641669Y-73352432D01*
X85641669Y-72057000D01*
X85618644Y-71934635D01*
X85546327Y-71822251D01*
X85435983Y-71746856D01*
X85305000Y-71720331D01*
X83605000Y-71720331D01*
X83482635Y-71743356D01*
X83370251Y-71815673D01*
X83294856Y-71926017D01*
X83268331Y-72057000D01*
X81841983Y-72057000D01*
X81853321Y-72000000D01*
X81763484Y-71548357D01*
X81507648Y-71165473D01*
X81124764Y-70909637D01*
X80673121Y-70819800D01*
X80626879Y-70819800D01*
X80175236Y-70909637D01*
X79792352Y-71165473D01*
X79536516Y-71548357D01*
X79446679Y-72000000D01*
X79375000Y-72000000D01*
X79375000Y-69350418D01*
X79707630Y-69683629D01*
X80220900Y-69896757D01*
X80776661Y-69897242D01*
X81290303Y-69685010D01*
X81683629Y-69292370D01*
X81896757Y-68779100D01*
X81897242Y-68223339D01*
X81685010Y-67709697D01*
X81512156Y-67536541D01*
X82679074Y-67537559D01*
X83865561Y-67047313D01*
X84774123Y-66140336D01*
X85266439Y-64954706D01*
X85266628Y-64737611D01*
X85729687Y-64737611D01*
X85729687Y-66437611D01*
X85752712Y-66559976D01*
X85825029Y-66672360D01*
X85935373Y-66747755D01*
X86066356Y-66774280D01*
X86287800Y-66774280D01*
X86287800Y-70104000D01*
X86318883Y-70260264D01*
X86331965Y-70326033D01*
X86457737Y-70514263D01*
X87045751Y-71102277D01*
X87095431Y-71222513D01*
X87272554Y-71399946D01*
X87504096Y-71496090D01*
X87754805Y-71496309D01*
X87986513Y-71400569D01*
X88163946Y-71223446D01*
X88260090Y-70991904D01*
X88260309Y-70741195D01*
X88164569Y-70509487D01*
X87987446Y-70332054D01*
X87866260Y-70281734D01*
X87448200Y-69863674D01*
X87448200Y-67942805D01*
X89793691Y-67942805D01*
X89889431Y-68174513D01*
X90066554Y-68351946D01*
X90298096Y-68448090D01*
X90548805Y-68448309D01*
X90780513Y-68352569D01*
X90927331Y-68206008D01*
X90927331Y-68522000D01*
X90950356Y-68644365D01*
X91022673Y-68756749D01*
X91133017Y-68832144D01*
X91264000Y-68858669D01*
X91444889Y-68858669D01*
X91444691Y-69085805D01*
X91494800Y-69207078D01*
X91494800Y-69481000D01*
X91535105Y-69683629D01*
X91538965Y-69703033D01*
X91664737Y-69891263D01*
X91998331Y-70224858D01*
X91998331Y-70516000D01*
X92021356Y-70638365D01*
X92093673Y-70750749D01*
X92204017Y-70826144D01*
X92335000Y-70852669D01*
X93085000Y-70852669D01*
X93207365Y-70829644D01*
X93319749Y-70757327D01*
X93395144Y-70646983D01*
X93421669Y-70516000D01*
X93421669Y-69716000D01*
X93398644Y-69593635D01*
X93326327Y-69481251D01*
X93215983Y-69405856D01*
X93085000Y-69379331D01*
X92793857Y-69379331D01*
X92655200Y-69240674D01*
X92655200Y-69207053D01*
X92705090Y-69086904D01*
X92705309Y-68836195D01*
X92680147Y-68775297D01*
X92698749Y-68763327D01*
X92774144Y-68652983D01*
X92800669Y-68522000D01*
X92800669Y-67622000D01*
X92777644Y-67499635D01*
X92705327Y-67387251D01*
X92594983Y-67311856D01*
X92464000Y-67285331D01*
X91264000Y-67285331D01*
X91141635Y-67308356D01*
X91029251Y-67380673D01*
X90964396Y-67475591D01*
X90958569Y-67461487D01*
X90781446Y-67284054D01*
X90549904Y-67187910D01*
X90299195Y-67187691D01*
X90067487Y-67283431D01*
X89890054Y-67460554D01*
X89793910Y-67692096D01*
X89793691Y-67942805D01*
X87448200Y-67942805D01*
X87448200Y-66774280D01*
X87766356Y-66774280D01*
X87888721Y-66751255D01*
X88001105Y-66678938D01*
X88076500Y-66568594D01*
X88103025Y-66437611D01*
X88103025Y-65564490D01*
X88276156Y-65564490D01*
X88276156Y-65610732D01*
X88365993Y-66062375D01*
X88621829Y-66445259D01*
X89004713Y-66701095D01*
X89456356Y-66790932D01*
X89907999Y-66701095D01*
X90290883Y-66445259D01*
X90546719Y-66062375D01*
X90636556Y-65610732D01*
X90636556Y-65564490D01*
X90816156Y-65564490D01*
X90816156Y-65610732D01*
X90905993Y-66062375D01*
X91161829Y-66445259D01*
X91544713Y-66701095D01*
X91996356Y-66790932D01*
X92447999Y-66701095D01*
X92830883Y-66445259D01*
X93086719Y-66062375D01*
X93176556Y-65610732D01*
X93176556Y-65564490D01*
X93086719Y-65112847D01*
X92830883Y-64729963D01*
X92447999Y-64474127D01*
X91996356Y-64384290D01*
X91544713Y-64474127D01*
X91161829Y-64729963D01*
X90905993Y-65112847D01*
X90816156Y-65564490D01*
X90636556Y-65564490D01*
X90546719Y-65112847D01*
X90290883Y-64729963D01*
X89907999Y-64474127D01*
X89456356Y-64384290D01*
X89004713Y-64474127D01*
X88621829Y-64729963D01*
X88365993Y-65112847D01*
X88276156Y-65564490D01*
X88103025Y-65564490D01*
X88103025Y-64737611D01*
X88080000Y-64615246D01*
X88007683Y-64502862D01*
X87897339Y-64427467D01*
X87766356Y-64400942D01*
X86066356Y-64400942D01*
X85943991Y-64423967D01*
X85831607Y-64496284D01*
X85756212Y-64606628D01*
X85729687Y-64737611D01*
X85266628Y-64737611D01*
X85267559Y-63670926D01*
X85131074Y-63340606D01*
X85878300Y-63340606D01*
X86069442Y-63715550D01*
X86389519Y-63988806D01*
X86623363Y-64085654D01*
X86789356Y-64061135D01*
X86789356Y-63174611D01*
X87043356Y-63174611D01*
X87043356Y-64061135D01*
X87209349Y-64085654D01*
X87443193Y-63988806D01*
X87763270Y-63715550D01*
X87954412Y-63340606D01*
X88418300Y-63340606D01*
X88609442Y-63715550D01*
X88929519Y-63988806D01*
X89163363Y-64085654D01*
X89329356Y-64061135D01*
X89329356Y-63174611D01*
X89583356Y-63174611D01*
X89583356Y-64061135D01*
X89749349Y-64085654D01*
X89983193Y-63988806D01*
X90303270Y-63715550D01*
X90494412Y-63340606D01*
X90470316Y-63174611D01*
X89583356Y-63174611D01*
X89329356Y-63174611D01*
X88442396Y-63174611D01*
X88418300Y-63340606D01*
X87954412Y-63340606D01*
X87930316Y-63174611D01*
X87043356Y-63174611D01*
X86789356Y-63174611D01*
X85902396Y-63174611D01*
X85878300Y-63340606D01*
X85131074Y-63340606D01*
X84777313Y-62484439D01*
X84396539Y-62103000D01*
X86397767Y-62103000D01*
X86389519Y-62106416D01*
X86389519Y-62106416D01*
G37*
X86389519Y-62106416D02*
X86069442Y-62379672D01*
X85878300Y-62754616D01*
X85902396Y-62920611D01*
X86789356Y-62920611D01*
X86789356Y-62900611D01*
X87043356Y-62900611D01*
X87043356Y-62920611D01*
X87930316Y-62920611D01*
X87954412Y-62754616D01*
X87763270Y-62379672D01*
X87443193Y-62106416D01*
X87434945Y-62103000D01*
X88937767Y-62103000D01*
X88929519Y-62106416D01*
X88609442Y-62379672D01*
X88418300Y-62754616D01*
X88442396Y-62920611D01*
X89329356Y-62920611D01*
X89329356Y-62900611D01*
X89583356Y-62900611D01*
X89583356Y-62920611D01*
X90470316Y-62920611D01*
X90494412Y-62754616D01*
X90303270Y-62379672D01*
X89983193Y-62106416D01*
X89974945Y-62103000D01*
X91291978Y-62103000D01*
X91161829Y-62189963D01*
X90905993Y-62572847D01*
X90816156Y-63024490D01*
X90816156Y-63070732D01*
X90905993Y-63522375D01*
X91161829Y-63905259D01*
X91544713Y-64161095D01*
X91996356Y-64250932D01*
X92447999Y-64161095D01*
X92830883Y-63905259D01*
X93086719Y-63522375D01*
X93176556Y-63070732D01*
X93176556Y-63024490D01*
X93086719Y-62572847D01*
X92830883Y-62189963D01*
X92700734Y-62103000D01*
X93831978Y-62103000D01*
X93701829Y-62189963D01*
X93445993Y-62572847D01*
X93356156Y-63024490D01*
X93356156Y-63070732D01*
X93445993Y-63522375D01*
X93701829Y-63905259D01*
X94084713Y-64161095D01*
X94536356Y-64250932D01*
X94987999Y-64161095D01*
X95370883Y-63905259D01*
X95626719Y-63522375D01*
X95631000Y-63500853D01*
X95631000Y-65134369D01*
X95626719Y-65112847D01*
X95370883Y-64729963D01*
X94987999Y-64474127D01*
X94536356Y-64384290D01*
X94084713Y-64474127D01*
X93701829Y-64729963D01*
X93445993Y-65112847D01*
X93356156Y-65564490D01*
X93356156Y-65610732D01*
X93445993Y-66062375D01*
X93701829Y-66445259D01*
X94084713Y-66701095D01*
X94536356Y-66790932D01*
X94855641Y-66727423D01*
X95413549Y-67285331D01*
X95328000Y-67285331D01*
X95205635Y-67308356D01*
X95093251Y-67380673D01*
X95017856Y-67491017D01*
X95017697Y-67491800D01*
X94972602Y-67491800D01*
X94905327Y-67387251D01*
X94794983Y-67311856D01*
X94664000Y-67285331D01*
X93464000Y-67285331D01*
X93341635Y-67308356D01*
X93229251Y-67380673D01*
X93153856Y-67491017D01*
X93127331Y-67622000D01*
X93127331Y-68522000D01*
X93150356Y-68644365D01*
X93165400Y-68667744D01*
X93095910Y-68835096D01*
X93095691Y-69085805D01*
X93191431Y-69317513D01*
X93368554Y-69494946D01*
X93600096Y-69591090D01*
X93850805Y-69591309D01*
X94082513Y-69495569D01*
X94259946Y-69318446D01*
X94310267Y-69197259D01*
X94474263Y-69033263D01*
X94590924Y-68858669D01*
X94664000Y-68858669D01*
X94786365Y-68835644D01*
X94898749Y-68763327D01*
X94974144Y-68652983D01*
X94974303Y-68652200D01*
X95019398Y-68652200D01*
X95086673Y-68756749D01*
X95197017Y-68832144D01*
X95328000Y-68858669D01*
X95347800Y-68858669D01*
X95347800Y-69004000D01*
X95383412Y-69183033D01*
X95391965Y-69226033D01*
X95517737Y-69414263D01*
X95631000Y-69527526D01*
X95631000Y-72606675D01*
X95504833Y-72631771D01*
X95481546Y-72647331D01*
X95466000Y-72647331D01*
X95343635Y-72670356D01*
X95231251Y-72742673D01*
X95155856Y-72853017D01*
X95129331Y-72984000D01*
X95129331Y-73145975D01*
X95115800Y-73214000D01*
X95129331Y-73282025D01*
X95129331Y-74484000D01*
X95152356Y-74606365D01*
X95224673Y-74718749D01*
X95335017Y-74794144D01*
X95466000Y-74820669D01*
X95631000Y-74820669D01*
X95631000Y-76155400D01*
X95450150Y-76155400D01*
X95393000Y-76212550D01*
X95393000Y-76857000D01*
X95413000Y-76857000D01*
X95413000Y-77111000D01*
X95393000Y-77111000D01*
X95393000Y-77755450D01*
X95450150Y-77812600D01*
X95631000Y-77812600D01*
X95631000Y-78105000D01*
X94488000Y-78105000D01*
X94438590Y-78115006D01*
X94396965Y-78143447D01*
X94369685Y-78185841D01*
X94361000Y-78232000D01*
X94361000Y-79245762D01*
X93788381Y-79818381D01*
X93651771Y-80022833D01*
X93603800Y-80264000D01*
X93603800Y-80675010D01*
X93572503Y-80653626D01*
X93521340Y-80643265D01*
X93521340Y-79225140D01*
X93477175Y-79003107D01*
X93351403Y-78814877D01*
X92784669Y-78248143D01*
X92784669Y-77732000D01*
X92761644Y-77609635D01*
X92689327Y-77497251D01*
X92578983Y-77421856D01*
X92528200Y-77411572D01*
X92528200Y-77168150D01*
X94437400Y-77168150D01*
X94437400Y-77629471D01*
X94472202Y-77713491D01*
X94536508Y-77777797D01*
X94620528Y-77812600D01*
X95081850Y-77812600D01*
X95139000Y-77755450D01*
X95139000Y-77111000D01*
X94494550Y-77111000D01*
X94437400Y-77168150D01*
X92528200Y-77168150D01*
X92528200Y-76338529D01*
X94437400Y-76338529D01*
X94437400Y-76799850D01*
X94494550Y-76857000D01*
X95139000Y-76857000D01*
X95139000Y-76212550D01*
X95081850Y-76155400D01*
X94620528Y-76155400D01*
X94536508Y-76190203D01*
X94472202Y-76254509D01*
X94437400Y-76338529D01*
X92528200Y-76338529D01*
X92528200Y-75984602D01*
X92632749Y-75917327D01*
X92708144Y-75806983D01*
X92734669Y-75676000D01*
X92734669Y-75644846D01*
X92778200Y-75426000D01*
X92734669Y-75207154D01*
X92734669Y-75176000D01*
X92711644Y-75053635D01*
X92639327Y-74941251D01*
X92528983Y-74865856D01*
X92398000Y-74839331D01*
X92366846Y-74839331D01*
X92148000Y-74795800D01*
X91948005Y-74795800D01*
X91948000Y-74795799D01*
X91729154Y-74839331D01*
X91498000Y-74839331D01*
X91375635Y-74862356D01*
X91263251Y-74934673D01*
X91187856Y-75045017D01*
X91161331Y-75176000D01*
X91161331Y-75676000D01*
X91184356Y-75798365D01*
X91256673Y-75910749D01*
X91367017Y-75986144D01*
X91367800Y-75986303D01*
X91367800Y-77410422D01*
X91325635Y-77418356D01*
X91213251Y-77490673D01*
X91137856Y-77601017D01*
X91111331Y-77732000D01*
X91111331Y-78732000D01*
X91134356Y-78854365D01*
X91206673Y-78966749D01*
X91317017Y-79042144D01*
X91448000Y-79068669D01*
X91964143Y-79068669D01*
X92360940Y-79465466D01*
X92360940Y-80642120D01*
X92318395Y-80650126D01*
X92206011Y-80722443D01*
X92191315Y-80743952D01*
X92181707Y-80729021D01*
X92071363Y-80653626D01*
X92045617Y-80648412D01*
X92022229Y-80530833D01*
X91968865Y-80450968D01*
X91885619Y-80326381D01*
X91885616Y-80326379D01*
X90234619Y-78675381D01*
X90098537Y-78584454D01*
X90272513Y-78512569D01*
X90449946Y-78335446D01*
X90546090Y-78103904D01*
X90546309Y-77853195D01*
X90546200Y-77852931D01*
X90546200Y-76962000D01*
X90546309Y-76837195D01*
X90546200Y-76836931D01*
X90546200Y-76164396D01*
X90601144Y-76083983D01*
X90627669Y-75953000D01*
X90627669Y-75153000D01*
X90604644Y-75030635D01*
X90532327Y-74918251D01*
X90421983Y-74842856D01*
X90291000Y-74816331D01*
X89541000Y-74816331D01*
X89418635Y-74839356D01*
X89306251Y-74911673D01*
X89230856Y-75022017D01*
X89204331Y-75153000D01*
X89204331Y-75953000D01*
X89227356Y-76075365D01*
X89285800Y-76166190D01*
X89285800Y-76962000D01*
X89285691Y-77086805D01*
X89285800Y-77087069D01*
X89285800Y-77978000D01*
X89285691Y-78102805D01*
X89381431Y-78334513D01*
X89537445Y-78490800D01*
X88554885Y-78490800D01*
X88504346Y-78368487D01*
X88130481Y-77993969D01*
X87641754Y-77791032D01*
X87112568Y-77790570D01*
X86623487Y-77992654D01*
X86248969Y-78366519D01*
X86046032Y-78855246D01*
X86045570Y-79384432D01*
X86247654Y-79873513D01*
X86621519Y-80248031D01*
X87110246Y-80450968D01*
X87639432Y-80451430D01*
X88128513Y-80249346D01*
X88503031Y-79875481D01*
X88554637Y-79751200D01*
X89527962Y-79751200D01*
X90403864Y-80627101D01*
X89742859Y-80627101D01*
X89569139Y-80453381D01*
X89364687Y-80316771D01*
X89123520Y-80268800D01*
X88773000Y-80268800D01*
X88648195Y-80268691D01*
X88416487Y-80364431D01*
X88239054Y-80541554D01*
X88142910Y-80773096D01*
X88142691Y-81023805D01*
X88238431Y-81255513D01*
X88262762Y-81279887D01*
X88239054Y-81303554D01*
X88142910Y-81535096D01*
X88142691Y-81785805D01*
X88238431Y-82017513D01*
X88262762Y-82041887D01*
X88239054Y-82065554D01*
X88142910Y-82297096D01*
X88142691Y-82547805D01*
X88238431Y-82779513D01*
X88415554Y-82956946D01*
X88647096Y-83053090D01*
X88897805Y-83053309D01*
X89129513Y-82957569D01*
X89152974Y-82934149D01*
X89315280Y-82898865D01*
X89275251Y-82924623D01*
X89199856Y-83034967D01*
X89173331Y-83165950D01*
X89173331Y-87665690D01*
X89196356Y-87788055D01*
X89268673Y-87900439D01*
X89379017Y-87975834D01*
X89510000Y-88002359D01*
X93370000Y-88002359D01*
X93492365Y-87979334D01*
X93604749Y-87907017D01*
X93680144Y-87796673D01*
X93706669Y-87665690D01*
X93706669Y-84040388D01*
X93858773Y-83888284D01*
X93854856Y-83894017D01*
X93828331Y-84025000D01*
X93828331Y-85225000D01*
X93851356Y-85347365D01*
X93923673Y-85459749D01*
X94034017Y-85535144D01*
X94165000Y-85561669D01*
X94361000Y-85561669D01*
X94361000Y-85888331D01*
X94165000Y-85888331D01*
X94042635Y-85911356D01*
X93930251Y-85983673D01*
X93854856Y-86094017D01*
X93828331Y-86225000D01*
X93828331Y-87425000D01*
X93851356Y-87547365D01*
X93923673Y-87659749D01*
X94034017Y-87735144D01*
X94165000Y-87761669D01*
X94361000Y-87761669D01*
X94361000Y-89789000D01*
X85901655Y-89789000D01*
X85853630Y-89744669D01*
X87884000Y-89744669D01*
X88006365Y-89721644D01*
X88118749Y-89649327D01*
X88194144Y-89538983D01*
X88220669Y-89408000D01*
X88220669Y-87376000D01*
X88197644Y-87253635D01*
X88125327Y-87141251D01*
X88014983Y-87065856D01*
X87884000Y-87039331D01*
X87219105Y-87039331D01*
X87623199Y-86841310D01*
X87944305Y-86477001D01*
X88070993Y-86171118D01*
X88048639Y-85979000D01*
X86995000Y-85979000D01*
X86995000Y-85999000D01*
X86741000Y-85999000D01*
X86741000Y-85979000D01*
X85687361Y-85979000D01*
X85665007Y-86171118D01*
X85791695Y-86477001D01*
X86112801Y-86841310D01*
X86516895Y-87039331D01*
X85852000Y-87039331D01*
X85729635Y-87062356D01*
X85617251Y-87134673D01*
X85541856Y-87245017D01*
X85515331Y-87376000D01*
X85515331Y-89408000D01*
X85520886Y-89437521D01*
X84891834Y-88856857D01*
X85266439Y-87954706D01*
X85267559Y-86670926D01*
X84797330Y-85532882D01*
X85665007Y-85532882D01*
X85687361Y-85725000D01*
X86741000Y-85725000D01*
X86741000Y-84671035D01*
X86995000Y-84671035D01*
X86995000Y-85725000D01*
X88048639Y-85725000D01*
X88070993Y-85532882D01*
X87944305Y-85226999D01*
X87623199Y-84862690D01*
X87187120Y-84648995D01*
X86995000Y-84671035D01*
X86741000Y-84671035D01*
X86548880Y-84648995D01*
X86112801Y-84862690D01*
X85791695Y-85226999D01*
X85665007Y-85532882D01*
X84797330Y-85532882D01*
X84777313Y-85484439D01*
X83912836Y-84618451D01*
X83972946Y-84558446D01*
X84069090Y-84326904D01*
X84069309Y-84076195D01*
X83973569Y-83844487D01*
X83884311Y-83755073D01*
X83950365Y-83742644D01*
X84062749Y-83670327D01*
X84138144Y-83559983D01*
X84164669Y-83429000D01*
X84164669Y-82988150D01*
X84599400Y-82988150D01*
X84599400Y-83474472D01*
X84634203Y-83558492D01*
X84698509Y-83622798D01*
X84782529Y-83657600D01*
X85393850Y-83657600D01*
X85451000Y-83600450D01*
X85451000Y-82931000D01*
X85705000Y-82931000D01*
X85705000Y-83600450D01*
X85762150Y-83657600D01*
X86373471Y-83657600D01*
X86457491Y-83622798D01*
X86521797Y-83558492D01*
X86556600Y-83474472D01*
X86556600Y-82988150D01*
X86499450Y-82931000D01*
X85705000Y-82931000D01*
X85451000Y-82931000D01*
X84656550Y-82931000D01*
X84599400Y-82988150D01*
X84164669Y-82988150D01*
X84164669Y-82179000D01*
X84156113Y-82133528D01*
X84599400Y-82133528D01*
X84599400Y-82619850D01*
X84656550Y-82677000D01*
X85451000Y-82677000D01*
X85451000Y-82007550D01*
X85705000Y-82007550D01*
X85705000Y-82677000D01*
X86499450Y-82677000D01*
X86556600Y-82619850D01*
X86556600Y-82133528D01*
X86521797Y-82049508D01*
X86457491Y-81985202D01*
X86373471Y-81950400D01*
X85762150Y-81950400D01*
X85705000Y-82007550D01*
X85451000Y-82007550D01*
X85393850Y-81950400D01*
X84782529Y-81950400D01*
X84698509Y-81985202D01*
X84634203Y-82049508D01*
X84599400Y-82133528D01*
X84156113Y-82133528D01*
X84141644Y-82056635D01*
X84069327Y-81944251D01*
X83958983Y-81868856D01*
X83828000Y-81842331D01*
X83688200Y-81842331D01*
X83688200Y-81534000D01*
X83688309Y-81409195D01*
X83592569Y-81177487D01*
X83415446Y-81000054D01*
X83183904Y-80903910D01*
X83058000Y-80903800D01*
X82933195Y-80903691D01*
X82701487Y-80999431D01*
X82524054Y-81176554D01*
X82427910Y-81408096D01*
X82427691Y-81658805D01*
X82427800Y-81659069D01*
X82427800Y-81842331D01*
X82328000Y-81842331D01*
X82205635Y-81865356D01*
X82093251Y-81937673D01*
X82017856Y-82048017D01*
X81992384Y-82173800D01*
X81661000Y-82173800D01*
X81536195Y-82173691D01*
X81304487Y-82269431D01*
X81127054Y-82446554D01*
X81030910Y-82678096D01*
X81030691Y-82928805D01*
X81126431Y-83160513D01*
X81303554Y-83337946D01*
X81535096Y-83434090D01*
X81661000Y-83434200D01*
X81661023Y-83434200D01*
X81785805Y-83434309D01*
X81786069Y-83434200D01*
X81992309Y-83434200D01*
X82014356Y-83551365D01*
X82086673Y-83663749D01*
X82197017Y-83739144D01*
X82328000Y-83765669D01*
X82447800Y-83765669D01*
X82447800Y-83840000D01*
X82495771Y-84081167D01*
X82497261Y-84083397D01*
X81400926Y-84082441D01*
X80239453Y-84562352D01*
X79375000Y-83764395D01*
X79375000Y-79804150D01*
X79571400Y-79804150D01*
X79571400Y-80515472D01*
X79606203Y-80599492D01*
X79670509Y-80663798D01*
X79754529Y-80698600D01*
X80465850Y-80698600D01*
X80523000Y-80641450D01*
X80523000Y-79747000D01*
X80777000Y-79747000D01*
X80777000Y-80641450D01*
X80834150Y-80698600D01*
X81545471Y-80698600D01*
X81629491Y-80663798D01*
X81693797Y-80599492D01*
X81728600Y-80515472D01*
X81728600Y-79804150D01*
X81671450Y-79747000D01*
X80777000Y-79747000D01*
X80523000Y-79747000D01*
X79628550Y-79747000D01*
X79571400Y-79804150D01*
X79375000Y-79804150D01*
X79375000Y-78724528D01*
X79571400Y-78724528D01*
X79571400Y-79435850D01*
X79628550Y-79493000D01*
X80523000Y-79493000D01*
X80523000Y-78598550D01*
X80777000Y-78598550D01*
X80777000Y-79493000D01*
X81671450Y-79493000D01*
X81728600Y-79435850D01*
X81728600Y-78724528D01*
X81693797Y-78640508D01*
X81629491Y-78576202D01*
X81545471Y-78541400D01*
X80834150Y-78541400D01*
X80777000Y-78598550D01*
X80523000Y-78598550D01*
X80465850Y-78541400D01*
X79754529Y-78541400D01*
X79670509Y-78576202D01*
X79606203Y-78640508D01*
X79571400Y-78724528D01*
X79375000Y-78724528D01*
X79375000Y-77080000D01*
X79446679Y-77080000D01*
X79536516Y-77531643D01*
X79792352Y-77914527D01*
X80175236Y-78170363D01*
X80626879Y-78260200D01*
X80673121Y-78260200D01*
X81124764Y-78170363D01*
X81507648Y-77914527D01*
X81763484Y-77531643D01*
X81821266Y-77241150D01*
X83376400Y-77241150D01*
X83376400Y-78102471D01*
X83411202Y-78186491D01*
X83475508Y-78250797D01*
X83559528Y-78285600D01*
X84270850Y-78285600D01*
X84328000Y-78228450D01*
X84328000Y-77184000D01*
X84582000Y-77184000D01*
X84582000Y-78228450D01*
X84639150Y-78285600D01*
X85350472Y-78285600D01*
X85434492Y-78250797D01*
X85498798Y-78186491D01*
X85533600Y-78102471D01*
X85533600Y-77241150D01*
X85476450Y-77184000D01*
X84582000Y-77184000D01*
X84328000Y-77184000D01*
X83433550Y-77184000D01*
X83376400Y-77241150D01*
X81821266Y-77241150D01*
X81853321Y-77080000D01*
X81763484Y-76628357D01*
X81507648Y-76245473D01*
X81157528Y-76011529D01*
X83376400Y-76011529D01*
X83376400Y-76872850D01*
X83433550Y-76930000D01*
X84328000Y-76930000D01*
X84328000Y-75885550D01*
X84582000Y-75885550D01*
X84582000Y-76930000D01*
X85476450Y-76930000D01*
X85533600Y-76872850D01*
X85533600Y-76011529D01*
X85498798Y-75927509D01*
X85434492Y-75863203D01*
X85350472Y-75828400D01*
X84639150Y-75828400D01*
X84582000Y-75885550D01*
X84328000Y-75885550D01*
X84270850Y-75828400D01*
X83559528Y-75828400D01*
X83475508Y-75863203D01*
X83411202Y-75927509D01*
X83376400Y-76011529D01*
X81157528Y-76011529D01*
X81124764Y-75989637D01*
X80673121Y-75899800D01*
X80626879Y-75899800D01*
X80175236Y-75989637D01*
X79792352Y-76245473D01*
X79536516Y-76628357D01*
X79446679Y-77080000D01*
X79375000Y-77080000D01*
X79375000Y-74540000D01*
X79446679Y-74540000D01*
X79536516Y-74991643D01*
X79792352Y-75374527D01*
X80175236Y-75630363D01*
X80626879Y-75720200D01*
X80673121Y-75720200D01*
X81124764Y-75630363D01*
X81507648Y-75374527D01*
X81763484Y-74991643D01*
X81853321Y-74540000D01*
X81763484Y-74088357D01*
X81507648Y-73705473D01*
X81124764Y-73449637D01*
X80673121Y-73359800D01*
X80626879Y-73359800D01*
X80175236Y-73449637D01*
X79792352Y-73705473D01*
X79536516Y-74088357D01*
X79446679Y-74540000D01*
X79375000Y-74540000D01*
X79375000Y-72000000D01*
X79446679Y-72000000D01*
X79536516Y-72451643D01*
X79792352Y-72834527D01*
X80175236Y-73090363D01*
X80626879Y-73180200D01*
X80673121Y-73180200D01*
X81124764Y-73090363D01*
X81507648Y-72834527D01*
X81763484Y-72451643D01*
X81841983Y-72057000D01*
X83268331Y-72057000D01*
X83268331Y-74057000D01*
X83291356Y-74179365D01*
X83363673Y-74291749D01*
X83474017Y-74367144D01*
X83605000Y-74393669D01*
X84900432Y-74393669D01*
X85005379Y-74498616D01*
X85005381Y-74498619D01*
X85120240Y-74575365D01*
X85209833Y-74635229D01*
X85451000Y-74683201D01*
X85451005Y-74683200D01*
X86218613Y-74683200D01*
X86435407Y-75007653D01*
X86866954Y-75296005D01*
X87376000Y-75397260D01*
X87885046Y-75296005D01*
X88316593Y-75007653D01*
X88533387Y-74683200D01*
X89296746Y-74683200D01*
X89299673Y-74687749D01*
X89410017Y-74763144D01*
X89541000Y-74789669D01*
X90291000Y-74789669D01*
X90413365Y-74766644D01*
X90525749Y-74694327D01*
X90601144Y-74583983D01*
X90627669Y-74453000D01*
X90627669Y-73676000D01*
X91161331Y-73676000D01*
X91161331Y-74176000D01*
X91184356Y-74298365D01*
X91256673Y-74410749D01*
X91367017Y-74486144D01*
X91498000Y-74512669D01*
X91729154Y-74512669D01*
X91948000Y-74556200D01*
X92166846Y-74512669D01*
X92398000Y-74512669D01*
X92520365Y-74489644D01*
X92632749Y-74417327D01*
X92708144Y-74306983D01*
X92734669Y-74176000D01*
X92734669Y-74030569D01*
X93155619Y-73609619D01*
X93292229Y-73405167D01*
X93340201Y-73164000D01*
X93340200Y-73163995D01*
X93340200Y-72227396D01*
X93353316Y-72208200D01*
X94195398Y-72208200D01*
X94262673Y-72312749D01*
X94373017Y-72388144D01*
X94504000Y-72414669D01*
X95004000Y-72414669D01*
X95126365Y-72391644D01*
X95238749Y-72319327D01*
X95314144Y-72208983D01*
X95340669Y-72078000D01*
X95340669Y-71178000D01*
X95317644Y-71055635D01*
X95245327Y-70943251D01*
X95134983Y-70867856D01*
X95004000Y-70841331D01*
X94504000Y-70841331D01*
X94381635Y-70864356D01*
X94269251Y-70936673D01*
X94193856Y-71047017D01*
X94193697Y-71047800D01*
X93369150Y-71047800D01*
X93326327Y-70981251D01*
X93215983Y-70905856D01*
X93085000Y-70879331D01*
X92335000Y-70879331D01*
X92212635Y-70902356D01*
X92100251Y-70974673D01*
X92024856Y-71085017D01*
X91998331Y-71216000D01*
X91998331Y-72016000D01*
X92021356Y-72138365D01*
X92079800Y-72229190D01*
X92079800Y-72902962D01*
X91643431Y-73339331D01*
X91498000Y-73339331D01*
X91375635Y-73362356D01*
X91263251Y-73434673D01*
X91187856Y-73545017D01*
X91161331Y-73676000D01*
X90627669Y-73676000D01*
X90627669Y-73653000D01*
X90604644Y-73530635D01*
X90532327Y-73418251D01*
X90421983Y-73342856D01*
X90291000Y-73316331D01*
X89541000Y-73316331D01*
X89418635Y-73339356D01*
X89306251Y-73411673D01*
X89298648Y-73422800D01*
X88549423Y-73422800D01*
X88316593Y-73074347D01*
X87885046Y-72785995D01*
X87376000Y-72684740D01*
X86866954Y-72785995D01*
X86435407Y-73074347D01*
X86202577Y-73422800D01*
X85712037Y-73422800D01*
X85641669Y-73352432D01*
X85641669Y-72057000D01*
X85618644Y-71934635D01*
X85546327Y-71822251D01*
X85435983Y-71746856D01*
X85305000Y-71720331D01*
X83605000Y-71720331D01*
X83482635Y-71743356D01*
X83370251Y-71815673D01*
X83294856Y-71926017D01*
X83268331Y-72057000D01*
X81841983Y-72057000D01*
X81853321Y-72000000D01*
X81763484Y-71548357D01*
X81507648Y-71165473D01*
X81124764Y-70909637D01*
X80673121Y-70819800D01*
X80626879Y-70819800D01*
X80175236Y-70909637D01*
X79792352Y-71165473D01*
X79536516Y-71548357D01*
X79446679Y-72000000D01*
X79375000Y-72000000D01*
X79375000Y-69350418D01*
X79707630Y-69683629D01*
X80220900Y-69896757D01*
X80776661Y-69897242D01*
X81290303Y-69685010D01*
X81683629Y-69292370D01*
X81896757Y-68779100D01*
X81897242Y-68223339D01*
X81685010Y-67709697D01*
X81512156Y-67536541D01*
X82679074Y-67537559D01*
X83865561Y-67047313D01*
X84774123Y-66140336D01*
X85266439Y-64954706D01*
X85266628Y-64737611D01*
X85729687Y-64737611D01*
X85729687Y-66437611D01*
X85752712Y-66559976D01*
X85825029Y-66672360D01*
X85935373Y-66747755D01*
X86066356Y-66774280D01*
X86287800Y-66774280D01*
X86287800Y-70104000D01*
X86318883Y-70260264D01*
X86331965Y-70326033D01*
X86457737Y-70514263D01*
X87045751Y-71102277D01*
X87095431Y-71222513D01*
X87272554Y-71399946D01*
X87504096Y-71496090D01*
X87754805Y-71496309D01*
X87986513Y-71400569D01*
X88163946Y-71223446D01*
X88260090Y-70991904D01*
X88260309Y-70741195D01*
X88164569Y-70509487D01*
X87987446Y-70332054D01*
X87866260Y-70281734D01*
X87448200Y-69863674D01*
X87448200Y-67942805D01*
X89793691Y-67942805D01*
X89889431Y-68174513D01*
X90066554Y-68351946D01*
X90298096Y-68448090D01*
X90548805Y-68448309D01*
X90780513Y-68352569D01*
X90927331Y-68206008D01*
X90927331Y-68522000D01*
X90950356Y-68644365D01*
X91022673Y-68756749D01*
X91133017Y-68832144D01*
X91264000Y-68858669D01*
X91444889Y-68858669D01*
X91444691Y-69085805D01*
X91494800Y-69207078D01*
X91494800Y-69481000D01*
X91535105Y-69683629D01*
X91538965Y-69703033D01*
X91664737Y-69891263D01*
X91998331Y-70224858D01*
X91998331Y-70516000D01*
X92021356Y-70638365D01*
X92093673Y-70750749D01*
X92204017Y-70826144D01*
X92335000Y-70852669D01*
X93085000Y-70852669D01*
X93207365Y-70829644D01*
X93319749Y-70757327D01*
X93395144Y-70646983D01*
X93421669Y-70516000D01*
X93421669Y-69716000D01*
X93398644Y-69593635D01*
X93326327Y-69481251D01*
X93215983Y-69405856D01*
X93085000Y-69379331D01*
X92793857Y-69379331D01*
X92655200Y-69240674D01*
X92655200Y-69207053D01*
X92705090Y-69086904D01*
X92705309Y-68836195D01*
X92680147Y-68775297D01*
X92698749Y-68763327D01*
X92774144Y-68652983D01*
X92800669Y-68522000D01*
X92800669Y-67622000D01*
X92777644Y-67499635D01*
X92705327Y-67387251D01*
X92594983Y-67311856D01*
X92464000Y-67285331D01*
X91264000Y-67285331D01*
X91141635Y-67308356D01*
X91029251Y-67380673D01*
X90964396Y-67475591D01*
X90958569Y-67461487D01*
X90781446Y-67284054D01*
X90549904Y-67187910D01*
X90299195Y-67187691D01*
X90067487Y-67283431D01*
X89890054Y-67460554D01*
X89793910Y-67692096D01*
X89793691Y-67942805D01*
X87448200Y-67942805D01*
X87448200Y-66774280D01*
X87766356Y-66774280D01*
X87888721Y-66751255D01*
X88001105Y-66678938D01*
X88076500Y-66568594D01*
X88103025Y-66437611D01*
X88103025Y-65564490D01*
X88276156Y-65564490D01*
X88276156Y-65610732D01*
X88365993Y-66062375D01*
X88621829Y-66445259D01*
X89004713Y-66701095D01*
X89456356Y-66790932D01*
X89907999Y-66701095D01*
X90290883Y-66445259D01*
X90546719Y-66062375D01*
X90636556Y-65610732D01*
X90636556Y-65564490D01*
X90816156Y-65564490D01*
X90816156Y-65610732D01*
X90905993Y-66062375D01*
X91161829Y-66445259D01*
X91544713Y-66701095D01*
X91996356Y-66790932D01*
X92447999Y-66701095D01*
X92830883Y-66445259D01*
X93086719Y-66062375D01*
X93176556Y-65610732D01*
X93176556Y-65564490D01*
X93086719Y-65112847D01*
X92830883Y-64729963D01*
X92447999Y-64474127D01*
X91996356Y-64384290D01*
X91544713Y-64474127D01*
X91161829Y-64729963D01*
X90905993Y-65112847D01*
X90816156Y-65564490D01*
X90636556Y-65564490D01*
X90546719Y-65112847D01*
X90290883Y-64729963D01*
X89907999Y-64474127D01*
X89456356Y-64384290D01*
X89004713Y-64474127D01*
X88621829Y-64729963D01*
X88365993Y-65112847D01*
X88276156Y-65564490D01*
X88103025Y-65564490D01*
X88103025Y-64737611D01*
X88080000Y-64615246D01*
X88007683Y-64502862D01*
X87897339Y-64427467D01*
X87766356Y-64400942D01*
X86066356Y-64400942D01*
X85943991Y-64423967D01*
X85831607Y-64496284D01*
X85756212Y-64606628D01*
X85729687Y-64737611D01*
X85266628Y-64737611D01*
X85267559Y-63670926D01*
X85131074Y-63340606D01*
X85878300Y-63340606D01*
X86069442Y-63715550D01*
X86389519Y-63988806D01*
X86623363Y-64085654D01*
X86789356Y-64061135D01*
X86789356Y-63174611D01*
X87043356Y-63174611D01*
X87043356Y-64061135D01*
X87209349Y-64085654D01*
X87443193Y-63988806D01*
X87763270Y-63715550D01*
X87954412Y-63340606D01*
X88418300Y-63340606D01*
X88609442Y-63715550D01*
X88929519Y-63988806D01*
X89163363Y-64085654D01*
X89329356Y-64061135D01*
X89329356Y-63174611D01*
X89583356Y-63174611D01*
X89583356Y-64061135D01*
X89749349Y-64085654D01*
X89983193Y-63988806D01*
X90303270Y-63715550D01*
X90494412Y-63340606D01*
X90470316Y-63174611D01*
X89583356Y-63174611D01*
X89329356Y-63174611D01*
X88442396Y-63174611D01*
X88418300Y-63340606D01*
X87954412Y-63340606D01*
X87930316Y-63174611D01*
X87043356Y-63174611D01*
X86789356Y-63174611D01*
X85902396Y-63174611D01*
X85878300Y-63340606D01*
X85131074Y-63340606D01*
X84777313Y-62484439D01*
X84396539Y-62103000D01*
X86397767Y-62103000D01*
X86389519Y-62106416D01*
G36*
X137634498Y-62171617D02*
X137305877Y-62499664D01*
X136813561Y-63685294D01*
X136812441Y-64969074D01*
X137302687Y-66155561D01*
X138209664Y-67064123D01*
X139395294Y-67556439D01*
X140679074Y-67557559D01*
X141863378Y-67068215D01*
X142113000Y-67357251D01*
X142113000Y-84273734D01*
X141819285Y-84554679D01*
X140684706Y-84083561D01*
X139400926Y-84082441D01*
X138214439Y-84572687D01*
X137305877Y-85479664D01*
X136813561Y-86665294D01*
X136812441Y-87949074D01*
X137225494Y-88948740D01*
X136347040Y-89789000D01*
X95123000Y-89789000D01*
X95123000Y-88068150D01*
X130589400Y-88068150D01*
X130589400Y-88429472D01*
X130624203Y-88513492D01*
X130688509Y-88577798D01*
X130772529Y-88612600D01*
X131133850Y-88612600D01*
X131191000Y-88555450D01*
X131191000Y-88011000D01*
X131445000Y-88011000D01*
X131445000Y-88555450D01*
X131502150Y-88612600D01*
X131863471Y-88612600D01*
X131947491Y-88577798D01*
X132011797Y-88513492D01*
X132046600Y-88429472D01*
X132046600Y-88331661D01*
X133871758Y-88331661D01*
X134083990Y-88845303D01*
X134476630Y-89238629D01*
X134989900Y-89451757D01*
X135545661Y-89452242D01*
X136059303Y-89240010D01*
X136452629Y-88847370D01*
X136665757Y-88334100D01*
X136666242Y-87778339D01*
X136454010Y-87264697D01*
X136061370Y-86871371D01*
X135548100Y-86658243D01*
X134992339Y-86657758D01*
X134478697Y-86869990D01*
X134085371Y-87262630D01*
X133872243Y-87775900D01*
X133871758Y-88331661D01*
X132046600Y-88331661D01*
X132046600Y-88068150D01*
X131989450Y-88011000D01*
X131445000Y-88011000D01*
X131191000Y-88011000D01*
X130646550Y-88011000D01*
X130589400Y-88068150D01*
X95123000Y-88068150D01*
X95123000Y-87648411D01*
X95194492Y-87618797D01*
X95258798Y-87554491D01*
X95293600Y-87470471D01*
X95293600Y-87338528D01*
X130589400Y-87338528D01*
X130589400Y-87699850D01*
X130646550Y-87757000D01*
X131191000Y-87757000D01*
X131191000Y-87212550D01*
X131445000Y-87212550D01*
X131445000Y-87757000D01*
X131989450Y-87757000D01*
X132046600Y-87699850D01*
X132046600Y-87338528D01*
X132011797Y-87254508D01*
X131947491Y-87190202D01*
X131863471Y-87155400D01*
X131502150Y-87155400D01*
X131445000Y-87212550D01*
X131191000Y-87212550D01*
X131133850Y-87155400D01*
X130772529Y-87155400D01*
X130688509Y-87190202D01*
X130624203Y-87254508D01*
X130589400Y-87338528D01*
X95293600Y-87338528D01*
X95293600Y-87009150D01*
X95236450Y-86952000D01*
X95123000Y-86952000D01*
X95123000Y-86698000D01*
X95236450Y-86698000D01*
X95293600Y-86640850D01*
X95293600Y-86179529D01*
X95258798Y-86095509D01*
X95194492Y-86031203D01*
X95123000Y-86001589D01*
X95123000Y-85550755D01*
X95187365Y-85538644D01*
X95299749Y-85466327D01*
X95375144Y-85355983D01*
X95401669Y-85225000D01*
X95401669Y-84384907D01*
X96169802Y-85153039D01*
X96165997Y-85162203D01*
X96165604Y-85611824D01*
X96337304Y-86027371D01*
X96654957Y-86345578D01*
X97070203Y-86518003D01*
X97519824Y-86518396D01*
X97935371Y-86346696D01*
X98109173Y-86173196D01*
X101690409Y-86173196D01*
X101786841Y-86304862D01*
X102176467Y-86429917D01*
X102584290Y-86396348D01*
X102805159Y-86304862D01*
X102901591Y-86173196D01*
X104390409Y-86173196D01*
X104486841Y-86304862D01*
X104876467Y-86429917D01*
X105284290Y-86396348D01*
X105505159Y-86304862D01*
X105601591Y-86173196D01*
X104996000Y-85567605D01*
X104390409Y-86173196D01*
X102901591Y-86173196D01*
X102296000Y-85567605D01*
X101690409Y-86173196D01*
X98109173Y-86173196D01*
X98253578Y-86029043D01*
X98426003Y-85613797D01*
X98426304Y-85268467D01*
X101254083Y-85268467D01*
X101287652Y-85676290D01*
X101379138Y-85897159D01*
X101510804Y-85993591D01*
X102116395Y-85388000D01*
X102475605Y-85388000D01*
X103081196Y-85993591D01*
X103212862Y-85897159D01*
X103337917Y-85507533D01*
X103318239Y-85268467D01*
X103954083Y-85268467D01*
X103987652Y-85676290D01*
X104079138Y-85897159D01*
X104210804Y-85993591D01*
X104816395Y-85388000D01*
X105175605Y-85388000D01*
X105781196Y-85993591D01*
X105912862Y-85897159D01*
X106037917Y-85507533D01*
X106004348Y-85099710D01*
X105912862Y-84878841D01*
X105781196Y-84782409D01*
X105175605Y-85388000D01*
X104816395Y-85388000D01*
X104210804Y-84782409D01*
X104079138Y-84878841D01*
X103954083Y-85268467D01*
X103318239Y-85268467D01*
X103304348Y-85099710D01*
X103212862Y-84878841D01*
X103081196Y-84782409D01*
X102475605Y-85388000D01*
X102116395Y-85388000D01*
X101510804Y-84782409D01*
X101379138Y-84878841D01*
X101254083Y-85268467D01*
X98426304Y-85268467D01*
X98426396Y-85164176D01*
X98254696Y-84748629D01*
X98109125Y-84602804D01*
X101690409Y-84602804D01*
X102296000Y-85208395D01*
X102901591Y-84602804D01*
X104390409Y-84602804D01*
X104996000Y-85208395D01*
X105601591Y-84602804D01*
X105505159Y-84471138D01*
X105115533Y-84346083D01*
X104707710Y-84379652D01*
X104486841Y-84471138D01*
X104390409Y-84602804D01*
X102901591Y-84602804D01*
X102805159Y-84471138D01*
X102415533Y-84346083D01*
X102007710Y-84379652D01*
X101786841Y-84471138D01*
X101690409Y-84602804D01*
X98109125Y-84602804D01*
X97937043Y-84430422D01*
X97521797Y-84257997D01*
X97072176Y-84257604D01*
X97061325Y-84262088D01*
X96402200Y-83602962D01*
X96402200Y-81778485D01*
X96411371Y-81774696D01*
X96729578Y-81457043D01*
X96734080Y-81446200D01*
X99778000Y-81446200D01*
X100019167Y-81398229D01*
X100223619Y-81261619D01*
X100669237Y-80816000D01*
X104779658Y-80816000D01*
X104865689Y-81248509D01*
X105110686Y-81615172D01*
X105477349Y-81860169D01*
X105909858Y-81946200D01*
X105954142Y-81946200D01*
X106386651Y-81860169D01*
X106753314Y-81615172D01*
X106866218Y-81446200D01*
X107509515Y-81446200D01*
X107513304Y-81455371D01*
X107830957Y-81773578D01*
X107841800Y-81778080D01*
X107841800Y-83864000D01*
X107889771Y-84105167D01*
X108026381Y-84309619D01*
X108869802Y-85153039D01*
X108865997Y-85162203D01*
X108865604Y-85611824D01*
X109037304Y-86027371D01*
X109354957Y-86345578D01*
X109770203Y-86518003D01*
X110219824Y-86518396D01*
X110635371Y-86346696D01*
X110809173Y-86173196D01*
X112010409Y-86173196D01*
X112106841Y-86304862D01*
X112496467Y-86429917D01*
X112904290Y-86396348D01*
X113125159Y-86304862D01*
X113221591Y-86173196D01*
X112616000Y-85567605D01*
X112010409Y-86173196D01*
X110809173Y-86173196D01*
X110953578Y-86029043D01*
X111126003Y-85613797D01*
X111126304Y-85268467D01*
X111574083Y-85268467D01*
X111607652Y-85676290D01*
X111699138Y-85897159D01*
X111830804Y-85993591D01*
X112436395Y-85388000D01*
X112795605Y-85388000D01*
X113401196Y-85993591D01*
X113532862Y-85897159D01*
X113624443Y-85611824D01*
X116485604Y-85611824D01*
X116657304Y-86027371D01*
X116974957Y-86345578D01*
X117390203Y-86518003D01*
X117839824Y-86518396D01*
X117921120Y-86484805D01*
X119765691Y-86484805D01*
X119861431Y-86716513D01*
X120038554Y-86893946D01*
X120270096Y-86990090D01*
X120520805Y-86990309D01*
X120752513Y-86894569D01*
X120929946Y-86717446D01*
X121026090Y-86485904D01*
X121026090Y-86484805D01*
X121035691Y-86484805D01*
X121131431Y-86716513D01*
X121308554Y-86893946D01*
X121540096Y-86990090D01*
X121790805Y-86990309D01*
X122022513Y-86894569D01*
X122199946Y-86717446D01*
X122296090Y-86485904D01*
X122296090Y-86484805D01*
X122559691Y-86484805D01*
X122655431Y-86716513D01*
X122832554Y-86893946D01*
X123064096Y-86990090D01*
X123314805Y-86990309D01*
X123546513Y-86894569D01*
X123723946Y-86717446D01*
X123820090Y-86485904D01*
X123820090Y-86484805D01*
X123829691Y-86484805D01*
X123925431Y-86716513D01*
X124102554Y-86893946D01*
X124334096Y-86990090D01*
X124584805Y-86990309D01*
X124816513Y-86894569D01*
X124993946Y-86717446D01*
X125090090Y-86485904D01*
X125090090Y-86484805D01*
X125099691Y-86484805D01*
X125195431Y-86716513D01*
X125372554Y-86893946D01*
X125604096Y-86990090D01*
X125854805Y-86990309D01*
X126086513Y-86894569D01*
X126263946Y-86717446D01*
X126360090Y-86485904D01*
X126360309Y-86235195D01*
X126264569Y-86003487D01*
X126087446Y-85826054D01*
X125855904Y-85729910D01*
X125605195Y-85729691D01*
X125373487Y-85825431D01*
X125196054Y-86002554D01*
X125099910Y-86234096D01*
X125099691Y-86484805D01*
X125090090Y-86484805D01*
X125090309Y-86235195D01*
X124994569Y-86003487D01*
X124817446Y-85826054D01*
X124585904Y-85729910D01*
X124335195Y-85729691D01*
X124103487Y-85825431D01*
X123926054Y-86002554D01*
X123829910Y-86234096D01*
X123829691Y-86484805D01*
X123820090Y-86484805D01*
X123820309Y-86235195D01*
X123724569Y-86003487D01*
X123547446Y-85826054D01*
X123315904Y-85729910D01*
X123065195Y-85729691D01*
X122833487Y-85825431D01*
X122656054Y-86002554D01*
X122559910Y-86234096D01*
X122559691Y-86484805D01*
X122296090Y-86484805D01*
X122296309Y-86235195D01*
X122200569Y-86003487D01*
X122023446Y-85826054D01*
X121791904Y-85729910D01*
X121541195Y-85729691D01*
X121309487Y-85825431D01*
X121132054Y-86002554D01*
X121035910Y-86234096D01*
X121035691Y-86484805D01*
X121026090Y-86484805D01*
X121026309Y-86235195D01*
X120930569Y-86003487D01*
X120753446Y-85826054D01*
X120521904Y-85729910D01*
X120271195Y-85729691D01*
X120039487Y-85825431D01*
X119862054Y-86002554D01*
X119765910Y-86234096D01*
X119765691Y-86484805D01*
X117921120Y-86484805D01*
X118255371Y-86346696D01*
X118573578Y-86029043D01*
X118746003Y-85613797D01*
X118746396Y-85164176D01*
X118641918Y-84911320D01*
X119803088Y-83750150D01*
X128715400Y-83750150D01*
X128715400Y-84461472D01*
X128750203Y-84545492D01*
X128814509Y-84609798D01*
X128898529Y-84644600D01*
X129609850Y-84644600D01*
X129667000Y-84587450D01*
X129667000Y-83693000D01*
X129921000Y-83693000D01*
X129921000Y-84587450D01*
X129978150Y-84644600D01*
X130689471Y-84644600D01*
X130773491Y-84609798D01*
X130837797Y-84545492D01*
X130872600Y-84461472D01*
X130872600Y-83750150D01*
X130815450Y-83693000D01*
X129921000Y-83693000D01*
X129667000Y-83693000D01*
X128772550Y-83693000D01*
X128715400Y-83750150D01*
X119803088Y-83750150D01*
X120500038Y-83053200D01*
X120860331Y-83053200D01*
X120860331Y-83273000D01*
X120883356Y-83395365D01*
X120955673Y-83507749D01*
X121066017Y-83583144D01*
X121197000Y-83609669D01*
X122897000Y-83609669D01*
X123019365Y-83586644D01*
X123131749Y-83514327D01*
X123207144Y-83403983D01*
X123233669Y-83273000D01*
X123233669Y-81573000D01*
X123210644Y-81450635D01*
X123138327Y-81338251D01*
X123027983Y-81262856D01*
X122897000Y-81236331D01*
X121197000Y-81236331D01*
X121074635Y-81259356D01*
X120962251Y-81331673D01*
X120886856Y-81442017D01*
X120860331Y-81573000D01*
X120860331Y-81792800D01*
X120500038Y-81792800D01*
X119741022Y-81033784D01*
X119784342Y-80816000D01*
X119698311Y-80383491D01*
X119453314Y-80016828D01*
X119086651Y-79771831D01*
X118654142Y-79685800D01*
X118609858Y-79685800D01*
X118177349Y-79771831D01*
X117810686Y-80016828D01*
X117565689Y-80383491D01*
X117479658Y-80816000D01*
X117565689Y-81248509D01*
X117810686Y-81615172D01*
X118177349Y-81860169D01*
X118609858Y-81946200D01*
X118654142Y-81946200D01*
X118834989Y-81910227D01*
X119347762Y-82423000D01*
X117513052Y-84257710D01*
X117392176Y-84257604D01*
X116976629Y-84429304D01*
X116658422Y-84746957D01*
X116485997Y-85162203D01*
X116485604Y-85611824D01*
X113624443Y-85611824D01*
X113657917Y-85507533D01*
X113624348Y-85099710D01*
X113532862Y-84878841D01*
X113401196Y-84782409D01*
X112795605Y-85388000D01*
X112436395Y-85388000D01*
X111830804Y-84782409D01*
X111699138Y-84878841D01*
X111574083Y-85268467D01*
X111126304Y-85268467D01*
X111126396Y-85164176D01*
X110954696Y-84748629D01*
X110809125Y-84602804D01*
X112010409Y-84602804D01*
X112616000Y-85208395D01*
X113221591Y-84602804D01*
X113125159Y-84471138D01*
X112735533Y-84346083D01*
X112327710Y-84379652D01*
X112106841Y-84471138D01*
X112010409Y-84602804D01*
X110809125Y-84602804D01*
X110637043Y-84430422D01*
X110221797Y-84257997D01*
X109772176Y-84257604D01*
X109761325Y-84262088D01*
X109102200Y-83602962D01*
X109102200Y-81778485D01*
X109111371Y-81774696D01*
X109429578Y-81457043D01*
X109602003Y-81041797D01*
X109602396Y-80592176D01*
X109430696Y-80176629D01*
X109113043Y-79858422D01*
X108697797Y-79685997D01*
X108248176Y-79685604D01*
X107832629Y-79857304D01*
X107514422Y-80174957D01*
X107509920Y-80185800D01*
X106866218Y-80185800D01*
X106753314Y-80016828D01*
X106386651Y-79771831D01*
X105954142Y-79685800D01*
X105909858Y-79685800D01*
X105477349Y-79771831D01*
X105110686Y-80016828D01*
X104865689Y-80383491D01*
X104779658Y-80816000D01*
X100669237Y-80816000D01*
X101410616Y-80074621D01*
X101410619Y-80074619D01*
X101503496Y-79935619D01*
X101547229Y-79870168D01*
X101595200Y-79629000D01*
X101595200Y-79033000D01*
X120860331Y-79033000D01*
X120860331Y-80733000D01*
X120883356Y-80855365D01*
X120955673Y-80967749D01*
X121066017Y-81043144D01*
X121197000Y-81069669D01*
X122897000Y-81069669D01*
X123019365Y-81046644D01*
X123131749Y-80974327D01*
X123207144Y-80863983D01*
X123233669Y-80733000D01*
X123233669Y-80120200D01*
X124591800Y-80120200D01*
X124591800Y-81487398D01*
X124487251Y-81554673D01*
X124411856Y-81665017D01*
X124385331Y-81796000D01*
X124385331Y-82796000D01*
X124408356Y-82918365D01*
X124480673Y-83030749D01*
X124591017Y-83106144D01*
X124722000Y-83132669D01*
X125722000Y-83132669D01*
X125844365Y-83109644D01*
X125956749Y-83037327D01*
X126032144Y-82926983D01*
X126058669Y-82796000D01*
X126058669Y-82670528D01*
X128715400Y-82670528D01*
X128715400Y-83381850D01*
X128772550Y-83439000D01*
X129667000Y-83439000D01*
X129667000Y-82544550D01*
X129921000Y-82544550D01*
X129921000Y-83439000D01*
X130815450Y-83439000D01*
X130872600Y-83381850D01*
X130872600Y-82670528D01*
X130837797Y-82586508D01*
X130773491Y-82522202D01*
X130689471Y-82487400D01*
X129978150Y-82487400D01*
X129921000Y-82544550D01*
X129667000Y-82544550D01*
X129609850Y-82487400D01*
X128898529Y-82487400D01*
X128814509Y-82522202D01*
X128750203Y-82586508D01*
X128715400Y-82670528D01*
X126058669Y-82670528D01*
X126058669Y-81796000D01*
X126035644Y-81673635D01*
X125963327Y-81561251D01*
X125852983Y-81485856D01*
X125852200Y-81485697D01*
X125852200Y-80619150D01*
X127357400Y-80619150D01*
X127357400Y-80860471D01*
X127392202Y-80944491D01*
X127456508Y-81008797D01*
X127540528Y-81043600D01*
X128101850Y-81043600D01*
X128159000Y-80986450D01*
X128159000Y-80562000D01*
X128413000Y-80562000D01*
X128413000Y-80986450D01*
X128470150Y-81043600D01*
X129031472Y-81043600D01*
X129115492Y-81008797D01*
X129179798Y-80944491D01*
X129214600Y-80860471D01*
X129214600Y-80619150D01*
X129157450Y-80562000D01*
X128413000Y-80562000D01*
X128159000Y-80562000D01*
X127414550Y-80562000D01*
X127357400Y-80619150D01*
X125852200Y-80619150D01*
X125852200Y-80101396D01*
X125907144Y-80020983D01*
X125909463Y-80009529D01*
X127357400Y-80009529D01*
X127357400Y-80250850D01*
X127414550Y-80308000D01*
X128159000Y-80308000D01*
X128159000Y-79883550D01*
X128413000Y-79883550D01*
X128413000Y-80308000D01*
X129157450Y-80308000D01*
X129214600Y-80250850D01*
X129214600Y-80009529D01*
X129179798Y-79925509D01*
X129115492Y-79861203D01*
X129031472Y-79826400D01*
X128470150Y-79826400D01*
X128413000Y-79883550D01*
X128159000Y-79883550D01*
X128101850Y-79826400D01*
X127540528Y-79826400D01*
X127456508Y-79861203D01*
X127392202Y-79925509D01*
X127357400Y-80009529D01*
X125909463Y-80009529D01*
X125933669Y-79890000D01*
X125933669Y-79090000D01*
X125910644Y-78967635D01*
X125838327Y-78855251D01*
X125727983Y-78779856D01*
X125597000Y-78753331D01*
X124847000Y-78753331D01*
X124724635Y-78776356D01*
X124612251Y-78848673D01*
X124604648Y-78859800D01*
X123177933Y-78859800D01*
X123138327Y-78798251D01*
X123027983Y-78722856D01*
X122897000Y-78696331D01*
X121197000Y-78696331D01*
X121074635Y-78719356D01*
X120962251Y-78791673D01*
X120886856Y-78902017D01*
X120860331Y-79033000D01*
X101595200Y-79033000D01*
X101595200Y-78356805D01*
X102747691Y-78356805D01*
X102843431Y-78588513D01*
X103020554Y-78765946D01*
X103252096Y-78862090D01*
X103502805Y-78862309D01*
X103734513Y-78766569D01*
X103911946Y-78589446D01*
X104008090Y-78357904D01*
X104008090Y-78356805D01*
X104017691Y-78356805D01*
X104113431Y-78588513D01*
X104290554Y-78765946D01*
X104522096Y-78862090D01*
X104772805Y-78862309D01*
X105004513Y-78766569D01*
X105181946Y-78589446D01*
X105278090Y-78357904D01*
X105278309Y-78107195D01*
X105182569Y-77875487D01*
X105005446Y-77698054D01*
X104773904Y-77601910D01*
X104523195Y-77601691D01*
X104291487Y-77697431D01*
X104114054Y-77874554D01*
X104017910Y-78106096D01*
X104017691Y-78356805D01*
X104008090Y-78356805D01*
X104008309Y-78107195D01*
X103912569Y-77875487D01*
X103735446Y-77698054D01*
X103503904Y-77601910D01*
X103253195Y-77601691D01*
X103021487Y-77697431D01*
X102844054Y-77874554D01*
X102747910Y-78106096D01*
X102747691Y-78356805D01*
X101595200Y-78356805D01*
X101595200Y-77513669D01*
X101815000Y-77513669D01*
X101937365Y-77490644D01*
X102049749Y-77418327D01*
X102125144Y-77307983D01*
X102151669Y-77177000D01*
X102151669Y-77086805D01*
X102747691Y-77086805D01*
X102843431Y-77318513D01*
X103020554Y-77495946D01*
X103252096Y-77592090D01*
X103502805Y-77592309D01*
X103734513Y-77496569D01*
X103911946Y-77319446D01*
X104008090Y-77087904D01*
X104008090Y-77086805D01*
X104017691Y-77086805D01*
X104113431Y-77318513D01*
X104290554Y-77495946D01*
X104522096Y-77592090D01*
X104772805Y-77592309D01*
X105004513Y-77496569D01*
X105181946Y-77319446D01*
X105258887Y-77134150D01*
X105568400Y-77134150D01*
X105568400Y-77395471D01*
X105603202Y-77479491D01*
X105667508Y-77543797D01*
X105751528Y-77578600D01*
X105987850Y-77578600D01*
X106045000Y-77521450D01*
X106045000Y-77077000D01*
X106299000Y-77077000D01*
X106299000Y-77521450D01*
X106356150Y-77578600D01*
X106592472Y-77578600D01*
X106676492Y-77543797D01*
X106740798Y-77479491D01*
X106775600Y-77395471D01*
X106775600Y-77134150D01*
X106718450Y-77077000D01*
X106299000Y-77077000D01*
X106045000Y-77077000D01*
X105625550Y-77077000D01*
X105568400Y-77134150D01*
X105258887Y-77134150D01*
X105278090Y-77087904D01*
X105278309Y-76837195D01*
X105182569Y-76605487D01*
X105081788Y-76504529D01*
X105568400Y-76504529D01*
X105568400Y-76765850D01*
X105625550Y-76823000D01*
X106045000Y-76823000D01*
X106045000Y-76378550D01*
X106299000Y-76378550D01*
X106299000Y-76823000D01*
X106718450Y-76823000D01*
X106775600Y-76765850D01*
X106775600Y-76504529D01*
X106740798Y-76420509D01*
X106676492Y-76356203D01*
X106592472Y-76321400D01*
X106356150Y-76321400D01*
X106299000Y-76378550D01*
X106045000Y-76378550D01*
X105987850Y-76321400D01*
X105751528Y-76321400D01*
X105667508Y-76356203D01*
X105603202Y-76420509D01*
X105568400Y-76504529D01*
X105081788Y-76504529D01*
X105005446Y-76428054D01*
X104773904Y-76331910D01*
X104523195Y-76331691D01*
X104291487Y-76427431D01*
X104114054Y-76604554D01*
X104017910Y-76836096D01*
X104017691Y-77086805D01*
X104008090Y-77086805D01*
X104008309Y-76837195D01*
X103912569Y-76605487D01*
X103735446Y-76428054D01*
X103503904Y-76331910D01*
X103253195Y-76331691D01*
X103021487Y-76427431D01*
X102844054Y-76604554D01*
X102747910Y-76836096D01*
X102747691Y-77086805D01*
X102151669Y-77086805D01*
X102151669Y-75816805D01*
X102747691Y-75816805D01*
X102843431Y-76048513D01*
X103020554Y-76225946D01*
X103252096Y-76322090D01*
X103502805Y-76322309D01*
X103734513Y-76226569D01*
X103911946Y-76049446D01*
X104008090Y-75817904D01*
X104008090Y-75816805D01*
X104017691Y-75816805D01*
X104113431Y-76048513D01*
X104290554Y-76225946D01*
X104522096Y-76322090D01*
X104772805Y-76322309D01*
X105004513Y-76226569D01*
X105181946Y-76049446D01*
X105278090Y-75817904D01*
X105278309Y-75567195D01*
X105182569Y-75335487D01*
X105005446Y-75158054D01*
X104773904Y-75061910D01*
X104523195Y-75061691D01*
X104291487Y-75157431D01*
X104114054Y-75334554D01*
X104017910Y-75566096D01*
X104017691Y-75816805D01*
X104008090Y-75816805D01*
X104008309Y-75567195D01*
X103912569Y-75335487D01*
X103735446Y-75158054D01*
X103503904Y-75061910D01*
X103253195Y-75061691D01*
X103021487Y-75157431D01*
X102844054Y-75334554D01*
X102747910Y-75566096D01*
X102747691Y-75816805D01*
X102151669Y-75816805D01*
X102151669Y-75477000D01*
X102128644Y-75354635D01*
X102056327Y-75242251D01*
X101945983Y-75166856D01*
X101815000Y-75140331D01*
X100115000Y-75140331D01*
X99992635Y-75163356D01*
X99880251Y-75235673D01*
X99804856Y-75346017D01*
X99778331Y-75477000D01*
X99778331Y-77177000D01*
X99801356Y-77299365D01*
X99873673Y-77411749D01*
X99984017Y-77487144D01*
X100115000Y-77513669D01*
X100334800Y-77513669D01*
X100334800Y-79367963D01*
X99516962Y-80185800D01*
X96734485Y-80185800D01*
X96730696Y-80176629D01*
X96432787Y-79878200D01*
X97790000Y-79878200D01*
X98031167Y-79830229D01*
X98235619Y-79693619D01*
X99251619Y-78677619D01*
X99388229Y-78473167D01*
X99436200Y-78232000D01*
X99436200Y-75405063D01*
X99868849Y-74864252D01*
X99873673Y-74871749D01*
X99984017Y-74947144D01*
X100115000Y-74973669D01*
X101815000Y-74973669D01*
X101937365Y-74950644D01*
X102049749Y-74878327D01*
X102125144Y-74767983D01*
X102151669Y-74637000D01*
X102151669Y-72937000D01*
X102128644Y-72814635D01*
X102056327Y-72702251D01*
X101945983Y-72626856D01*
X101815000Y-72600331D01*
X100115000Y-72600331D01*
X99992635Y-72623356D01*
X99880251Y-72695673D01*
X99804856Y-72806017D01*
X99778331Y-72937000D01*
X99778331Y-73190748D01*
X99707833Y-73204771D01*
X99503381Y-73341381D01*
X99376381Y-73468381D01*
X99356824Y-73497650D01*
X99329897Y-73520317D01*
X98313896Y-74790317D01*
X98273057Y-74869072D01*
X98223771Y-74942833D01*
X98216904Y-74977356D01*
X98200700Y-75008604D01*
X98193107Y-75096992D01*
X98175800Y-75184000D01*
X98175800Y-77970962D01*
X97528962Y-78617800D01*
X96393000Y-78617800D01*
X96393000Y-77168150D01*
X96437400Y-77168150D01*
X96437400Y-77629471D01*
X96472202Y-77713491D01*
X96536508Y-77777797D01*
X96620528Y-77812600D01*
X97081850Y-77812600D01*
X97139000Y-77755450D01*
X97139000Y-77111000D01*
X97393000Y-77111000D01*
X97393000Y-77755450D01*
X97450150Y-77812600D01*
X97911472Y-77812600D01*
X97995492Y-77777797D01*
X98059798Y-77713491D01*
X98094600Y-77629471D01*
X98094600Y-77168150D01*
X98037450Y-77111000D01*
X97393000Y-77111000D01*
X97139000Y-77111000D01*
X96494550Y-77111000D01*
X96437400Y-77168150D01*
X96393000Y-77168150D01*
X96393000Y-76338529D01*
X96437400Y-76338529D01*
X96437400Y-76799850D01*
X96494550Y-76857000D01*
X97139000Y-76857000D01*
X97139000Y-76212550D01*
X97393000Y-76212550D01*
X97393000Y-76857000D01*
X98037450Y-76857000D01*
X98094600Y-76799850D01*
X98094600Y-76338529D01*
X98059798Y-76254509D01*
X97995492Y-76190203D01*
X97911472Y-76155400D01*
X97450150Y-76155400D01*
X97393000Y-76212550D01*
X97139000Y-76212550D01*
X97081850Y-76155400D01*
X96620528Y-76155400D01*
X96536508Y-76190203D01*
X96472202Y-76254509D01*
X96437400Y-76338529D01*
X96393000Y-76338529D01*
X96393000Y-74820669D01*
X97066000Y-74820669D01*
X97188365Y-74797644D01*
X97300749Y-74725327D01*
X97376144Y-74614983D01*
X97402669Y-74484000D01*
X97402669Y-72984000D01*
X97379644Y-72861635D01*
X97307327Y-72749251D01*
X97196983Y-72673856D01*
X97066000Y-72647331D01*
X96846200Y-72647331D01*
X96846200Y-71640000D01*
X96840669Y-71612194D01*
X96840669Y-71178000D01*
X96817644Y-71055635D01*
X96745327Y-70943251D01*
X96634983Y-70867856D01*
X96504000Y-70841331D01*
X96393000Y-70841331D01*
X96393000Y-70686669D01*
X97274000Y-70686669D01*
X97396365Y-70663644D01*
X97508749Y-70591327D01*
X97584144Y-70480983D01*
X97601151Y-70397000D01*
X99778331Y-70397000D01*
X99778331Y-72097000D01*
X99801356Y-72219365D01*
X99873673Y-72331749D01*
X99984017Y-72407144D01*
X100115000Y-72433669D01*
X101815000Y-72433669D01*
X101937365Y-72410644D01*
X102049749Y-72338327D01*
X102125144Y-72227983D01*
X102151669Y-72097000D01*
X102151669Y-72054907D01*
X105460331Y-75363569D01*
X105460331Y-75850000D01*
X105483356Y-75972365D01*
X105555673Y-76084749D01*
X105666017Y-76160144D01*
X105797000Y-76186669D01*
X106547000Y-76186669D01*
X106669365Y-76163644D01*
X106781749Y-76091327D01*
X106789352Y-76080200D01*
X109316074Y-76080200D01*
X109361654Y-76190513D01*
X109735519Y-76565031D01*
X110224246Y-76767968D01*
X110753432Y-76768430D01*
X111242513Y-76566346D01*
X111617031Y-76192481D01*
X111819968Y-75703754D01*
X111820200Y-75438000D01*
X114213740Y-75438000D01*
X114314995Y-75947046D01*
X114603347Y-76378593D01*
X115034894Y-76666945D01*
X115543940Y-76768200D01*
X115596060Y-76768200D01*
X116105106Y-76666945D01*
X116536653Y-76378593D01*
X116629926Y-76239000D01*
X120860331Y-76239000D01*
X120860331Y-77939000D01*
X120883356Y-78061365D01*
X120955673Y-78173749D01*
X121066017Y-78249144D01*
X121197000Y-78275669D01*
X122897000Y-78275669D01*
X123019365Y-78252644D01*
X123131749Y-78180327D01*
X123207144Y-78069983D01*
X123233669Y-77939000D01*
X123233669Y-77590000D01*
X124510331Y-77590000D01*
X124510331Y-78390000D01*
X124533356Y-78512365D01*
X124605673Y-78624749D01*
X124716017Y-78700144D01*
X124847000Y-78726669D01*
X125597000Y-78726669D01*
X125719365Y-78703644D01*
X125831749Y-78631327D01*
X125904263Y-78525200D01*
X127367286Y-78525200D01*
X127455017Y-78585144D01*
X127586000Y-78611669D01*
X128986000Y-78611669D01*
X129108365Y-78588644D01*
X129220749Y-78516327D01*
X129296144Y-78405983D01*
X129322669Y-78275000D01*
X129322669Y-77749569D01*
X129557238Y-77515000D01*
X130674331Y-77515000D01*
X130674331Y-78275000D01*
X130697356Y-78397365D01*
X130769673Y-78509749D01*
X130798433Y-78529400D01*
X130776251Y-78543673D01*
X130700856Y-78654017D01*
X130674331Y-78785000D01*
X130674331Y-79545000D01*
X130697356Y-79667365D01*
X130769673Y-79779749D01*
X130798433Y-79799400D01*
X130776251Y-79813673D01*
X130700856Y-79924017D01*
X130674331Y-80055000D01*
X130674331Y-80815000D01*
X130697356Y-80937365D01*
X130769673Y-81049749D01*
X130880017Y-81125144D01*
X131011000Y-81151669D01*
X131080800Y-81151669D01*
X131080800Y-82535338D01*
X131046856Y-82585017D01*
X131020331Y-82716000D01*
X131020331Y-84416000D01*
X131043356Y-84538365D01*
X131115673Y-84650749D01*
X131226017Y-84726144D01*
X131357000Y-84752669D01*
X133057000Y-84752669D01*
X133179365Y-84729644D01*
X133291749Y-84657327D01*
X133367144Y-84546983D01*
X133393669Y-84416000D01*
X133393669Y-82716000D01*
X133370644Y-82593635D01*
X133298327Y-82481251D01*
X133187983Y-82405856D01*
X133057000Y-82379331D01*
X132341200Y-82379331D01*
X132341200Y-81151669D01*
X132411000Y-81151669D01*
X132533365Y-81128644D01*
X132631960Y-81065200D01*
X137625664Y-81065200D01*
X137625526Y-81222942D01*
X137865590Y-81803942D01*
X138309720Y-82248847D01*
X138890300Y-82489925D01*
X139518942Y-82490474D01*
X140099942Y-82250410D01*
X140544847Y-81806280D01*
X140785925Y-81225700D01*
X140786474Y-80597058D01*
X140546410Y-80016058D01*
X140102280Y-79571153D01*
X139521700Y-79330075D01*
X138893058Y-79329526D01*
X138312058Y-79569590D01*
X138076438Y-79804800D01*
X132629714Y-79804800D01*
X132623567Y-79800600D01*
X132631960Y-79795200D01*
X135951000Y-79795200D01*
X136192167Y-79747229D01*
X136396619Y-79610619D01*
X138626749Y-77380489D01*
X138890300Y-77489925D01*
X139518942Y-77490474D01*
X140099942Y-77250410D01*
X140544847Y-76806280D01*
X140785925Y-76225700D01*
X140786474Y-75597058D01*
X140546410Y-75016058D01*
X140102280Y-74571153D01*
X139521700Y-74330075D01*
X138893058Y-74329526D01*
X138312058Y-74569590D01*
X137867153Y-75013720D01*
X137626075Y-75594300D01*
X137625526Y-76222942D01*
X137735547Y-76489215D01*
X135689962Y-78534800D01*
X132629714Y-78534800D01*
X132623567Y-78530600D01*
X132645749Y-78516327D01*
X132721144Y-78405983D01*
X132747669Y-78275000D01*
X132747669Y-77749569D01*
X132779619Y-77717619D01*
X132916229Y-77513167D01*
X132964200Y-77272000D01*
X132964200Y-76116669D01*
X133184000Y-76116669D01*
X133306365Y-76093644D01*
X133418749Y-76021327D01*
X133494144Y-75910983D01*
X133520669Y-75780000D01*
X133520669Y-74634569D01*
X136615037Y-71540200D01*
X137619331Y-71540200D01*
X137619331Y-72160000D01*
X137642356Y-72282365D01*
X137714673Y-72394749D01*
X137825017Y-72470144D01*
X137956000Y-72496669D01*
X140456000Y-72496669D01*
X140578365Y-72473644D01*
X140690749Y-72401327D01*
X140766144Y-72290983D01*
X140792669Y-72160000D01*
X140792669Y-69660000D01*
X140769644Y-69537635D01*
X140697327Y-69425251D01*
X140586983Y-69349856D01*
X140456000Y-69323331D01*
X137956000Y-69323331D01*
X137833635Y-69346356D01*
X137721251Y-69418673D01*
X137645856Y-69529017D01*
X137619331Y-69660000D01*
X137619331Y-70279800D01*
X136354005Y-70279800D01*
X136354000Y-70279799D01*
X136112833Y-70327771D01*
X135908381Y-70464381D01*
X135908379Y-70464384D01*
X132629431Y-73743331D01*
X131484000Y-73743331D01*
X131361635Y-73766356D01*
X131249251Y-73838673D01*
X131173856Y-73949017D01*
X131147331Y-74080000D01*
X131147331Y-75780000D01*
X131170356Y-75902365D01*
X131242673Y-76014749D01*
X131353017Y-76090144D01*
X131484000Y-76116669D01*
X131703800Y-76116669D01*
X131703800Y-77010962D01*
X131536431Y-77178331D01*
X131011000Y-77178331D01*
X130888635Y-77201356D01*
X130776251Y-77273673D01*
X130700856Y-77384017D01*
X130674331Y-77515000D01*
X129557238Y-77515000D01*
X130239619Y-76832619D01*
X130376229Y-76628167D01*
X130424200Y-76387000D01*
X130424200Y-76116669D01*
X130644000Y-76116669D01*
X130766365Y-76093644D01*
X130878749Y-76021327D01*
X130954144Y-75910983D01*
X130980669Y-75780000D01*
X130980669Y-74080000D01*
X130957644Y-73957635D01*
X130885327Y-73845251D01*
X130774983Y-73769856D01*
X130644000Y-73743331D01*
X130424200Y-73743331D01*
X130424200Y-71674602D01*
X130528749Y-71607327D01*
X130604144Y-71496983D01*
X130630669Y-71366000D01*
X130630669Y-70366000D01*
X130607644Y-70243635D01*
X130535327Y-70131251D01*
X130424983Y-70055856D01*
X130294000Y-70029331D01*
X129294000Y-70029331D01*
X129171635Y-70052356D01*
X129059251Y-70124673D01*
X128983856Y-70235017D01*
X128957331Y-70366000D01*
X128957331Y-71366000D01*
X128980356Y-71488365D01*
X129052673Y-71600749D01*
X129163017Y-71676144D01*
X129163800Y-71676303D01*
X129163800Y-73743331D01*
X128944000Y-73743331D01*
X128821635Y-73766356D01*
X128709251Y-73838673D01*
X128633856Y-73949017D01*
X128607331Y-74080000D01*
X128607331Y-75780000D01*
X128630356Y-75902365D01*
X128702673Y-76014749D01*
X128813017Y-76090144D01*
X128944000Y-76116669D01*
X129163800Y-76116669D01*
X129163800Y-76125962D01*
X128111431Y-77178331D01*
X127586000Y-77178331D01*
X127463635Y-77201356D01*
X127365040Y-77264800D01*
X125653635Y-77264800D01*
X125597000Y-77253331D01*
X124847000Y-77253331D01*
X124724635Y-77276356D01*
X124612251Y-77348673D01*
X124536856Y-77459017D01*
X124510331Y-77590000D01*
X123233669Y-77590000D01*
X123233669Y-76793569D01*
X123971037Y-76056200D01*
X126380746Y-76056200D01*
X126383673Y-76060749D01*
X126494017Y-76136144D01*
X126625000Y-76162669D01*
X127375000Y-76162669D01*
X127497365Y-76139644D01*
X127609749Y-76067327D01*
X127685144Y-75956983D01*
X127711669Y-75826000D01*
X127711669Y-75026000D01*
X127688644Y-74903635D01*
X127616327Y-74791251D01*
X127505983Y-74715856D01*
X127375000Y-74689331D01*
X126625000Y-74689331D01*
X126502635Y-74712356D01*
X126390251Y-74784673D01*
X126382648Y-74795800D01*
X124328200Y-74795800D01*
X124328200Y-74110150D01*
X126396400Y-74110150D01*
X126396400Y-74371471D01*
X126431202Y-74455491D01*
X126495508Y-74519797D01*
X126579528Y-74554600D01*
X126815850Y-74554600D01*
X126873000Y-74497450D01*
X126873000Y-74053000D01*
X127127000Y-74053000D01*
X127127000Y-74497450D01*
X127184150Y-74554600D01*
X127420472Y-74554600D01*
X127504492Y-74519797D01*
X127568798Y-74455491D01*
X127603600Y-74371471D01*
X127603600Y-74110150D01*
X127546450Y-74053000D01*
X127127000Y-74053000D01*
X126873000Y-74053000D01*
X126453550Y-74053000D01*
X126396400Y-74110150D01*
X124328200Y-74110150D01*
X124328200Y-73480529D01*
X126396400Y-73480529D01*
X126396400Y-73741850D01*
X126453550Y-73799000D01*
X126873000Y-73799000D01*
X126873000Y-73354550D01*
X127127000Y-73354550D01*
X127127000Y-73799000D01*
X127546450Y-73799000D01*
X127603600Y-73741850D01*
X127603600Y-73480529D01*
X127568798Y-73396509D01*
X127504492Y-73332203D01*
X127420472Y-73297400D01*
X127184150Y-73297400D01*
X127127000Y-73354550D01*
X126873000Y-73354550D01*
X126815850Y-73297400D01*
X126579528Y-73297400D01*
X126495508Y-73332203D01*
X126431202Y-73396509D01*
X126396400Y-73480529D01*
X124328200Y-73480529D01*
X124328200Y-72397038D01*
X124343543Y-72381695D01*
X124687940Y-72450200D01*
X124740060Y-72450200D01*
X125249106Y-72348945D01*
X125680653Y-72060593D01*
X125969005Y-71629046D01*
X126070260Y-71120000D01*
X125969005Y-70610954D01*
X125680653Y-70179407D01*
X125249106Y-69891055D01*
X124740060Y-69789800D01*
X124687940Y-69789800D01*
X124178894Y-69891055D01*
X123747347Y-70179407D01*
X123458995Y-70610954D01*
X123357740Y-71120000D01*
X123434892Y-71507870D01*
X123252381Y-71690381D01*
X123115771Y-71894833D01*
X123067800Y-72136000D01*
X123067800Y-75176963D01*
X122342431Y-75902331D01*
X121197000Y-75902331D01*
X121074635Y-75925356D01*
X120962251Y-75997673D01*
X120886856Y-76108017D01*
X120860331Y-76239000D01*
X116629926Y-76239000D01*
X116825005Y-75947046D01*
X116926260Y-75438000D01*
X116849108Y-75050130D01*
X119449199Y-72450039D01*
X119897432Y-72450430D01*
X120386513Y-72248346D01*
X120761031Y-71874481D01*
X120963968Y-71385754D01*
X120964430Y-70856568D01*
X120762346Y-70367487D01*
X120388481Y-69992969D01*
X119899754Y-69790032D01*
X119370568Y-69789570D01*
X118881487Y-69991654D01*
X118506969Y-70365519D01*
X118304032Y-70854246D01*
X118303570Y-71383432D01*
X118429224Y-71687538D01*
X116200200Y-73916562D01*
X116200200Y-71719396D01*
X116255144Y-71638983D01*
X116281669Y-71508000D01*
X116281669Y-70708000D01*
X116258644Y-70585635D01*
X116186327Y-70473251D01*
X116075983Y-70397856D01*
X115945000Y-70371331D01*
X115195000Y-70371331D01*
X115072635Y-70394356D01*
X114960251Y-70466673D01*
X114884856Y-70577017D01*
X114858331Y-70708000D01*
X114858331Y-71508000D01*
X114881356Y-71630365D01*
X114939800Y-71721190D01*
X114939800Y-74272595D01*
X114603347Y-74497407D01*
X114314995Y-74928954D01*
X114213740Y-75438000D01*
X111820200Y-75438000D01*
X111820430Y-75174568D01*
X111618346Y-74685487D01*
X111244481Y-74310969D01*
X110755754Y-74108032D01*
X110226568Y-74107570D01*
X109737487Y-74309654D01*
X109362969Y-74683519D01*
X109306380Y-74819800D01*
X106791254Y-74819800D01*
X106788327Y-74815251D01*
X106677983Y-74739856D01*
X106604140Y-74724902D01*
X103268282Y-71389044D01*
X103305017Y-71414144D01*
X103436000Y-71440669D01*
X104336000Y-71440669D01*
X104370379Y-71434200D01*
X105244027Y-71434200D01*
X105277893Y-71486829D01*
X105388237Y-71562224D01*
X105519220Y-71588749D01*
X106316780Y-71588749D01*
X106439145Y-71565724D01*
X106551529Y-71493407D01*
X106592462Y-71433500D01*
X107200700Y-71433500D01*
X107422733Y-71389335D01*
X107610963Y-71263563D01*
X107766057Y-71108469D01*
X107938246Y-71179968D01*
X108467432Y-71180430D01*
X108956513Y-70978346D01*
X109331031Y-70604481D01*
X109515400Y-70160471D01*
X109515400Y-70895471D01*
X109550202Y-70979491D01*
X109614508Y-71043797D01*
X109698528Y-71078600D01*
X110559850Y-71078600D01*
X110617000Y-71021450D01*
X110617000Y-69977000D01*
X110871000Y-69977000D01*
X110871000Y-71021450D01*
X110928150Y-71078600D01*
X111789472Y-71078600D01*
X111873492Y-71043797D01*
X111937798Y-70979491D01*
X111972600Y-70895471D01*
X111972600Y-70034150D01*
X111915450Y-69977000D01*
X110871000Y-69977000D01*
X110617000Y-69977000D01*
X110597000Y-69977000D01*
X110597000Y-69792150D01*
X114966400Y-69792150D01*
X114966400Y-70053471D01*
X115001202Y-70137491D01*
X115065508Y-70201797D01*
X115149528Y-70236600D01*
X115385850Y-70236600D01*
X115443000Y-70179450D01*
X115443000Y-69735000D01*
X115697000Y-69735000D01*
X115697000Y-70179450D01*
X115754150Y-70236600D01*
X115990472Y-70236600D01*
X116074492Y-70201797D01*
X116138798Y-70137491D01*
X116173600Y-70053471D01*
X116173600Y-69792150D01*
X116116450Y-69735000D01*
X115697000Y-69735000D01*
X115443000Y-69735000D01*
X115023550Y-69735000D01*
X114966400Y-69792150D01*
X110597000Y-69792150D01*
X110597000Y-69723000D01*
X110617000Y-69723000D01*
X110617000Y-68678550D01*
X110871000Y-68678550D01*
X110871000Y-69723000D01*
X111915450Y-69723000D01*
X111972600Y-69665850D01*
X111972600Y-69162529D01*
X114966400Y-69162529D01*
X114966400Y-69423850D01*
X115023550Y-69481000D01*
X115443000Y-69481000D01*
X115443000Y-69036550D01*
X115697000Y-69036550D01*
X115697000Y-69481000D01*
X116116450Y-69481000D01*
X116173600Y-69423850D01*
X116173600Y-69212805D01*
X132465691Y-69212805D01*
X132561431Y-69444513D01*
X132712762Y-69596109D01*
X132562054Y-69746554D01*
X132465910Y-69978096D01*
X132465691Y-70228805D01*
X132561431Y-70460513D01*
X132712762Y-70612109D01*
X132562054Y-70762554D01*
X132465910Y-70994096D01*
X132465691Y-71244805D01*
X132561431Y-71476513D01*
X132738554Y-71653946D01*
X132970096Y-71750090D01*
X133220805Y-71750309D01*
X133452513Y-71654569D01*
X133629946Y-71477446D01*
X133726090Y-71245904D01*
X133726309Y-70995195D01*
X133630569Y-70763487D01*
X133479238Y-70611891D01*
X133629946Y-70461446D01*
X133726090Y-70229904D01*
X133726309Y-69979195D01*
X133630569Y-69747487D01*
X133479238Y-69595891D01*
X133629946Y-69445446D01*
X133726090Y-69213904D01*
X133726309Y-68963195D01*
X133630569Y-68731487D01*
X133453446Y-68554054D01*
X133221904Y-68457910D01*
X132971195Y-68457691D01*
X132739487Y-68553431D01*
X132562054Y-68730554D01*
X132465910Y-68962096D01*
X132465691Y-69212805D01*
X116173600Y-69212805D01*
X116173600Y-69162529D01*
X116138798Y-69078509D01*
X116074492Y-69014203D01*
X115990472Y-68979400D01*
X115754150Y-68979400D01*
X115697000Y-69036550D01*
X115443000Y-69036550D01*
X115385850Y-68979400D01*
X115149528Y-68979400D01*
X115065508Y-69014203D01*
X115001202Y-69078509D01*
X114966400Y-69162529D01*
X111972600Y-69162529D01*
X111972600Y-68804529D01*
X111937798Y-68720509D01*
X111873492Y-68656203D01*
X111789472Y-68621400D01*
X110928150Y-68621400D01*
X110871000Y-68678550D01*
X110617000Y-68678550D01*
X110559850Y-68621400D01*
X109698528Y-68621400D01*
X109614508Y-68656203D01*
X109550202Y-68720509D01*
X109515400Y-68804529D01*
X109515400Y-69540512D01*
X109332346Y-69097487D01*
X108958481Y-68722969D01*
X108469754Y-68520032D01*
X107940568Y-68519570D01*
X107451487Y-68721654D01*
X107076969Y-69095519D01*
X106874032Y-69584246D01*
X106873570Y-70113432D01*
X106939543Y-70273100D01*
X106592423Y-70273100D01*
X106558107Y-70219771D01*
X106447763Y-70144376D01*
X106316780Y-70117851D01*
X105519220Y-70117851D01*
X105396855Y-70140876D01*
X105284471Y-70213193D01*
X105243060Y-70273800D01*
X104367945Y-70273800D01*
X104336000Y-70267331D01*
X103436000Y-70267331D01*
X103313635Y-70290356D01*
X103201251Y-70362673D01*
X103125856Y-70473017D01*
X103099331Y-70604000D01*
X103099331Y-71104000D01*
X103122356Y-71226365D01*
X103152594Y-71273356D01*
X102680619Y-70801381D01*
X102476167Y-70664771D01*
X102235000Y-70616800D01*
X102151669Y-70616800D01*
X102151669Y-70397000D01*
X102128644Y-70274635D01*
X102056327Y-70162251D01*
X101945983Y-70086856D01*
X101815000Y-70060331D01*
X100115000Y-70060331D01*
X99992635Y-70083356D01*
X99880251Y-70155673D01*
X99804856Y-70266017D01*
X99778331Y-70397000D01*
X97601151Y-70397000D01*
X97610669Y-70350000D01*
X97610669Y-69350000D01*
X97587644Y-69227635D01*
X97515327Y-69115251D01*
X97404983Y-69039856D01*
X97274000Y-69013331D01*
X96757857Y-69013331D01*
X96591287Y-68846761D01*
X96650365Y-68835644D01*
X96762749Y-68763327D01*
X96838144Y-68652983D01*
X96864669Y-68522000D01*
X96864669Y-67636200D01*
X97041674Y-67636200D01*
X97191331Y-67785857D01*
X97191331Y-68522000D01*
X97214356Y-68644365D01*
X97286673Y-68756749D01*
X97397017Y-68832144D01*
X97528000Y-68858669D01*
X98728000Y-68858669D01*
X98850365Y-68835644D01*
X98962749Y-68763327D01*
X99038144Y-68652983D01*
X99064669Y-68522000D01*
X99064669Y-67622000D01*
X99041644Y-67499635D01*
X98969327Y-67387251D01*
X98858983Y-67311856D01*
X98728000Y-67285331D01*
X98331858Y-67285331D01*
X97692263Y-66645737D01*
X97550145Y-66550776D01*
X97603193Y-66528806D01*
X97923270Y-66255550D01*
X98114412Y-65880606D01*
X98090316Y-65714611D01*
X97203356Y-65714611D01*
X97203356Y-65734611D01*
X96949356Y-65734611D01*
X96949356Y-65714611D01*
X96929356Y-65714611D01*
X96929356Y-65564490D01*
X98436156Y-65564490D01*
X98436156Y-65610732D01*
X98525993Y-66062375D01*
X98781829Y-66445259D01*
X99164713Y-66701095D01*
X99616356Y-66790932D01*
X100067999Y-66701095D01*
X100450883Y-66445259D01*
X100706719Y-66062375D01*
X100796556Y-65610732D01*
X100796556Y-65564490D01*
X100976156Y-65564490D01*
X100976156Y-65610732D01*
X101065993Y-66062375D01*
X101321829Y-66445259D01*
X101576156Y-66615196D01*
X101576156Y-67624356D01*
X101609389Y-67791431D01*
X101620321Y-67846389D01*
X101746093Y-68034619D01*
X103099331Y-69387857D01*
X103099331Y-69604000D01*
X103122356Y-69726365D01*
X103194673Y-69838749D01*
X103305017Y-69914144D01*
X103436000Y-69940669D01*
X104336000Y-69940669D01*
X104458365Y-69917644D01*
X104570749Y-69845327D01*
X104646144Y-69734983D01*
X104672669Y-69604000D01*
X104672669Y-69538850D01*
X105290620Y-69538850D01*
X105290620Y-69798951D01*
X105325422Y-69882971D01*
X105389728Y-69947277D01*
X105473748Y-69982080D01*
X105733850Y-69982080D01*
X105791000Y-69924930D01*
X105791000Y-69481700D01*
X106045000Y-69481700D01*
X106045000Y-69924930D01*
X106102150Y-69982080D01*
X106362252Y-69982080D01*
X106446272Y-69947277D01*
X106510578Y-69882971D01*
X106545380Y-69798951D01*
X106545380Y-69538850D01*
X106488230Y-69481700D01*
X106045000Y-69481700D01*
X105791000Y-69481700D01*
X105347770Y-69481700D01*
X105290620Y-69538850D01*
X104672669Y-69538850D01*
X104672669Y-69104000D01*
X104649644Y-68981635D01*
X104603838Y-68910449D01*
X105290620Y-68910449D01*
X105290620Y-69170550D01*
X105347770Y-69227700D01*
X105791000Y-69227700D01*
X105791000Y-68784470D01*
X106045000Y-68784470D01*
X106045000Y-69227700D01*
X106488230Y-69227700D01*
X106545380Y-69170550D01*
X106545380Y-68910449D01*
X106510578Y-68826429D01*
X106446272Y-68762123D01*
X106362252Y-68727320D01*
X106102150Y-68727320D01*
X106045000Y-68784470D01*
X105791000Y-68784470D01*
X105733850Y-68727320D01*
X105473748Y-68727320D01*
X105389728Y-68762123D01*
X105325422Y-68826429D01*
X105290620Y-68910449D01*
X104603838Y-68910449D01*
X104577327Y-68869251D01*
X104466983Y-68793856D01*
X104336000Y-68767331D01*
X104119857Y-68767331D01*
X103803331Y-68450805D01*
X127131691Y-68450805D01*
X127227431Y-68682513D01*
X127404554Y-68859946D01*
X127636096Y-68956090D01*
X127886805Y-68956309D01*
X128118513Y-68860569D01*
X128295946Y-68683446D01*
X128392090Y-68451904D01*
X128392090Y-68450805D01*
X128401691Y-68450805D01*
X128497431Y-68682513D01*
X128674554Y-68859946D01*
X128906096Y-68956090D01*
X129156805Y-68956309D01*
X129388513Y-68860569D01*
X129565946Y-68683446D01*
X129662090Y-68451904D01*
X129662090Y-68450805D01*
X129671691Y-68450805D01*
X129767431Y-68682513D01*
X129944554Y-68859946D01*
X130176096Y-68956090D01*
X130426805Y-68956309D01*
X130658513Y-68860569D01*
X130835946Y-68683446D01*
X130932090Y-68451904D01*
X130932090Y-68450805D01*
X130941691Y-68450805D01*
X131037431Y-68682513D01*
X131214554Y-68859946D01*
X131446096Y-68956090D01*
X131696805Y-68956309D01*
X131928513Y-68860569D01*
X132105946Y-68683446D01*
X132202090Y-68451904D01*
X132202309Y-68201195D01*
X132106569Y-67969487D01*
X131929446Y-67792054D01*
X131697904Y-67695910D01*
X131447195Y-67695691D01*
X131215487Y-67791431D01*
X131038054Y-67968554D01*
X130941910Y-68200096D01*
X130941691Y-68450805D01*
X130932090Y-68450805D01*
X130932309Y-68201195D01*
X130836569Y-67969487D01*
X130659446Y-67792054D01*
X130427904Y-67695910D01*
X130177195Y-67695691D01*
X129945487Y-67791431D01*
X129768054Y-67968554D01*
X129671910Y-68200096D01*
X129671691Y-68450805D01*
X129662090Y-68450805D01*
X129662309Y-68201195D01*
X129566569Y-67969487D01*
X129389446Y-67792054D01*
X129157904Y-67695910D01*
X128907195Y-67695691D01*
X128675487Y-67791431D01*
X128498054Y-67968554D01*
X128401910Y-68200096D01*
X128401691Y-68450805D01*
X128392090Y-68450805D01*
X128392309Y-68201195D01*
X128296569Y-67969487D01*
X128119446Y-67792054D01*
X127887904Y-67695910D01*
X127637195Y-67695691D01*
X127405487Y-67791431D01*
X127228054Y-67968554D01*
X127131910Y-68200096D01*
X127131691Y-68450805D01*
X103803331Y-68450805D01*
X102736556Y-67384030D01*
X102736556Y-66615196D01*
X102990883Y-66445259D01*
X103246719Y-66062375D01*
X103336556Y-65610732D01*
X103336556Y-65564490D01*
X103246719Y-65112847D01*
X102995994Y-64737611D01*
X103509687Y-64737611D01*
X103509687Y-66437611D01*
X103532712Y-66559976D01*
X103605029Y-66672360D01*
X103715373Y-66747755D01*
X103846356Y-66774280D01*
X105546356Y-66774280D01*
X105668721Y-66751255D01*
X105781105Y-66678938D01*
X105856500Y-66568594D01*
X105883025Y-66437611D01*
X105883025Y-65564490D01*
X106056156Y-65564490D01*
X106056156Y-65610732D01*
X106145993Y-66062375D01*
X106401829Y-66445259D01*
X106784713Y-66701095D01*
X107236356Y-66790932D01*
X107687999Y-66701095D01*
X108070883Y-66445259D01*
X108326719Y-66062375D01*
X108416556Y-65610732D01*
X108416556Y-65564490D01*
X108596156Y-65564490D01*
X108596156Y-65610732D01*
X108685993Y-66062375D01*
X108941829Y-66445259D01*
X109324713Y-66701095D01*
X109776356Y-66790932D01*
X110227999Y-66701095D01*
X110610883Y-66445259D01*
X110866719Y-66062375D01*
X110956556Y-65610732D01*
X110956556Y-65564490D01*
X111136156Y-65564490D01*
X111136156Y-65610732D01*
X111225993Y-66062375D01*
X111481829Y-66445259D01*
X111864713Y-66701095D01*
X112316356Y-66790932D01*
X112767999Y-66701095D01*
X113150883Y-66445259D01*
X113406719Y-66062375D01*
X113496556Y-65610732D01*
X113496556Y-65564490D01*
X113676156Y-65564490D01*
X113676156Y-65610732D01*
X113765993Y-66062375D01*
X114021829Y-66445259D01*
X114404713Y-66701095D01*
X114856356Y-66790932D01*
X115307999Y-66701095D01*
X115690883Y-66445259D01*
X115946719Y-66062375D01*
X115982874Y-65880606D01*
X116358300Y-65880606D01*
X116549442Y-66255550D01*
X116869519Y-66528806D01*
X117103363Y-66625654D01*
X117269356Y-66601135D01*
X117269356Y-65714611D01*
X117523356Y-65714611D01*
X117523356Y-66601135D01*
X117689349Y-66625654D01*
X117923193Y-66528806D01*
X118243270Y-66255550D01*
X118434412Y-65880606D01*
X118410316Y-65714611D01*
X117523356Y-65714611D01*
X117269356Y-65714611D01*
X116382396Y-65714611D01*
X116358300Y-65880606D01*
X115982874Y-65880606D01*
X116036556Y-65610732D01*
X116036556Y-65564490D01*
X118756156Y-65564490D01*
X118756156Y-65610732D01*
X118845993Y-66062375D01*
X119101829Y-66445259D01*
X119484713Y-66701095D01*
X119936356Y-66790932D01*
X120387999Y-66701095D01*
X120770883Y-66445259D01*
X121026719Y-66062375D01*
X121116556Y-65610732D01*
X121116556Y-65564490D01*
X121296156Y-65564490D01*
X121296156Y-65610732D01*
X121385993Y-66062375D01*
X121641829Y-66445259D01*
X122024713Y-66701095D01*
X122476356Y-66790932D01*
X122927999Y-66701095D01*
X123310883Y-66445259D01*
X123566719Y-66062375D01*
X123656556Y-65610732D01*
X123656556Y-65564490D01*
X123836156Y-65564490D01*
X123836156Y-65610732D01*
X123925993Y-66062375D01*
X124181829Y-66445259D01*
X124564713Y-66701095D01*
X125016356Y-66790932D01*
X125467999Y-66701095D01*
X125850883Y-66445259D01*
X126106719Y-66062375D01*
X126196556Y-65610732D01*
X126196556Y-65564490D01*
X126376156Y-65564490D01*
X126376156Y-65610732D01*
X126465993Y-66062375D01*
X126721829Y-66445259D01*
X127104713Y-66701095D01*
X127556356Y-66790932D01*
X128007999Y-66701095D01*
X128390883Y-66445259D01*
X128646719Y-66062375D01*
X128736556Y-65610732D01*
X128736556Y-65564490D01*
X128916156Y-65564490D01*
X128916156Y-65610732D01*
X129005993Y-66062375D01*
X129261829Y-66445259D01*
X129644713Y-66701095D01*
X130096356Y-66790932D01*
X130547999Y-66701095D01*
X130930883Y-66445259D01*
X131186719Y-66062375D01*
X131276556Y-65610732D01*
X131276556Y-65564490D01*
X131456156Y-65564490D01*
X131456156Y-65610732D01*
X131545993Y-66062375D01*
X131801829Y-66445259D01*
X132184713Y-66701095D01*
X132636356Y-66790932D01*
X133087999Y-66701095D01*
X133470883Y-66445259D01*
X133726719Y-66062375D01*
X133762874Y-65880606D01*
X134138300Y-65880606D01*
X134329442Y-66255550D01*
X134649519Y-66528806D01*
X134883363Y-66625654D01*
X135049356Y-66601135D01*
X135049356Y-65714611D01*
X135303356Y-65714611D01*
X135303356Y-66601135D01*
X135469349Y-66625654D01*
X135703193Y-66528806D01*
X136023270Y-66255550D01*
X136214412Y-65880606D01*
X136190316Y-65714611D01*
X135303356Y-65714611D01*
X135049356Y-65714611D01*
X134162396Y-65714611D01*
X134138300Y-65880606D01*
X133762874Y-65880606D01*
X133816556Y-65610732D01*
X133816556Y-65564490D01*
X133762875Y-65294616D01*
X134138300Y-65294616D01*
X134162396Y-65460611D01*
X135049356Y-65460611D01*
X135049356Y-64574087D01*
X135303356Y-64574087D01*
X135303356Y-65460611D01*
X136190316Y-65460611D01*
X136214412Y-65294616D01*
X136023270Y-64919672D01*
X135703193Y-64646416D01*
X135469349Y-64549568D01*
X135303356Y-64574087D01*
X135049356Y-64574087D01*
X134883363Y-64549568D01*
X134649519Y-64646416D01*
X134329442Y-64919672D01*
X134138300Y-65294616D01*
X133762875Y-65294616D01*
X133726719Y-65112847D01*
X133470883Y-64729963D01*
X133087999Y-64474127D01*
X132636356Y-64384290D01*
X132184713Y-64474127D01*
X131801829Y-64729963D01*
X131545993Y-65112847D01*
X131456156Y-65564490D01*
X131276556Y-65564490D01*
X131186719Y-65112847D01*
X130930883Y-64729963D01*
X130547999Y-64474127D01*
X130096356Y-64384290D01*
X129644713Y-64474127D01*
X129261829Y-64729963D01*
X129005993Y-65112847D01*
X128916156Y-65564490D01*
X128736556Y-65564490D01*
X128646719Y-65112847D01*
X128390883Y-64729963D01*
X128007999Y-64474127D01*
X127556356Y-64384290D01*
X127104713Y-64474127D01*
X126721829Y-64729963D01*
X126465993Y-65112847D01*
X126376156Y-65564490D01*
X126196556Y-65564490D01*
X126106719Y-65112847D01*
X125850883Y-64729963D01*
X125467999Y-64474127D01*
X125016356Y-64384290D01*
X124564713Y-64474127D01*
X124181829Y-64729963D01*
X123925993Y-65112847D01*
X123836156Y-65564490D01*
X123656556Y-65564490D01*
X123566719Y-65112847D01*
X123310883Y-64729963D01*
X122927999Y-64474127D01*
X122476356Y-64384290D01*
X122024713Y-64474127D01*
X121641829Y-64729963D01*
X121385993Y-65112847D01*
X121296156Y-65564490D01*
X121116556Y-65564490D01*
X121026719Y-65112847D01*
X120770883Y-64729963D01*
X120387999Y-64474127D01*
X119936356Y-64384290D01*
X119484713Y-64474127D01*
X119101829Y-64729963D01*
X118845993Y-65112847D01*
X118756156Y-65564490D01*
X116036556Y-65564490D01*
X115982875Y-65294616D01*
X116358300Y-65294616D01*
X116382396Y-65460611D01*
X117269356Y-65460611D01*
X117269356Y-64574087D01*
X117523356Y-64574087D01*
X117523356Y-65460611D01*
X118410316Y-65460611D01*
X118434412Y-65294616D01*
X118243270Y-64919672D01*
X117923193Y-64646416D01*
X117689349Y-64549568D01*
X117523356Y-64574087D01*
X117269356Y-64574087D01*
X117103363Y-64549568D01*
X116869519Y-64646416D01*
X116549442Y-64919672D01*
X116358300Y-65294616D01*
X115982875Y-65294616D01*
X115946719Y-65112847D01*
X115690883Y-64729963D01*
X115307999Y-64474127D01*
X114856356Y-64384290D01*
X114404713Y-64474127D01*
X114021829Y-64729963D01*
X113765993Y-65112847D01*
X113676156Y-65564490D01*
X113496556Y-65564490D01*
X113406719Y-65112847D01*
X113150883Y-64729963D01*
X112767999Y-64474127D01*
X112316356Y-64384290D01*
X111864713Y-64474127D01*
X111481829Y-64729963D01*
X111225993Y-65112847D01*
X111136156Y-65564490D01*
X110956556Y-65564490D01*
X110866719Y-65112847D01*
X110610883Y-64729963D01*
X110227999Y-64474127D01*
X109776356Y-64384290D01*
X109324713Y-64474127D01*
X108941829Y-64729963D01*
X108685993Y-65112847D01*
X108596156Y-65564490D01*
X108416556Y-65564490D01*
X108326719Y-65112847D01*
X108070883Y-64729963D01*
X107687999Y-64474127D01*
X107236356Y-64384290D01*
X106784713Y-64474127D01*
X106401829Y-64729963D01*
X106145993Y-65112847D01*
X106056156Y-65564490D01*
X105883025Y-65564490D01*
X105883025Y-64737611D01*
X105860000Y-64615246D01*
X105787683Y-64502862D01*
X105677339Y-64427467D01*
X105546356Y-64400942D01*
X103846356Y-64400942D01*
X103723991Y-64423967D01*
X103611607Y-64496284D01*
X103536212Y-64606628D01*
X103509687Y-64737611D01*
X102995994Y-64737611D01*
X102990883Y-64729963D01*
X102607999Y-64474127D01*
X102156356Y-64384290D01*
X101704713Y-64474127D01*
X101321829Y-64729963D01*
X101065993Y-65112847D01*
X100976156Y-65564490D01*
X100796556Y-65564490D01*
X100706719Y-65112847D01*
X100450883Y-64729963D01*
X100067999Y-64474127D01*
X99616356Y-64384290D01*
X99164713Y-64474127D01*
X98781829Y-64729963D01*
X98525993Y-65112847D01*
X98436156Y-65564490D01*
X96929356Y-65564490D01*
X96929356Y-65460611D01*
X96949356Y-65460611D01*
X96949356Y-64574087D01*
X97203356Y-64574087D01*
X97203356Y-65460611D01*
X98090316Y-65460611D01*
X98114412Y-65294616D01*
X97923270Y-64919672D01*
X97603193Y-64646416D01*
X97369349Y-64549568D01*
X97203356Y-64574087D01*
X96949356Y-64574087D01*
X96783363Y-64549568D01*
X96549519Y-64646416D01*
X96393000Y-64780039D01*
X96393000Y-64006269D01*
X96624713Y-64161095D01*
X97076356Y-64250932D01*
X97527999Y-64161095D01*
X97910883Y-63905259D01*
X98166719Y-63522375D01*
X98256556Y-63070732D01*
X98256556Y-63024490D01*
X98166719Y-62572847D01*
X97910883Y-62189963D01*
X97766873Y-62093738D01*
X98936645Y-62086517D01*
X98781829Y-62189963D01*
X98525993Y-62572847D01*
X98436156Y-63024490D01*
X98436156Y-63070732D01*
X98525993Y-63522375D01*
X98781829Y-63905259D01*
X99164713Y-64161095D01*
X99616356Y-64250932D01*
X100067999Y-64161095D01*
X100450883Y-63905259D01*
X100706719Y-63522375D01*
X100742874Y-63340606D01*
X101118300Y-63340606D01*
X101309442Y-63715550D01*
X101629519Y-63988806D01*
X101863363Y-64085654D01*
X102029356Y-64061135D01*
X102029356Y-63174611D01*
X102283356Y-63174611D01*
X102283356Y-64061135D01*
X102449349Y-64085654D01*
X102683193Y-63988806D01*
X103003270Y-63715550D01*
X103194412Y-63340606D01*
X103170316Y-63174611D01*
X102283356Y-63174611D01*
X102029356Y-63174611D01*
X101142396Y-63174611D01*
X101118300Y-63340606D01*
X100742874Y-63340606D01*
X100796556Y-63070732D01*
X100796556Y-63024490D01*
X100706719Y-62572847D01*
X100450883Y-62189963D01*
X100283623Y-62078203D01*
X101719035Y-62069342D01*
X101629519Y-62106416D01*
X101309442Y-62379672D01*
X101118300Y-62754616D01*
X101142396Y-62920611D01*
X102029356Y-62920611D01*
X102029356Y-62900611D01*
X102283356Y-62900611D01*
X102283356Y-62920611D01*
X103170316Y-62920611D01*
X103194412Y-62754616D01*
X103003270Y-62379672D01*
X102683193Y-62106416D01*
X102580832Y-62064023D01*
X104064013Y-62054867D01*
X103861829Y-62189963D01*
X103605993Y-62572847D01*
X103516156Y-63024490D01*
X103516156Y-63070732D01*
X103605993Y-63522375D01*
X103861829Y-63905259D01*
X104244713Y-64161095D01*
X104696356Y-64250932D01*
X105147999Y-64161095D01*
X105530883Y-63905259D01*
X105786719Y-63522375D01*
X105876556Y-63070732D01*
X105876556Y-63024490D01*
X105786719Y-62572847D01*
X105530883Y-62189963D01*
X105317122Y-62047132D01*
X106627697Y-62039042D01*
X106401829Y-62189963D01*
X106145993Y-62572847D01*
X106056156Y-63024490D01*
X106056156Y-63070732D01*
X106145993Y-63522375D01*
X106401829Y-63905259D01*
X106784713Y-64161095D01*
X107236356Y-64250932D01*
X107687999Y-64161095D01*
X108070883Y-63905259D01*
X108326719Y-63522375D01*
X108362874Y-63340606D01*
X108738300Y-63340606D01*
X108929442Y-63715550D01*
X109249519Y-63988806D01*
X109483363Y-64085654D01*
X109649356Y-64061135D01*
X109649356Y-63174611D01*
X109903356Y-63174611D01*
X109903356Y-64061135D01*
X110069349Y-64085654D01*
X110303193Y-63988806D01*
X110623270Y-63715550D01*
X110814412Y-63340606D01*
X110790316Y-63174611D01*
X109903356Y-63174611D01*
X109649356Y-63174611D01*
X108762396Y-63174611D01*
X108738300Y-63340606D01*
X108362874Y-63340606D01*
X108416556Y-63070732D01*
X108416556Y-63024490D01*
X108326719Y-62572847D01*
X108070883Y-62189963D01*
X107833872Y-62031596D01*
X109454327Y-62021594D01*
X109249519Y-62106416D01*
X108929442Y-62379672D01*
X108738300Y-62754616D01*
X108762396Y-62920611D01*
X109649356Y-62920611D01*
X109649356Y-62900611D01*
X109903356Y-62900611D01*
X109903356Y-62920611D01*
X110790316Y-62920611D01*
X110814412Y-62754616D01*
X110623270Y-62379672D01*
X110303193Y-62106416D01*
X110088927Y-62017676D01*
X111755065Y-62007391D01*
X111481829Y-62189963D01*
X111225993Y-62572847D01*
X111136156Y-63024490D01*
X111136156Y-63070732D01*
X111225993Y-63522375D01*
X111481829Y-63905259D01*
X111864713Y-64161095D01*
X112316356Y-64250932D01*
X112767999Y-64161095D01*
X113150883Y-63905259D01*
X113406719Y-63522375D01*
X113496556Y-63070732D01*
X113496556Y-63024490D01*
X113406719Y-62572847D01*
X113150883Y-62189963D01*
X112867371Y-62000525D01*
X114318749Y-61991566D01*
X114021829Y-62189963D01*
X113765993Y-62572847D01*
X113676156Y-63024490D01*
X113676156Y-63070732D01*
X113765993Y-63522375D01*
X114021829Y-63905259D01*
X114404713Y-64161095D01*
X114856356Y-64250932D01*
X115307999Y-64161095D01*
X115690883Y-63905259D01*
X115946719Y-63522375D01*
X116036556Y-63070732D01*
X116036556Y-63024490D01*
X115946719Y-62572847D01*
X115690883Y-62189963D01*
X115384120Y-61984990D01*
X116882433Y-61975741D01*
X116561829Y-62189963D01*
X116305993Y-62572847D01*
X116216156Y-63024490D01*
X116216156Y-63070732D01*
X116305993Y-63522375D01*
X116561829Y-63905259D01*
X116944713Y-64161095D01*
X117396356Y-64250932D01*
X117847999Y-64161095D01*
X118230883Y-63905259D01*
X118486719Y-63522375D01*
X118576556Y-63070732D01*
X118576556Y-63024490D01*
X118486719Y-62572847D01*
X118230883Y-62189963D01*
X117900870Y-61969454D01*
X119446117Y-61959916D01*
X119101829Y-62189963D01*
X118845993Y-62572847D01*
X118756156Y-63024490D01*
X118756156Y-63070732D01*
X118845993Y-63522375D01*
X119101829Y-63905259D01*
X119484713Y-64161095D01*
X119936356Y-64250932D01*
X120387999Y-64161095D01*
X120770883Y-63905259D01*
X121026719Y-63522375D01*
X121062874Y-63340606D01*
X121438300Y-63340606D01*
X121629442Y-63715550D01*
X121949519Y-63988806D01*
X122183363Y-64085654D01*
X122349356Y-64061135D01*
X122349356Y-63174611D01*
X122603356Y-63174611D01*
X122603356Y-64061135D01*
X122769349Y-64085654D01*
X123003193Y-63988806D01*
X123323270Y-63715550D01*
X123514412Y-63340606D01*
X123490316Y-63174611D01*
X122603356Y-63174611D01*
X122349356Y-63174611D01*
X121462396Y-63174611D01*
X121438300Y-63340606D01*
X121062874Y-63340606D01*
X121116556Y-63070732D01*
X121116556Y-63024490D01*
X121062875Y-62754616D01*
X121438300Y-62754616D01*
X121462396Y-62920611D01*
X122349356Y-62920611D01*
X122349356Y-62034087D01*
X122603356Y-62034087D01*
X122603356Y-62920611D01*
X123490316Y-62920611D01*
X123514412Y-62754616D01*
X123323270Y-62379672D01*
X123003193Y-62106416D01*
X122769349Y-62009568D01*
X122603356Y-62034087D01*
X122349356Y-62034087D01*
X122183363Y-62009568D01*
X121949519Y-62106416D01*
X121629442Y-62379672D01*
X121438300Y-62754616D01*
X121062875Y-62754616D01*
X121026719Y-62572847D01*
X120770883Y-62189963D01*
X120417620Y-61953919D01*
X124594844Y-61928134D01*
X124564713Y-61934127D01*
X124181829Y-62189963D01*
X123925993Y-62572847D01*
X123836156Y-63024490D01*
X123836156Y-63070732D01*
X123925993Y-63522375D01*
X124181829Y-63905259D01*
X124564713Y-64161095D01*
X125016356Y-64250932D01*
X125467999Y-64161095D01*
X125850883Y-63905259D01*
X126106719Y-63522375D01*
X126142874Y-63340606D01*
X126518300Y-63340606D01*
X126709442Y-63715550D01*
X127029519Y-63988806D01*
X127263363Y-64085654D01*
X127429356Y-64061135D01*
X127429356Y-63174611D01*
X127683356Y-63174611D01*
X127683356Y-64061135D01*
X127849349Y-64085654D01*
X128083193Y-63988806D01*
X128403270Y-63715550D01*
X128594412Y-63340606D01*
X128570316Y-63174611D01*
X127683356Y-63174611D01*
X127429356Y-63174611D01*
X126542396Y-63174611D01*
X126518300Y-63340606D01*
X126142874Y-63340606D01*
X126196556Y-63070732D01*
X126196556Y-63024490D01*
X126142875Y-62754616D01*
X126518300Y-62754616D01*
X126542396Y-62920611D01*
X127429356Y-62920611D01*
X127429356Y-62034087D01*
X127683356Y-62034087D01*
X127683356Y-62920611D01*
X128570316Y-62920611D01*
X128594412Y-62754616D01*
X128403270Y-62379672D01*
X128083193Y-62106416D01*
X127849349Y-62009568D01*
X127683356Y-62034087D01*
X127429356Y-62034087D01*
X127263363Y-62009568D01*
X127029519Y-62106416D01*
X126709442Y-62379672D01*
X126518300Y-62754616D01*
X126142875Y-62754616D01*
X126106719Y-62572847D01*
X125850883Y-62189963D01*
X125467999Y-61934127D01*
X125412494Y-61923086D01*
X129837541Y-61895771D01*
X129644713Y-61934127D01*
X129261829Y-62189963D01*
X129005993Y-62572847D01*
X128916156Y-63024490D01*
X128916156Y-63070732D01*
X129005993Y-63522375D01*
X129261829Y-63905259D01*
X129644713Y-64161095D01*
X130096356Y-64250932D01*
X130547999Y-64161095D01*
X130930883Y-63905259D01*
X131186719Y-63522375D01*
X131276556Y-63070732D01*
X131276556Y-63024490D01*
X131186719Y-62572847D01*
X130930883Y-62189963D01*
X130547999Y-61934127D01*
X130339591Y-61892672D01*
X132458889Y-61879590D01*
X132184713Y-61934127D01*
X131801829Y-62189963D01*
X131545993Y-62572847D01*
X131456156Y-63024490D01*
X131456156Y-63070732D01*
X131545993Y-63522375D01*
X131801829Y-63905259D01*
X132184713Y-64161095D01*
X132636356Y-64250932D01*
X133087999Y-64161095D01*
X133470883Y-63905259D01*
X133726719Y-63522375D01*
X133816556Y-63070732D01*
X133816556Y-63024490D01*
X133726719Y-62572847D01*
X133470883Y-62189963D01*
X133087999Y-61934127D01*
X132803140Y-61877465D01*
X135080238Y-61863409D01*
X134724713Y-61934127D01*
X134341829Y-62189963D01*
X134085993Y-62572847D01*
X133996156Y-63024490D01*
X133996156Y-63070732D01*
X134085993Y-63522375D01*
X134341829Y-63905259D01*
X134724713Y-64161095D01*
X135176356Y-64250932D01*
X135627999Y-64161095D01*
X136010883Y-63905259D01*
X136266719Y-63522375D01*
X136356556Y-63070732D01*
X136356556Y-63024490D01*
X136266719Y-62572847D01*
X136010883Y-62189963D01*
X135627999Y-61934127D01*
X135266688Y-61862258D01*
X137356185Y-61849360D01*
X137634498Y-62171617D01*
X137634498Y-62171617D01*
G37*
X137634498Y-62171617D02*
X137305877Y-62499664D01*
X136813561Y-63685294D01*
X136812441Y-64969074D01*
X137302687Y-66155561D01*
X138209664Y-67064123D01*
X139395294Y-67556439D01*
X140679074Y-67557559D01*
X141863378Y-67068215D01*
X142113000Y-67357251D01*
X142113000Y-84273734D01*
X141819285Y-84554679D01*
X140684706Y-84083561D01*
X139400926Y-84082441D01*
X138214439Y-84572687D01*
X137305877Y-85479664D01*
X136813561Y-86665294D01*
X136812441Y-87949074D01*
X137225494Y-88948740D01*
X136347040Y-89789000D01*
X95123000Y-89789000D01*
X95123000Y-88068150D01*
X130589400Y-88068150D01*
X130589400Y-88429472D01*
X130624203Y-88513492D01*
X130688509Y-88577798D01*
X130772529Y-88612600D01*
X131133850Y-88612600D01*
X131191000Y-88555450D01*
X131191000Y-88011000D01*
X131445000Y-88011000D01*
X131445000Y-88555450D01*
X131502150Y-88612600D01*
X131863471Y-88612600D01*
X131947491Y-88577798D01*
X132011797Y-88513492D01*
X132046600Y-88429472D01*
X132046600Y-88331661D01*
X133871758Y-88331661D01*
X134083990Y-88845303D01*
X134476630Y-89238629D01*
X134989900Y-89451757D01*
X135545661Y-89452242D01*
X136059303Y-89240010D01*
X136452629Y-88847370D01*
X136665757Y-88334100D01*
X136666242Y-87778339D01*
X136454010Y-87264697D01*
X136061370Y-86871371D01*
X135548100Y-86658243D01*
X134992339Y-86657758D01*
X134478697Y-86869990D01*
X134085371Y-87262630D01*
X133872243Y-87775900D01*
X133871758Y-88331661D01*
X132046600Y-88331661D01*
X132046600Y-88068150D01*
X131989450Y-88011000D01*
X131445000Y-88011000D01*
X131191000Y-88011000D01*
X130646550Y-88011000D01*
X130589400Y-88068150D01*
X95123000Y-88068150D01*
X95123000Y-87648411D01*
X95194492Y-87618797D01*
X95258798Y-87554491D01*
X95293600Y-87470471D01*
X95293600Y-87338528D01*
X130589400Y-87338528D01*
X130589400Y-87699850D01*
X130646550Y-87757000D01*
X131191000Y-87757000D01*
X131191000Y-87212550D01*
X131445000Y-87212550D01*
X131445000Y-87757000D01*
X131989450Y-87757000D01*
X132046600Y-87699850D01*
X132046600Y-87338528D01*
X132011797Y-87254508D01*
X131947491Y-87190202D01*
X131863471Y-87155400D01*
X131502150Y-87155400D01*
X131445000Y-87212550D01*
X131191000Y-87212550D01*
X131133850Y-87155400D01*
X130772529Y-87155400D01*
X130688509Y-87190202D01*
X130624203Y-87254508D01*
X130589400Y-87338528D01*
X95293600Y-87338528D01*
X95293600Y-87009150D01*
X95236450Y-86952000D01*
X95123000Y-86952000D01*
X95123000Y-86698000D01*
X95236450Y-86698000D01*
X95293600Y-86640850D01*
X95293600Y-86179529D01*
X95258798Y-86095509D01*
X95194492Y-86031203D01*
X95123000Y-86001589D01*
X95123000Y-85550755D01*
X95187365Y-85538644D01*
X95299749Y-85466327D01*
X95375144Y-85355983D01*
X95401669Y-85225000D01*
X95401669Y-84384907D01*
X96169802Y-85153039D01*
X96165997Y-85162203D01*
X96165604Y-85611824D01*
X96337304Y-86027371D01*
X96654957Y-86345578D01*
X97070203Y-86518003D01*
X97519824Y-86518396D01*
X97935371Y-86346696D01*
X98109173Y-86173196D01*
X101690409Y-86173196D01*
X101786841Y-86304862D01*
X102176467Y-86429917D01*
X102584290Y-86396348D01*
X102805159Y-86304862D01*
X102901591Y-86173196D01*
X104390409Y-86173196D01*
X104486841Y-86304862D01*
X104876467Y-86429917D01*
X105284290Y-86396348D01*
X105505159Y-86304862D01*
X105601591Y-86173196D01*
X104996000Y-85567605D01*
X104390409Y-86173196D01*
X102901591Y-86173196D01*
X102296000Y-85567605D01*
X101690409Y-86173196D01*
X98109173Y-86173196D01*
X98253578Y-86029043D01*
X98426003Y-85613797D01*
X98426304Y-85268467D01*
X101254083Y-85268467D01*
X101287652Y-85676290D01*
X101379138Y-85897159D01*
X101510804Y-85993591D01*
X102116395Y-85388000D01*
X102475605Y-85388000D01*
X103081196Y-85993591D01*
X103212862Y-85897159D01*
X103337917Y-85507533D01*
X103318239Y-85268467D01*
X103954083Y-85268467D01*
X103987652Y-85676290D01*
X104079138Y-85897159D01*
X104210804Y-85993591D01*
X104816395Y-85388000D01*
X105175605Y-85388000D01*
X105781196Y-85993591D01*
X105912862Y-85897159D01*
X106037917Y-85507533D01*
X106004348Y-85099710D01*
X105912862Y-84878841D01*
X105781196Y-84782409D01*
X105175605Y-85388000D01*
X104816395Y-85388000D01*
X104210804Y-84782409D01*
X104079138Y-84878841D01*
X103954083Y-85268467D01*
X103318239Y-85268467D01*
X103304348Y-85099710D01*
X103212862Y-84878841D01*
X103081196Y-84782409D01*
X102475605Y-85388000D01*
X102116395Y-85388000D01*
X101510804Y-84782409D01*
X101379138Y-84878841D01*
X101254083Y-85268467D01*
X98426304Y-85268467D01*
X98426396Y-85164176D01*
X98254696Y-84748629D01*
X98109125Y-84602804D01*
X101690409Y-84602804D01*
X102296000Y-85208395D01*
X102901591Y-84602804D01*
X104390409Y-84602804D01*
X104996000Y-85208395D01*
X105601591Y-84602804D01*
X105505159Y-84471138D01*
X105115533Y-84346083D01*
X104707710Y-84379652D01*
X104486841Y-84471138D01*
X104390409Y-84602804D01*
X102901591Y-84602804D01*
X102805159Y-84471138D01*
X102415533Y-84346083D01*
X102007710Y-84379652D01*
X101786841Y-84471138D01*
X101690409Y-84602804D01*
X98109125Y-84602804D01*
X97937043Y-84430422D01*
X97521797Y-84257997D01*
X97072176Y-84257604D01*
X97061325Y-84262088D01*
X96402200Y-83602962D01*
X96402200Y-81778485D01*
X96411371Y-81774696D01*
X96729578Y-81457043D01*
X96734080Y-81446200D01*
X99778000Y-81446200D01*
X100019167Y-81398229D01*
X100223619Y-81261619D01*
X100669237Y-80816000D01*
X104779658Y-80816000D01*
X104865689Y-81248509D01*
X105110686Y-81615172D01*
X105477349Y-81860169D01*
X105909858Y-81946200D01*
X105954142Y-81946200D01*
X106386651Y-81860169D01*
X106753314Y-81615172D01*
X106866218Y-81446200D01*
X107509515Y-81446200D01*
X107513304Y-81455371D01*
X107830957Y-81773578D01*
X107841800Y-81778080D01*
X107841800Y-83864000D01*
X107889771Y-84105167D01*
X108026381Y-84309619D01*
X108869802Y-85153039D01*
X108865997Y-85162203D01*
X108865604Y-85611824D01*
X109037304Y-86027371D01*
X109354957Y-86345578D01*
X109770203Y-86518003D01*
X110219824Y-86518396D01*
X110635371Y-86346696D01*
X110809173Y-86173196D01*
X112010409Y-86173196D01*
X112106841Y-86304862D01*
X112496467Y-86429917D01*
X112904290Y-86396348D01*
X113125159Y-86304862D01*
X113221591Y-86173196D01*
X112616000Y-85567605D01*
X112010409Y-86173196D01*
X110809173Y-86173196D01*
X110953578Y-86029043D01*
X111126003Y-85613797D01*
X111126304Y-85268467D01*
X111574083Y-85268467D01*
X111607652Y-85676290D01*
X111699138Y-85897159D01*
X111830804Y-85993591D01*
X112436395Y-85388000D01*
X112795605Y-85388000D01*
X113401196Y-85993591D01*
X113532862Y-85897159D01*
X113624443Y-85611824D01*
X116485604Y-85611824D01*
X116657304Y-86027371D01*
X116974957Y-86345578D01*
X117390203Y-86518003D01*
X117839824Y-86518396D01*
X117921120Y-86484805D01*
X119765691Y-86484805D01*
X119861431Y-86716513D01*
X120038554Y-86893946D01*
X120270096Y-86990090D01*
X120520805Y-86990309D01*
X120752513Y-86894569D01*
X120929946Y-86717446D01*
X121026090Y-86485904D01*
X121026090Y-86484805D01*
X121035691Y-86484805D01*
X121131431Y-86716513D01*
X121308554Y-86893946D01*
X121540096Y-86990090D01*
X121790805Y-86990309D01*
X122022513Y-86894569D01*
X122199946Y-86717446D01*
X122296090Y-86485904D01*
X122296090Y-86484805D01*
X122559691Y-86484805D01*
X122655431Y-86716513D01*
X122832554Y-86893946D01*
X123064096Y-86990090D01*
X123314805Y-86990309D01*
X123546513Y-86894569D01*
X123723946Y-86717446D01*
X123820090Y-86485904D01*
X123820090Y-86484805D01*
X123829691Y-86484805D01*
X123925431Y-86716513D01*
X124102554Y-86893946D01*
X124334096Y-86990090D01*
X124584805Y-86990309D01*
X124816513Y-86894569D01*
X124993946Y-86717446D01*
X125090090Y-86485904D01*
X125090090Y-86484805D01*
X125099691Y-86484805D01*
X125195431Y-86716513D01*
X125372554Y-86893946D01*
X125604096Y-86990090D01*
X125854805Y-86990309D01*
X126086513Y-86894569D01*
X126263946Y-86717446D01*
X126360090Y-86485904D01*
X126360309Y-86235195D01*
X126264569Y-86003487D01*
X126087446Y-85826054D01*
X125855904Y-85729910D01*
X125605195Y-85729691D01*
X125373487Y-85825431D01*
X125196054Y-86002554D01*
X125099910Y-86234096D01*
X125099691Y-86484805D01*
X125090090Y-86484805D01*
X125090309Y-86235195D01*
X124994569Y-86003487D01*
X124817446Y-85826054D01*
X124585904Y-85729910D01*
X124335195Y-85729691D01*
X124103487Y-85825431D01*
X123926054Y-86002554D01*
X123829910Y-86234096D01*
X123829691Y-86484805D01*
X123820090Y-86484805D01*
X123820309Y-86235195D01*
X123724569Y-86003487D01*
X123547446Y-85826054D01*
X123315904Y-85729910D01*
X123065195Y-85729691D01*
X122833487Y-85825431D01*
X122656054Y-86002554D01*
X122559910Y-86234096D01*
X122559691Y-86484805D01*
X122296090Y-86484805D01*
X122296309Y-86235195D01*
X122200569Y-86003487D01*
X122023446Y-85826054D01*
X121791904Y-85729910D01*
X121541195Y-85729691D01*
X121309487Y-85825431D01*
X121132054Y-86002554D01*
X121035910Y-86234096D01*
X121035691Y-86484805D01*
X121026090Y-86484805D01*
X121026309Y-86235195D01*
X120930569Y-86003487D01*
X120753446Y-85826054D01*
X120521904Y-85729910D01*
X120271195Y-85729691D01*
X120039487Y-85825431D01*
X119862054Y-86002554D01*
X119765910Y-86234096D01*
X119765691Y-86484805D01*
X117921120Y-86484805D01*
X118255371Y-86346696D01*
X118573578Y-86029043D01*
X118746003Y-85613797D01*
X118746396Y-85164176D01*
X118641918Y-84911320D01*
X119803088Y-83750150D01*
X128715400Y-83750150D01*
X128715400Y-84461472D01*
X128750203Y-84545492D01*
X128814509Y-84609798D01*
X128898529Y-84644600D01*
X129609850Y-84644600D01*
X129667000Y-84587450D01*
X129667000Y-83693000D01*
X129921000Y-83693000D01*
X129921000Y-84587450D01*
X129978150Y-84644600D01*
X130689471Y-84644600D01*
X130773491Y-84609798D01*
X130837797Y-84545492D01*
X130872600Y-84461472D01*
X130872600Y-83750150D01*
X130815450Y-83693000D01*
X129921000Y-83693000D01*
X129667000Y-83693000D01*
X128772550Y-83693000D01*
X128715400Y-83750150D01*
X119803088Y-83750150D01*
X120500038Y-83053200D01*
X120860331Y-83053200D01*
X120860331Y-83273000D01*
X120883356Y-83395365D01*
X120955673Y-83507749D01*
X121066017Y-83583144D01*
X121197000Y-83609669D01*
X122897000Y-83609669D01*
X123019365Y-83586644D01*
X123131749Y-83514327D01*
X123207144Y-83403983D01*
X123233669Y-83273000D01*
X123233669Y-81573000D01*
X123210644Y-81450635D01*
X123138327Y-81338251D01*
X123027983Y-81262856D01*
X122897000Y-81236331D01*
X121197000Y-81236331D01*
X121074635Y-81259356D01*
X120962251Y-81331673D01*
X120886856Y-81442017D01*
X120860331Y-81573000D01*
X120860331Y-81792800D01*
X120500038Y-81792800D01*
X119741022Y-81033784D01*
X119784342Y-80816000D01*
X119698311Y-80383491D01*
X119453314Y-80016828D01*
X119086651Y-79771831D01*
X118654142Y-79685800D01*
X118609858Y-79685800D01*
X118177349Y-79771831D01*
X117810686Y-80016828D01*
X117565689Y-80383491D01*
X117479658Y-80816000D01*
X117565689Y-81248509D01*
X117810686Y-81615172D01*
X118177349Y-81860169D01*
X118609858Y-81946200D01*
X118654142Y-81946200D01*
X118834989Y-81910227D01*
X119347762Y-82423000D01*
X117513052Y-84257710D01*
X117392176Y-84257604D01*
X116976629Y-84429304D01*
X116658422Y-84746957D01*
X116485997Y-85162203D01*
X116485604Y-85611824D01*
X113624443Y-85611824D01*
X113657917Y-85507533D01*
X113624348Y-85099710D01*
X113532862Y-84878841D01*
X113401196Y-84782409D01*
X112795605Y-85388000D01*
X112436395Y-85388000D01*
X111830804Y-84782409D01*
X111699138Y-84878841D01*
X111574083Y-85268467D01*
X111126304Y-85268467D01*
X111126396Y-85164176D01*
X110954696Y-84748629D01*
X110809125Y-84602804D01*
X112010409Y-84602804D01*
X112616000Y-85208395D01*
X113221591Y-84602804D01*
X113125159Y-84471138D01*
X112735533Y-84346083D01*
X112327710Y-84379652D01*
X112106841Y-84471138D01*
X112010409Y-84602804D01*
X110809125Y-84602804D01*
X110637043Y-84430422D01*
X110221797Y-84257997D01*
X109772176Y-84257604D01*
X109761325Y-84262088D01*
X109102200Y-83602962D01*
X109102200Y-81778485D01*
X109111371Y-81774696D01*
X109429578Y-81457043D01*
X109602003Y-81041797D01*
X109602396Y-80592176D01*
X109430696Y-80176629D01*
X109113043Y-79858422D01*
X108697797Y-79685997D01*
X108248176Y-79685604D01*
X107832629Y-79857304D01*
X107514422Y-80174957D01*
X107509920Y-80185800D01*
X106866218Y-80185800D01*
X106753314Y-80016828D01*
X106386651Y-79771831D01*
X105954142Y-79685800D01*
X105909858Y-79685800D01*
X105477349Y-79771831D01*
X105110686Y-80016828D01*
X104865689Y-80383491D01*
X104779658Y-80816000D01*
X100669237Y-80816000D01*
X101410616Y-80074621D01*
X101410619Y-80074619D01*
X101503496Y-79935619D01*
X101547229Y-79870168D01*
X101595200Y-79629000D01*
X101595200Y-79033000D01*
X120860331Y-79033000D01*
X120860331Y-80733000D01*
X120883356Y-80855365D01*
X120955673Y-80967749D01*
X121066017Y-81043144D01*
X121197000Y-81069669D01*
X122897000Y-81069669D01*
X123019365Y-81046644D01*
X123131749Y-80974327D01*
X123207144Y-80863983D01*
X123233669Y-80733000D01*
X123233669Y-80120200D01*
X124591800Y-80120200D01*
X124591800Y-81487398D01*
X124487251Y-81554673D01*
X124411856Y-81665017D01*
X124385331Y-81796000D01*
X124385331Y-82796000D01*
X124408356Y-82918365D01*
X124480673Y-83030749D01*
X124591017Y-83106144D01*
X124722000Y-83132669D01*
X125722000Y-83132669D01*
X125844365Y-83109644D01*
X125956749Y-83037327D01*
X126032144Y-82926983D01*
X126058669Y-82796000D01*
X126058669Y-82670528D01*
X128715400Y-82670528D01*
X128715400Y-83381850D01*
X128772550Y-83439000D01*
X129667000Y-83439000D01*
X129667000Y-82544550D01*
X129921000Y-82544550D01*
X129921000Y-83439000D01*
X130815450Y-83439000D01*
X130872600Y-83381850D01*
X130872600Y-82670528D01*
X130837797Y-82586508D01*
X130773491Y-82522202D01*
X130689471Y-82487400D01*
X129978150Y-82487400D01*
X129921000Y-82544550D01*
X129667000Y-82544550D01*
X129609850Y-82487400D01*
X128898529Y-82487400D01*
X128814509Y-82522202D01*
X128750203Y-82586508D01*
X128715400Y-82670528D01*
X126058669Y-82670528D01*
X126058669Y-81796000D01*
X126035644Y-81673635D01*
X125963327Y-81561251D01*
X125852983Y-81485856D01*
X125852200Y-81485697D01*
X125852200Y-80619150D01*
X127357400Y-80619150D01*
X127357400Y-80860471D01*
X127392202Y-80944491D01*
X127456508Y-81008797D01*
X127540528Y-81043600D01*
X128101850Y-81043600D01*
X128159000Y-80986450D01*
X128159000Y-80562000D01*
X128413000Y-80562000D01*
X128413000Y-80986450D01*
X128470150Y-81043600D01*
X129031472Y-81043600D01*
X129115492Y-81008797D01*
X129179798Y-80944491D01*
X129214600Y-80860471D01*
X129214600Y-80619150D01*
X129157450Y-80562000D01*
X128413000Y-80562000D01*
X128159000Y-80562000D01*
X127414550Y-80562000D01*
X127357400Y-80619150D01*
X125852200Y-80619150D01*
X125852200Y-80101396D01*
X125907144Y-80020983D01*
X125909463Y-80009529D01*
X127357400Y-80009529D01*
X127357400Y-80250850D01*
X127414550Y-80308000D01*
X128159000Y-80308000D01*
X128159000Y-79883550D01*
X128413000Y-79883550D01*
X128413000Y-80308000D01*
X129157450Y-80308000D01*
X129214600Y-80250850D01*
X129214600Y-80009529D01*
X129179798Y-79925509D01*
X129115492Y-79861203D01*
X129031472Y-79826400D01*
X128470150Y-79826400D01*
X128413000Y-79883550D01*
X128159000Y-79883550D01*
X128101850Y-79826400D01*
X127540528Y-79826400D01*
X127456508Y-79861203D01*
X127392202Y-79925509D01*
X127357400Y-80009529D01*
X125909463Y-80009529D01*
X125933669Y-79890000D01*
X125933669Y-79090000D01*
X125910644Y-78967635D01*
X125838327Y-78855251D01*
X125727983Y-78779856D01*
X125597000Y-78753331D01*
X124847000Y-78753331D01*
X124724635Y-78776356D01*
X124612251Y-78848673D01*
X124604648Y-78859800D01*
X123177933Y-78859800D01*
X123138327Y-78798251D01*
X123027983Y-78722856D01*
X122897000Y-78696331D01*
X121197000Y-78696331D01*
X121074635Y-78719356D01*
X120962251Y-78791673D01*
X120886856Y-78902017D01*
X120860331Y-79033000D01*
X101595200Y-79033000D01*
X101595200Y-78356805D01*
X102747691Y-78356805D01*
X102843431Y-78588513D01*
X103020554Y-78765946D01*
X103252096Y-78862090D01*
X103502805Y-78862309D01*
X103734513Y-78766569D01*
X103911946Y-78589446D01*
X104008090Y-78357904D01*
X104008090Y-78356805D01*
X104017691Y-78356805D01*
X104113431Y-78588513D01*
X104290554Y-78765946D01*
X104522096Y-78862090D01*
X104772805Y-78862309D01*
X105004513Y-78766569D01*
X105181946Y-78589446D01*
X105278090Y-78357904D01*
X105278309Y-78107195D01*
X105182569Y-77875487D01*
X105005446Y-77698054D01*
X104773904Y-77601910D01*
X104523195Y-77601691D01*
X104291487Y-77697431D01*
X104114054Y-77874554D01*
X104017910Y-78106096D01*
X104017691Y-78356805D01*
X104008090Y-78356805D01*
X104008309Y-78107195D01*
X103912569Y-77875487D01*
X103735446Y-77698054D01*
X103503904Y-77601910D01*
X103253195Y-77601691D01*
X103021487Y-77697431D01*
X102844054Y-77874554D01*
X102747910Y-78106096D01*
X102747691Y-78356805D01*
X101595200Y-78356805D01*
X101595200Y-77513669D01*
X101815000Y-77513669D01*
X101937365Y-77490644D01*
X102049749Y-77418327D01*
X102125144Y-77307983D01*
X102151669Y-77177000D01*
X102151669Y-77086805D01*
X102747691Y-77086805D01*
X102843431Y-77318513D01*
X103020554Y-77495946D01*
X103252096Y-77592090D01*
X103502805Y-77592309D01*
X103734513Y-77496569D01*
X103911946Y-77319446D01*
X104008090Y-77087904D01*
X104008090Y-77086805D01*
X104017691Y-77086805D01*
X104113431Y-77318513D01*
X104290554Y-77495946D01*
X104522096Y-77592090D01*
X104772805Y-77592309D01*
X105004513Y-77496569D01*
X105181946Y-77319446D01*
X105258887Y-77134150D01*
X105568400Y-77134150D01*
X105568400Y-77395471D01*
X105603202Y-77479491D01*
X105667508Y-77543797D01*
X105751528Y-77578600D01*
X105987850Y-77578600D01*
X106045000Y-77521450D01*
X106045000Y-77077000D01*
X106299000Y-77077000D01*
X106299000Y-77521450D01*
X106356150Y-77578600D01*
X106592472Y-77578600D01*
X106676492Y-77543797D01*
X106740798Y-77479491D01*
X106775600Y-77395471D01*
X106775600Y-77134150D01*
X106718450Y-77077000D01*
X106299000Y-77077000D01*
X106045000Y-77077000D01*
X105625550Y-77077000D01*
X105568400Y-77134150D01*
X105258887Y-77134150D01*
X105278090Y-77087904D01*
X105278309Y-76837195D01*
X105182569Y-76605487D01*
X105081788Y-76504529D01*
X105568400Y-76504529D01*
X105568400Y-76765850D01*
X105625550Y-76823000D01*
X106045000Y-76823000D01*
X106045000Y-76378550D01*
X106299000Y-76378550D01*
X106299000Y-76823000D01*
X106718450Y-76823000D01*
X106775600Y-76765850D01*
X106775600Y-76504529D01*
X106740798Y-76420509D01*
X106676492Y-76356203D01*
X106592472Y-76321400D01*
X106356150Y-76321400D01*
X106299000Y-76378550D01*
X106045000Y-76378550D01*
X105987850Y-76321400D01*
X105751528Y-76321400D01*
X105667508Y-76356203D01*
X105603202Y-76420509D01*
X105568400Y-76504529D01*
X105081788Y-76504529D01*
X105005446Y-76428054D01*
X104773904Y-76331910D01*
X104523195Y-76331691D01*
X104291487Y-76427431D01*
X104114054Y-76604554D01*
X104017910Y-76836096D01*
X104017691Y-77086805D01*
X104008090Y-77086805D01*
X104008309Y-76837195D01*
X103912569Y-76605487D01*
X103735446Y-76428054D01*
X103503904Y-76331910D01*
X103253195Y-76331691D01*
X103021487Y-76427431D01*
X102844054Y-76604554D01*
X102747910Y-76836096D01*
X102747691Y-77086805D01*
X102151669Y-77086805D01*
X102151669Y-75816805D01*
X102747691Y-75816805D01*
X102843431Y-76048513D01*
X103020554Y-76225946D01*
X103252096Y-76322090D01*
X103502805Y-76322309D01*
X103734513Y-76226569D01*
X103911946Y-76049446D01*
X104008090Y-75817904D01*
X104008090Y-75816805D01*
X104017691Y-75816805D01*
X104113431Y-76048513D01*
X104290554Y-76225946D01*
X104522096Y-76322090D01*
X104772805Y-76322309D01*
X105004513Y-76226569D01*
X105181946Y-76049446D01*
X105278090Y-75817904D01*
X105278309Y-75567195D01*
X105182569Y-75335487D01*
X105005446Y-75158054D01*
X104773904Y-75061910D01*
X104523195Y-75061691D01*
X104291487Y-75157431D01*
X104114054Y-75334554D01*
X104017910Y-75566096D01*
X104017691Y-75816805D01*
X104008090Y-75816805D01*
X104008309Y-75567195D01*
X103912569Y-75335487D01*
X103735446Y-75158054D01*
X103503904Y-75061910D01*
X103253195Y-75061691D01*
X103021487Y-75157431D01*
X102844054Y-75334554D01*
X102747910Y-75566096D01*
X102747691Y-75816805D01*
X102151669Y-75816805D01*
X102151669Y-75477000D01*
X102128644Y-75354635D01*
X102056327Y-75242251D01*
X101945983Y-75166856D01*
X101815000Y-75140331D01*
X100115000Y-75140331D01*
X99992635Y-75163356D01*
X99880251Y-75235673D01*
X99804856Y-75346017D01*
X99778331Y-75477000D01*
X99778331Y-77177000D01*
X99801356Y-77299365D01*
X99873673Y-77411749D01*
X99984017Y-77487144D01*
X100115000Y-77513669D01*
X100334800Y-77513669D01*
X100334800Y-79367963D01*
X99516962Y-80185800D01*
X96734485Y-80185800D01*
X96730696Y-80176629D01*
X96432787Y-79878200D01*
X97790000Y-79878200D01*
X98031167Y-79830229D01*
X98235619Y-79693619D01*
X99251619Y-78677619D01*
X99388229Y-78473167D01*
X99436200Y-78232000D01*
X99436200Y-75405063D01*
X99868849Y-74864252D01*
X99873673Y-74871749D01*
X99984017Y-74947144D01*
X100115000Y-74973669D01*
X101815000Y-74973669D01*
X101937365Y-74950644D01*
X102049749Y-74878327D01*
X102125144Y-74767983D01*
X102151669Y-74637000D01*
X102151669Y-72937000D01*
X102128644Y-72814635D01*
X102056327Y-72702251D01*
X101945983Y-72626856D01*
X101815000Y-72600331D01*
X100115000Y-72600331D01*
X99992635Y-72623356D01*
X99880251Y-72695673D01*
X99804856Y-72806017D01*
X99778331Y-72937000D01*
X99778331Y-73190748D01*
X99707833Y-73204771D01*
X99503381Y-73341381D01*
X99376381Y-73468381D01*
X99356824Y-73497650D01*
X99329897Y-73520317D01*
X98313896Y-74790317D01*
X98273057Y-74869072D01*
X98223771Y-74942833D01*
X98216904Y-74977356D01*
X98200700Y-75008604D01*
X98193107Y-75096992D01*
X98175800Y-75184000D01*
X98175800Y-77970962D01*
X97528962Y-78617800D01*
X96393000Y-78617800D01*
X96393000Y-77168150D01*
X96437400Y-77168150D01*
X96437400Y-77629471D01*
X96472202Y-77713491D01*
X96536508Y-77777797D01*
X96620528Y-77812600D01*
X97081850Y-77812600D01*
X97139000Y-77755450D01*
X97139000Y-77111000D01*
X97393000Y-77111000D01*
X97393000Y-77755450D01*
X97450150Y-77812600D01*
X97911472Y-77812600D01*
X97995492Y-77777797D01*
X98059798Y-77713491D01*
X98094600Y-77629471D01*
X98094600Y-77168150D01*
X98037450Y-77111000D01*
X97393000Y-77111000D01*
X97139000Y-77111000D01*
X96494550Y-77111000D01*
X96437400Y-77168150D01*
X96393000Y-77168150D01*
X96393000Y-76338529D01*
X96437400Y-76338529D01*
X96437400Y-76799850D01*
X96494550Y-76857000D01*
X97139000Y-76857000D01*
X97139000Y-76212550D01*
X97393000Y-76212550D01*
X97393000Y-76857000D01*
X98037450Y-76857000D01*
X98094600Y-76799850D01*
X98094600Y-76338529D01*
X98059798Y-76254509D01*
X97995492Y-76190203D01*
X97911472Y-76155400D01*
X97450150Y-76155400D01*
X97393000Y-76212550D01*
X97139000Y-76212550D01*
X97081850Y-76155400D01*
X96620528Y-76155400D01*
X96536508Y-76190203D01*
X96472202Y-76254509D01*
X96437400Y-76338529D01*
X96393000Y-76338529D01*
X96393000Y-74820669D01*
X97066000Y-74820669D01*
X97188365Y-74797644D01*
X97300749Y-74725327D01*
X97376144Y-74614983D01*
X97402669Y-74484000D01*
X97402669Y-72984000D01*
X97379644Y-72861635D01*
X97307327Y-72749251D01*
X97196983Y-72673856D01*
X97066000Y-72647331D01*
X96846200Y-72647331D01*
X96846200Y-71640000D01*
X96840669Y-71612194D01*
X96840669Y-71178000D01*
X96817644Y-71055635D01*
X96745327Y-70943251D01*
X96634983Y-70867856D01*
X96504000Y-70841331D01*
X96393000Y-70841331D01*
X96393000Y-70686669D01*
X97274000Y-70686669D01*
X97396365Y-70663644D01*
X97508749Y-70591327D01*
X97584144Y-70480983D01*
X97601151Y-70397000D01*
X99778331Y-70397000D01*
X99778331Y-72097000D01*
X99801356Y-72219365D01*
X99873673Y-72331749D01*
X99984017Y-72407144D01*
X100115000Y-72433669D01*
X101815000Y-72433669D01*
X101937365Y-72410644D01*
X102049749Y-72338327D01*
X102125144Y-72227983D01*
X102151669Y-72097000D01*
X102151669Y-72054907D01*
X105460331Y-75363569D01*
X105460331Y-75850000D01*
X105483356Y-75972365D01*
X105555673Y-76084749D01*
X105666017Y-76160144D01*
X105797000Y-76186669D01*
X106547000Y-76186669D01*
X106669365Y-76163644D01*
X106781749Y-76091327D01*
X106789352Y-76080200D01*
X109316074Y-76080200D01*
X109361654Y-76190513D01*
X109735519Y-76565031D01*
X110224246Y-76767968D01*
X110753432Y-76768430D01*
X111242513Y-76566346D01*
X111617031Y-76192481D01*
X111819968Y-75703754D01*
X111820200Y-75438000D01*
X114213740Y-75438000D01*
X114314995Y-75947046D01*
X114603347Y-76378593D01*
X115034894Y-76666945D01*
X115543940Y-76768200D01*
X115596060Y-76768200D01*
X116105106Y-76666945D01*
X116536653Y-76378593D01*
X116629926Y-76239000D01*
X120860331Y-76239000D01*
X120860331Y-77939000D01*
X120883356Y-78061365D01*
X120955673Y-78173749D01*
X121066017Y-78249144D01*
X121197000Y-78275669D01*
X122897000Y-78275669D01*
X123019365Y-78252644D01*
X123131749Y-78180327D01*
X123207144Y-78069983D01*
X123233669Y-77939000D01*
X123233669Y-77590000D01*
X124510331Y-77590000D01*
X124510331Y-78390000D01*
X124533356Y-78512365D01*
X124605673Y-78624749D01*
X124716017Y-78700144D01*
X124847000Y-78726669D01*
X125597000Y-78726669D01*
X125719365Y-78703644D01*
X125831749Y-78631327D01*
X125904263Y-78525200D01*
X127367286Y-78525200D01*
X127455017Y-78585144D01*
X127586000Y-78611669D01*
X128986000Y-78611669D01*
X129108365Y-78588644D01*
X129220749Y-78516327D01*
X129296144Y-78405983D01*
X129322669Y-78275000D01*
X129322669Y-77749569D01*
X129557238Y-77515000D01*
X130674331Y-77515000D01*
X130674331Y-78275000D01*
X130697356Y-78397365D01*
X130769673Y-78509749D01*
X130798433Y-78529400D01*
X130776251Y-78543673D01*
X130700856Y-78654017D01*
X130674331Y-78785000D01*
X130674331Y-79545000D01*
X130697356Y-79667365D01*
X130769673Y-79779749D01*
X130798433Y-79799400D01*
X130776251Y-79813673D01*
X130700856Y-79924017D01*
X130674331Y-80055000D01*
X130674331Y-80815000D01*
X130697356Y-80937365D01*
X130769673Y-81049749D01*
X130880017Y-81125144D01*
X131011000Y-81151669D01*
X131080800Y-81151669D01*
X131080800Y-82535338D01*
X131046856Y-82585017D01*
X131020331Y-82716000D01*
X131020331Y-84416000D01*
X131043356Y-84538365D01*
X131115673Y-84650749D01*
X131226017Y-84726144D01*
X131357000Y-84752669D01*
X133057000Y-84752669D01*
X133179365Y-84729644D01*
X133291749Y-84657327D01*
X133367144Y-84546983D01*
X133393669Y-84416000D01*
X133393669Y-82716000D01*
X133370644Y-82593635D01*
X133298327Y-82481251D01*
X133187983Y-82405856D01*
X133057000Y-82379331D01*
X132341200Y-82379331D01*
X132341200Y-81151669D01*
X132411000Y-81151669D01*
X132533365Y-81128644D01*
X132631960Y-81065200D01*
X137625664Y-81065200D01*
X137625526Y-81222942D01*
X137865590Y-81803942D01*
X138309720Y-82248847D01*
X138890300Y-82489925D01*
X139518942Y-82490474D01*
X140099942Y-82250410D01*
X140544847Y-81806280D01*
X140785925Y-81225700D01*
X140786474Y-80597058D01*
X140546410Y-80016058D01*
X140102280Y-79571153D01*
X139521700Y-79330075D01*
X138893058Y-79329526D01*
X138312058Y-79569590D01*
X138076438Y-79804800D01*
X132629714Y-79804800D01*
X132623567Y-79800600D01*
X132631960Y-79795200D01*
X135951000Y-79795200D01*
X136192167Y-79747229D01*
X136396619Y-79610619D01*
X138626749Y-77380489D01*
X138890300Y-77489925D01*
X139518942Y-77490474D01*
X140099942Y-77250410D01*
X140544847Y-76806280D01*
X140785925Y-76225700D01*
X140786474Y-75597058D01*
X140546410Y-75016058D01*
X140102280Y-74571153D01*
X139521700Y-74330075D01*
X138893058Y-74329526D01*
X138312058Y-74569590D01*
X137867153Y-75013720D01*
X137626075Y-75594300D01*
X137625526Y-76222942D01*
X137735547Y-76489215D01*
X135689962Y-78534800D01*
X132629714Y-78534800D01*
X132623567Y-78530600D01*
X132645749Y-78516327D01*
X132721144Y-78405983D01*
X132747669Y-78275000D01*
X132747669Y-77749569D01*
X132779619Y-77717619D01*
X132916229Y-77513167D01*
X132964200Y-77272000D01*
X132964200Y-76116669D01*
X133184000Y-76116669D01*
X133306365Y-76093644D01*
X133418749Y-76021327D01*
X133494144Y-75910983D01*
X133520669Y-75780000D01*
X133520669Y-74634569D01*
X136615037Y-71540200D01*
X137619331Y-71540200D01*
X137619331Y-72160000D01*
X137642356Y-72282365D01*
X137714673Y-72394749D01*
X137825017Y-72470144D01*
X137956000Y-72496669D01*
X140456000Y-72496669D01*
X140578365Y-72473644D01*
X140690749Y-72401327D01*
X140766144Y-72290983D01*
X140792669Y-72160000D01*
X140792669Y-69660000D01*
X140769644Y-69537635D01*
X140697327Y-69425251D01*
X140586983Y-69349856D01*
X140456000Y-69323331D01*
X137956000Y-69323331D01*
X137833635Y-69346356D01*
X137721251Y-69418673D01*
X137645856Y-69529017D01*
X137619331Y-69660000D01*
X137619331Y-70279800D01*
X136354005Y-70279800D01*
X136354000Y-70279799D01*
X136112833Y-70327771D01*
X135908381Y-70464381D01*
X135908379Y-70464384D01*
X132629431Y-73743331D01*
X131484000Y-73743331D01*
X131361635Y-73766356D01*
X131249251Y-73838673D01*
X131173856Y-73949017D01*
X131147331Y-74080000D01*
X131147331Y-75780000D01*
X131170356Y-75902365D01*
X131242673Y-76014749D01*
X131353017Y-76090144D01*
X131484000Y-76116669D01*
X131703800Y-76116669D01*
X131703800Y-77010962D01*
X131536431Y-77178331D01*
X131011000Y-77178331D01*
X130888635Y-77201356D01*
X130776251Y-77273673D01*
X130700856Y-77384017D01*
X130674331Y-77515000D01*
X129557238Y-77515000D01*
X130239619Y-76832619D01*
X130376229Y-76628167D01*
X130424200Y-76387000D01*
X130424200Y-76116669D01*
X130644000Y-76116669D01*
X130766365Y-76093644D01*
X130878749Y-76021327D01*
X130954144Y-75910983D01*
X130980669Y-75780000D01*
X130980669Y-74080000D01*
X130957644Y-73957635D01*
X130885327Y-73845251D01*
X130774983Y-73769856D01*
X130644000Y-73743331D01*
X130424200Y-73743331D01*
X130424200Y-71674602D01*
X130528749Y-71607327D01*
X130604144Y-71496983D01*
X130630669Y-71366000D01*
X130630669Y-70366000D01*
X130607644Y-70243635D01*
X130535327Y-70131251D01*
X130424983Y-70055856D01*
X130294000Y-70029331D01*
X129294000Y-70029331D01*
X129171635Y-70052356D01*
X129059251Y-70124673D01*
X128983856Y-70235017D01*
X128957331Y-70366000D01*
X128957331Y-71366000D01*
X128980356Y-71488365D01*
X129052673Y-71600749D01*
X129163017Y-71676144D01*
X129163800Y-71676303D01*
X129163800Y-73743331D01*
X128944000Y-73743331D01*
X128821635Y-73766356D01*
X128709251Y-73838673D01*
X128633856Y-73949017D01*
X128607331Y-74080000D01*
X128607331Y-75780000D01*
X128630356Y-75902365D01*
X128702673Y-76014749D01*
X128813017Y-76090144D01*
X128944000Y-76116669D01*
X129163800Y-76116669D01*
X129163800Y-76125962D01*
X128111431Y-77178331D01*
X127586000Y-77178331D01*
X127463635Y-77201356D01*
X127365040Y-77264800D01*
X125653635Y-77264800D01*
X125597000Y-77253331D01*
X124847000Y-77253331D01*
X124724635Y-77276356D01*
X124612251Y-77348673D01*
X124536856Y-77459017D01*
X124510331Y-77590000D01*
X123233669Y-77590000D01*
X123233669Y-76793569D01*
X123971037Y-76056200D01*
X126380746Y-76056200D01*
X126383673Y-76060749D01*
X126494017Y-76136144D01*
X126625000Y-76162669D01*
X127375000Y-76162669D01*
X127497365Y-76139644D01*
X127609749Y-76067327D01*
X127685144Y-75956983D01*
X127711669Y-75826000D01*
X127711669Y-75026000D01*
X127688644Y-74903635D01*
X127616327Y-74791251D01*
X127505983Y-74715856D01*
X127375000Y-74689331D01*
X126625000Y-74689331D01*
X126502635Y-74712356D01*
X126390251Y-74784673D01*
X126382648Y-74795800D01*
X124328200Y-74795800D01*
X124328200Y-74110150D01*
X126396400Y-74110150D01*
X126396400Y-74371471D01*
X126431202Y-74455491D01*
X126495508Y-74519797D01*
X126579528Y-74554600D01*
X126815850Y-74554600D01*
X126873000Y-74497450D01*
X126873000Y-74053000D01*
X127127000Y-74053000D01*
X127127000Y-74497450D01*
X127184150Y-74554600D01*
X127420472Y-74554600D01*
X127504492Y-74519797D01*
X127568798Y-74455491D01*
X127603600Y-74371471D01*
X127603600Y-74110150D01*
X127546450Y-74053000D01*
X127127000Y-74053000D01*
X126873000Y-74053000D01*
X126453550Y-74053000D01*
X126396400Y-74110150D01*
X124328200Y-74110150D01*
X124328200Y-73480529D01*
X126396400Y-73480529D01*
X126396400Y-73741850D01*
X126453550Y-73799000D01*
X126873000Y-73799000D01*
X126873000Y-73354550D01*
X127127000Y-73354550D01*
X127127000Y-73799000D01*
X127546450Y-73799000D01*
X127603600Y-73741850D01*
X127603600Y-73480529D01*
X127568798Y-73396509D01*
X127504492Y-73332203D01*
X127420472Y-73297400D01*
X127184150Y-73297400D01*
X127127000Y-73354550D01*
X126873000Y-73354550D01*
X126815850Y-73297400D01*
X126579528Y-73297400D01*
X126495508Y-73332203D01*
X126431202Y-73396509D01*
X126396400Y-73480529D01*
X124328200Y-73480529D01*
X124328200Y-72397038D01*
X124343543Y-72381695D01*
X124687940Y-72450200D01*
X124740060Y-72450200D01*
X125249106Y-72348945D01*
X125680653Y-72060593D01*
X125969005Y-71629046D01*
X126070260Y-71120000D01*
X125969005Y-70610954D01*
X125680653Y-70179407D01*
X125249106Y-69891055D01*
X124740060Y-69789800D01*
X124687940Y-69789800D01*
X124178894Y-69891055D01*
X123747347Y-70179407D01*
X123458995Y-70610954D01*
X123357740Y-71120000D01*
X123434892Y-71507870D01*
X123252381Y-71690381D01*
X123115771Y-71894833D01*
X123067800Y-72136000D01*
X123067800Y-75176963D01*
X122342431Y-75902331D01*
X121197000Y-75902331D01*
X121074635Y-75925356D01*
X120962251Y-75997673D01*
X120886856Y-76108017D01*
X120860331Y-76239000D01*
X116629926Y-76239000D01*
X116825005Y-75947046D01*
X116926260Y-75438000D01*
X116849108Y-75050130D01*
X119449199Y-72450039D01*
X119897432Y-72450430D01*
X120386513Y-72248346D01*
X120761031Y-71874481D01*
X120963968Y-71385754D01*
X120964430Y-70856568D01*
X120762346Y-70367487D01*
X120388481Y-69992969D01*
X119899754Y-69790032D01*
X119370568Y-69789570D01*
X118881487Y-69991654D01*
X118506969Y-70365519D01*
X118304032Y-70854246D01*
X118303570Y-71383432D01*
X118429224Y-71687538D01*
X116200200Y-73916562D01*
X116200200Y-71719396D01*
X116255144Y-71638983D01*
X116281669Y-71508000D01*
X116281669Y-70708000D01*
X116258644Y-70585635D01*
X116186327Y-70473251D01*
X116075983Y-70397856D01*
X115945000Y-70371331D01*
X115195000Y-70371331D01*
X115072635Y-70394356D01*
X114960251Y-70466673D01*
X114884856Y-70577017D01*
X114858331Y-70708000D01*
X114858331Y-71508000D01*
X114881356Y-71630365D01*
X114939800Y-71721190D01*
X114939800Y-74272595D01*
X114603347Y-74497407D01*
X114314995Y-74928954D01*
X114213740Y-75438000D01*
X111820200Y-75438000D01*
X111820430Y-75174568D01*
X111618346Y-74685487D01*
X111244481Y-74310969D01*
X110755754Y-74108032D01*
X110226568Y-74107570D01*
X109737487Y-74309654D01*
X109362969Y-74683519D01*
X109306380Y-74819800D01*
X106791254Y-74819800D01*
X106788327Y-74815251D01*
X106677983Y-74739856D01*
X106604140Y-74724902D01*
X103268282Y-71389044D01*
X103305017Y-71414144D01*
X103436000Y-71440669D01*
X104336000Y-71440669D01*
X104370379Y-71434200D01*
X105244027Y-71434200D01*
X105277893Y-71486829D01*
X105388237Y-71562224D01*
X105519220Y-71588749D01*
X106316780Y-71588749D01*
X106439145Y-71565724D01*
X106551529Y-71493407D01*
X106592462Y-71433500D01*
X107200700Y-71433500D01*
X107422733Y-71389335D01*
X107610963Y-71263563D01*
X107766057Y-71108469D01*
X107938246Y-71179968D01*
X108467432Y-71180430D01*
X108956513Y-70978346D01*
X109331031Y-70604481D01*
X109515400Y-70160471D01*
X109515400Y-70895471D01*
X109550202Y-70979491D01*
X109614508Y-71043797D01*
X109698528Y-71078600D01*
X110559850Y-71078600D01*
X110617000Y-71021450D01*
X110617000Y-69977000D01*
X110871000Y-69977000D01*
X110871000Y-71021450D01*
X110928150Y-71078600D01*
X111789472Y-71078600D01*
X111873492Y-71043797D01*
X111937798Y-70979491D01*
X111972600Y-70895471D01*
X111972600Y-70034150D01*
X111915450Y-69977000D01*
X110871000Y-69977000D01*
X110617000Y-69977000D01*
X110597000Y-69977000D01*
X110597000Y-69792150D01*
X114966400Y-69792150D01*
X114966400Y-70053471D01*
X115001202Y-70137491D01*
X115065508Y-70201797D01*
X115149528Y-70236600D01*
X115385850Y-70236600D01*
X115443000Y-70179450D01*
X115443000Y-69735000D01*
X115697000Y-69735000D01*
X115697000Y-70179450D01*
X115754150Y-70236600D01*
X115990472Y-70236600D01*
X116074492Y-70201797D01*
X116138798Y-70137491D01*
X116173600Y-70053471D01*
X116173600Y-69792150D01*
X116116450Y-69735000D01*
X115697000Y-69735000D01*
X115443000Y-69735000D01*
X115023550Y-69735000D01*
X114966400Y-69792150D01*
X110597000Y-69792150D01*
X110597000Y-69723000D01*
X110617000Y-69723000D01*
X110617000Y-68678550D01*
X110871000Y-68678550D01*
X110871000Y-69723000D01*
X111915450Y-69723000D01*
X111972600Y-69665850D01*
X111972600Y-69162529D01*
X114966400Y-69162529D01*
X114966400Y-69423850D01*
X115023550Y-69481000D01*
X115443000Y-69481000D01*
X115443000Y-69036550D01*
X115697000Y-69036550D01*
X115697000Y-69481000D01*
X116116450Y-69481000D01*
X116173600Y-69423850D01*
X116173600Y-69212805D01*
X132465691Y-69212805D01*
X132561431Y-69444513D01*
X132712762Y-69596109D01*
X132562054Y-69746554D01*
X132465910Y-69978096D01*
X132465691Y-70228805D01*
X132561431Y-70460513D01*
X132712762Y-70612109D01*
X132562054Y-70762554D01*
X132465910Y-70994096D01*
X132465691Y-71244805D01*
X132561431Y-71476513D01*
X132738554Y-71653946D01*
X132970096Y-71750090D01*
X133220805Y-71750309D01*
X133452513Y-71654569D01*
X133629946Y-71477446D01*
X133726090Y-71245904D01*
X133726309Y-70995195D01*
X133630569Y-70763487D01*
X133479238Y-70611891D01*
X133629946Y-70461446D01*
X133726090Y-70229904D01*
X133726309Y-69979195D01*
X133630569Y-69747487D01*
X133479238Y-69595891D01*
X133629946Y-69445446D01*
X133726090Y-69213904D01*
X133726309Y-68963195D01*
X133630569Y-68731487D01*
X133453446Y-68554054D01*
X133221904Y-68457910D01*
X132971195Y-68457691D01*
X132739487Y-68553431D01*
X132562054Y-68730554D01*
X132465910Y-68962096D01*
X132465691Y-69212805D01*
X116173600Y-69212805D01*
X116173600Y-69162529D01*
X116138798Y-69078509D01*
X116074492Y-69014203D01*
X115990472Y-68979400D01*
X115754150Y-68979400D01*
X115697000Y-69036550D01*
X115443000Y-69036550D01*
X115385850Y-68979400D01*
X115149528Y-68979400D01*
X115065508Y-69014203D01*
X115001202Y-69078509D01*
X114966400Y-69162529D01*
X111972600Y-69162529D01*
X111972600Y-68804529D01*
X111937798Y-68720509D01*
X111873492Y-68656203D01*
X111789472Y-68621400D01*
X110928150Y-68621400D01*
X110871000Y-68678550D01*
X110617000Y-68678550D01*
X110559850Y-68621400D01*
X109698528Y-68621400D01*
X109614508Y-68656203D01*
X109550202Y-68720509D01*
X109515400Y-68804529D01*
X109515400Y-69540512D01*
X109332346Y-69097487D01*
X108958481Y-68722969D01*
X108469754Y-68520032D01*
X107940568Y-68519570D01*
X107451487Y-68721654D01*
X107076969Y-69095519D01*
X106874032Y-69584246D01*
X106873570Y-70113432D01*
X106939543Y-70273100D01*
X106592423Y-70273100D01*
X106558107Y-70219771D01*
X106447763Y-70144376D01*
X106316780Y-70117851D01*
X105519220Y-70117851D01*
X105396855Y-70140876D01*
X105284471Y-70213193D01*
X105243060Y-70273800D01*
X104367945Y-70273800D01*
X104336000Y-70267331D01*
X103436000Y-70267331D01*
X103313635Y-70290356D01*
X103201251Y-70362673D01*
X103125856Y-70473017D01*
X103099331Y-70604000D01*
X103099331Y-71104000D01*
X103122356Y-71226365D01*
X103152594Y-71273356D01*
X102680619Y-70801381D01*
X102476167Y-70664771D01*
X102235000Y-70616800D01*
X102151669Y-70616800D01*
X102151669Y-70397000D01*
X102128644Y-70274635D01*
X102056327Y-70162251D01*
X101945983Y-70086856D01*
X101815000Y-70060331D01*
X100115000Y-70060331D01*
X99992635Y-70083356D01*
X99880251Y-70155673D01*
X99804856Y-70266017D01*
X99778331Y-70397000D01*
X97601151Y-70397000D01*
X97610669Y-70350000D01*
X97610669Y-69350000D01*
X97587644Y-69227635D01*
X97515327Y-69115251D01*
X97404983Y-69039856D01*
X97274000Y-69013331D01*
X96757857Y-69013331D01*
X96591287Y-68846761D01*
X96650365Y-68835644D01*
X96762749Y-68763327D01*
X96838144Y-68652983D01*
X96864669Y-68522000D01*
X96864669Y-67636200D01*
X97041674Y-67636200D01*
X97191331Y-67785857D01*
X97191331Y-68522000D01*
X97214356Y-68644365D01*
X97286673Y-68756749D01*
X97397017Y-68832144D01*
X97528000Y-68858669D01*
X98728000Y-68858669D01*
X98850365Y-68835644D01*
X98962749Y-68763327D01*
X99038144Y-68652983D01*
X99064669Y-68522000D01*
X99064669Y-67622000D01*
X99041644Y-67499635D01*
X98969327Y-67387251D01*
X98858983Y-67311856D01*
X98728000Y-67285331D01*
X98331858Y-67285331D01*
X97692263Y-66645737D01*
X97550145Y-66550776D01*
X97603193Y-66528806D01*
X97923270Y-66255550D01*
X98114412Y-65880606D01*
X98090316Y-65714611D01*
X97203356Y-65714611D01*
X97203356Y-65734611D01*
X96949356Y-65734611D01*
X96949356Y-65714611D01*
X96929356Y-65714611D01*
X96929356Y-65564490D01*
X98436156Y-65564490D01*
X98436156Y-65610732D01*
X98525993Y-66062375D01*
X98781829Y-66445259D01*
X99164713Y-66701095D01*
X99616356Y-66790932D01*
X100067999Y-66701095D01*
X100450883Y-66445259D01*
X100706719Y-66062375D01*
X100796556Y-65610732D01*
X100796556Y-65564490D01*
X100976156Y-65564490D01*
X100976156Y-65610732D01*
X101065993Y-66062375D01*
X101321829Y-66445259D01*
X101576156Y-66615196D01*
X101576156Y-67624356D01*
X101609389Y-67791431D01*
X101620321Y-67846389D01*
X101746093Y-68034619D01*
X103099331Y-69387857D01*
X103099331Y-69604000D01*
X103122356Y-69726365D01*
X103194673Y-69838749D01*
X103305017Y-69914144D01*
X103436000Y-69940669D01*
X104336000Y-69940669D01*
X104458365Y-69917644D01*
X104570749Y-69845327D01*
X104646144Y-69734983D01*
X104672669Y-69604000D01*
X104672669Y-69538850D01*
X105290620Y-69538850D01*
X105290620Y-69798951D01*
X105325422Y-69882971D01*
X105389728Y-69947277D01*
X105473748Y-69982080D01*
X105733850Y-69982080D01*
X105791000Y-69924930D01*
X105791000Y-69481700D01*
X106045000Y-69481700D01*
X106045000Y-69924930D01*
X106102150Y-69982080D01*
X106362252Y-69982080D01*
X106446272Y-69947277D01*
X106510578Y-69882971D01*
X106545380Y-69798951D01*
X106545380Y-69538850D01*
X106488230Y-69481700D01*
X106045000Y-69481700D01*
X105791000Y-69481700D01*
X105347770Y-69481700D01*
X105290620Y-69538850D01*
X104672669Y-69538850D01*
X104672669Y-69104000D01*
X104649644Y-68981635D01*
X104603838Y-68910449D01*
X105290620Y-68910449D01*
X105290620Y-69170550D01*
X105347770Y-69227700D01*
X105791000Y-69227700D01*
X105791000Y-68784470D01*
X106045000Y-68784470D01*
X106045000Y-69227700D01*
X106488230Y-69227700D01*
X106545380Y-69170550D01*
X106545380Y-68910449D01*
X106510578Y-68826429D01*
X106446272Y-68762123D01*
X106362252Y-68727320D01*
X106102150Y-68727320D01*
X106045000Y-68784470D01*
X105791000Y-68784470D01*
X105733850Y-68727320D01*
X105473748Y-68727320D01*
X105389728Y-68762123D01*
X105325422Y-68826429D01*
X105290620Y-68910449D01*
X104603838Y-68910449D01*
X104577327Y-68869251D01*
X104466983Y-68793856D01*
X104336000Y-68767331D01*
X104119857Y-68767331D01*
X103803331Y-68450805D01*
X127131691Y-68450805D01*
X127227431Y-68682513D01*
X127404554Y-68859946D01*
X127636096Y-68956090D01*
X127886805Y-68956309D01*
X128118513Y-68860569D01*
X128295946Y-68683446D01*
X128392090Y-68451904D01*
X128392090Y-68450805D01*
X128401691Y-68450805D01*
X128497431Y-68682513D01*
X128674554Y-68859946D01*
X128906096Y-68956090D01*
X129156805Y-68956309D01*
X129388513Y-68860569D01*
X129565946Y-68683446D01*
X129662090Y-68451904D01*
X129662090Y-68450805D01*
X129671691Y-68450805D01*
X129767431Y-68682513D01*
X129944554Y-68859946D01*
X130176096Y-68956090D01*
X130426805Y-68956309D01*
X130658513Y-68860569D01*
X130835946Y-68683446D01*
X130932090Y-68451904D01*
X130932090Y-68450805D01*
X130941691Y-68450805D01*
X131037431Y-68682513D01*
X131214554Y-68859946D01*
X131446096Y-68956090D01*
X131696805Y-68956309D01*
X131928513Y-68860569D01*
X132105946Y-68683446D01*
X132202090Y-68451904D01*
X132202309Y-68201195D01*
X132106569Y-67969487D01*
X131929446Y-67792054D01*
X131697904Y-67695910D01*
X131447195Y-67695691D01*
X131215487Y-67791431D01*
X131038054Y-67968554D01*
X130941910Y-68200096D01*
X130941691Y-68450805D01*
X130932090Y-68450805D01*
X130932309Y-68201195D01*
X130836569Y-67969487D01*
X130659446Y-67792054D01*
X130427904Y-67695910D01*
X130177195Y-67695691D01*
X129945487Y-67791431D01*
X129768054Y-67968554D01*
X129671910Y-68200096D01*
X129671691Y-68450805D01*
X129662090Y-68450805D01*
X129662309Y-68201195D01*
X129566569Y-67969487D01*
X129389446Y-67792054D01*
X129157904Y-67695910D01*
X128907195Y-67695691D01*
X128675487Y-67791431D01*
X128498054Y-67968554D01*
X128401910Y-68200096D01*
X128401691Y-68450805D01*
X128392090Y-68450805D01*
X128392309Y-68201195D01*
X128296569Y-67969487D01*
X128119446Y-67792054D01*
X127887904Y-67695910D01*
X127637195Y-67695691D01*
X127405487Y-67791431D01*
X127228054Y-67968554D01*
X127131910Y-68200096D01*
X127131691Y-68450805D01*
X103803331Y-68450805D01*
X102736556Y-67384030D01*
X102736556Y-66615196D01*
X102990883Y-66445259D01*
X103246719Y-66062375D01*
X103336556Y-65610732D01*
X103336556Y-65564490D01*
X103246719Y-65112847D01*
X102995994Y-64737611D01*
X103509687Y-64737611D01*
X103509687Y-66437611D01*
X103532712Y-66559976D01*
X103605029Y-66672360D01*
X103715373Y-66747755D01*
X103846356Y-66774280D01*
X105546356Y-66774280D01*
X105668721Y-66751255D01*
X105781105Y-66678938D01*
X105856500Y-66568594D01*
X105883025Y-66437611D01*
X105883025Y-65564490D01*
X106056156Y-65564490D01*
X106056156Y-65610732D01*
X106145993Y-66062375D01*
X106401829Y-66445259D01*
X106784713Y-66701095D01*
X107236356Y-66790932D01*
X107687999Y-66701095D01*
X108070883Y-66445259D01*
X108326719Y-66062375D01*
X108416556Y-65610732D01*
X108416556Y-65564490D01*
X108596156Y-65564490D01*
X108596156Y-65610732D01*
X108685993Y-66062375D01*
X108941829Y-66445259D01*
X109324713Y-66701095D01*
X109776356Y-66790932D01*
X110227999Y-66701095D01*
X110610883Y-66445259D01*
X110866719Y-66062375D01*
X110956556Y-65610732D01*
X110956556Y-65564490D01*
X111136156Y-65564490D01*
X111136156Y-65610732D01*
X111225993Y-66062375D01*
X111481829Y-66445259D01*
X111864713Y-66701095D01*
X112316356Y-66790932D01*
X112767999Y-66701095D01*
X113150883Y-66445259D01*
X113406719Y-66062375D01*
X113496556Y-65610732D01*
X113496556Y-65564490D01*
X113676156Y-65564490D01*
X113676156Y-65610732D01*
X113765993Y-66062375D01*
X114021829Y-66445259D01*
X114404713Y-66701095D01*
X114856356Y-66790932D01*
X115307999Y-66701095D01*
X115690883Y-66445259D01*
X115946719Y-66062375D01*
X115982874Y-65880606D01*
X116358300Y-65880606D01*
X116549442Y-66255550D01*
X116869519Y-66528806D01*
X117103363Y-66625654D01*
X117269356Y-66601135D01*
X117269356Y-65714611D01*
X117523356Y-65714611D01*
X117523356Y-66601135D01*
X117689349Y-66625654D01*
X117923193Y-66528806D01*
X118243270Y-66255550D01*
X118434412Y-65880606D01*
X118410316Y-65714611D01*
X117523356Y-65714611D01*
X117269356Y-65714611D01*
X116382396Y-65714611D01*
X116358300Y-65880606D01*
X115982874Y-65880606D01*
X116036556Y-65610732D01*
X116036556Y-65564490D01*
X118756156Y-65564490D01*
X118756156Y-65610732D01*
X118845993Y-66062375D01*
X119101829Y-66445259D01*
X119484713Y-66701095D01*
X119936356Y-66790932D01*
X120387999Y-66701095D01*
X120770883Y-66445259D01*
X121026719Y-66062375D01*
X121116556Y-65610732D01*
X121116556Y-65564490D01*
X121296156Y-65564490D01*
X121296156Y-65610732D01*
X121385993Y-66062375D01*
X121641829Y-66445259D01*
X122024713Y-66701095D01*
X122476356Y-66790932D01*
X122927999Y-66701095D01*
X123310883Y-66445259D01*
X123566719Y-66062375D01*
X123656556Y-65610732D01*
X123656556Y-65564490D01*
X123836156Y-65564490D01*
X123836156Y-65610732D01*
X123925993Y-66062375D01*
X124181829Y-66445259D01*
X124564713Y-66701095D01*
X125016356Y-66790932D01*
X125467999Y-66701095D01*
X125850883Y-66445259D01*
X126106719Y-66062375D01*
X126196556Y-65610732D01*
X126196556Y-65564490D01*
X126376156Y-65564490D01*
X126376156Y-65610732D01*
X126465993Y-66062375D01*
X126721829Y-66445259D01*
X127104713Y-66701095D01*
X127556356Y-66790932D01*
X128007999Y-66701095D01*
X128390883Y-66445259D01*
X128646719Y-66062375D01*
X128736556Y-65610732D01*
X128736556Y-65564490D01*
X128916156Y-65564490D01*
X128916156Y-65610732D01*
X129005993Y-66062375D01*
X129261829Y-66445259D01*
X129644713Y-66701095D01*
X130096356Y-66790932D01*
X130547999Y-66701095D01*
X130930883Y-66445259D01*
X131186719Y-66062375D01*
X131276556Y-65610732D01*
X131276556Y-65564490D01*
X131456156Y-65564490D01*
X131456156Y-65610732D01*
X131545993Y-66062375D01*
X131801829Y-66445259D01*
X132184713Y-66701095D01*
X132636356Y-66790932D01*
X133087999Y-66701095D01*
X133470883Y-66445259D01*
X133726719Y-66062375D01*
X133762874Y-65880606D01*
X134138300Y-65880606D01*
X134329442Y-66255550D01*
X134649519Y-66528806D01*
X134883363Y-66625654D01*
X135049356Y-66601135D01*
X135049356Y-65714611D01*
X135303356Y-65714611D01*
X135303356Y-66601135D01*
X135469349Y-66625654D01*
X135703193Y-66528806D01*
X136023270Y-66255550D01*
X136214412Y-65880606D01*
X136190316Y-65714611D01*
X135303356Y-65714611D01*
X135049356Y-65714611D01*
X134162396Y-65714611D01*
X134138300Y-65880606D01*
X133762874Y-65880606D01*
X133816556Y-65610732D01*
X133816556Y-65564490D01*
X133762875Y-65294616D01*
X134138300Y-65294616D01*
X134162396Y-65460611D01*
X135049356Y-65460611D01*
X135049356Y-64574087D01*
X135303356Y-64574087D01*
X135303356Y-65460611D01*
X136190316Y-65460611D01*
X136214412Y-65294616D01*
X136023270Y-64919672D01*
X135703193Y-64646416D01*
X135469349Y-64549568D01*
X135303356Y-64574087D01*
X135049356Y-64574087D01*
X134883363Y-64549568D01*
X134649519Y-64646416D01*
X134329442Y-64919672D01*
X134138300Y-65294616D01*
X133762875Y-65294616D01*
X133726719Y-65112847D01*
X133470883Y-64729963D01*
X133087999Y-64474127D01*
X132636356Y-64384290D01*
X132184713Y-64474127D01*
X131801829Y-64729963D01*
X131545993Y-65112847D01*
X131456156Y-65564490D01*
X131276556Y-65564490D01*
X131186719Y-65112847D01*
X130930883Y-64729963D01*
X130547999Y-64474127D01*
X130096356Y-64384290D01*
X129644713Y-64474127D01*
X129261829Y-64729963D01*
X129005993Y-65112847D01*
X128916156Y-65564490D01*
X128736556Y-65564490D01*
X128646719Y-65112847D01*
X128390883Y-64729963D01*
X128007999Y-64474127D01*
X127556356Y-64384290D01*
X127104713Y-64474127D01*
X126721829Y-64729963D01*
X126465993Y-65112847D01*
X126376156Y-65564490D01*
X126196556Y-65564490D01*
X126106719Y-65112847D01*
X125850883Y-64729963D01*
X125467999Y-64474127D01*
X125016356Y-64384290D01*
X124564713Y-64474127D01*
X124181829Y-64729963D01*
X123925993Y-65112847D01*
X123836156Y-65564490D01*
X123656556Y-65564490D01*
X123566719Y-65112847D01*
X123310883Y-64729963D01*
X122927999Y-64474127D01*
X122476356Y-64384290D01*
X122024713Y-64474127D01*
X121641829Y-64729963D01*
X121385993Y-65112847D01*
X121296156Y-65564490D01*
X121116556Y-65564490D01*
X121026719Y-65112847D01*
X120770883Y-64729963D01*
X120387999Y-64474127D01*
X119936356Y-64384290D01*
X119484713Y-64474127D01*
X119101829Y-64729963D01*
X118845993Y-65112847D01*
X118756156Y-65564490D01*
X116036556Y-65564490D01*
X115982875Y-65294616D01*
X116358300Y-65294616D01*
X116382396Y-65460611D01*
X117269356Y-65460611D01*
X117269356Y-64574087D01*
X117523356Y-64574087D01*
X117523356Y-65460611D01*
X118410316Y-65460611D01*
X118434412Y-65294616D01*
X118243270Y-64919672D01*
X117923193Y-64646416D01*
X117689349Y-64549568D01*
X117523356Y-64574087D01*
X117269356Y-64574087D01*
X117103363Y-64549568D01*
X116869519Y-64646416D01*
X116549442Y-64919672D01*
X116358300Y-65294616D01*
X115982875Y-65294616D01*
X115946719Y-65112847D01*
X115690883Y-64729963D01*
X115307999Y-64474127D01*
X114856356Y-64384290D01*
X114404713Y-64474127D01*
X114021829Y-64729963D01*
X113765993Y-65112847D01*
X113676156Y-65564490D01*
X113496556Y-65564490D01*
X113406719Y-65112847D01*
X113150883Y-64729963D01*
X112767999Y-64474127D01*
X112316356Y-64384290D01*
X111864713Y-64474127D01*
X111481829Y-64729963D01*
X111225993Y-65112847D01*
X111136156Y-65564490D01*
X110956556Y-65564490D01*
X110866719Y-65112847D01*
X110610883Y-64729963D01*
X110227999Y-64474127D01*
X109776356Y-64384290D01*
X109324713Y-64474127D01*
X108941829Y-64729963D01*
X108685993Y-65112847D01*
X108596156Y-65564490D01*
X108416556Y-65564490D01*
X108326719Y-65112847D01*
X108070883Y-64729963D01*
X107687999Y-64474127D01*
X107236356Y-64384290D01*
X106784713Y-64474127D01*
X106401829Y-64729963D01*
X106145993Y-65112847D01*
X106056156Y-65564490D01*
X105883025Y-65564490D01*
X105883025Y-64737611D01*
X105860000Y-64615246D01*
X105787683Y-64502862D01*
X105677339Y-64427467D01*
X105546356Y-64400942D01*
X103846356Y-64400942D01*
X103723991Y-64423967D01*
X103611607Y-64496284D01*
X103536212Y-64606628D01*
X103509687Y-64737611D01*
X102995994Y-64737611D01*
X102990883Y-64729963D01*
X102607999Y-64474127D01*
X102156356Y-64384290D01*
X101704713Y-64474127D01*
X101321829Y-64729963D01*
X101065993Y-65112847D01*
X100976156Y-65564490D01*
X100796556Y-65564490D01*
X100706719Y-65112847D01*
X100450883Y-64729963D01*
X100067999Y-64474127D01*
X99616356Y-64384290D01*
X99164713Y-64474127D01*
X98781829Y-64729963D01*
X98525993Y-65112847D01*
X98436156Y-65564490D01*
X96929356Y-65564490D01*
X96929356Y-65460611D01*
X96949356Y-65460611D01*
X96949356Y-64574087D01*
X97203356Y-64574087D01*
X97203356Y-65460611D01*
X98090316Y-65460611D01*
X98114412Y-65294616D01*
X97923270Y-64919672D01*
X97603193Y-64646416D01*
X97369349Y-64549568D01*
X97203356Y-64574087D01*
X96949356Y-64574087D01*
X96783363Y-64549568D01*
X96549519Y-64646416D01*
X96393000Y-64780039D01*
X96393000Y-64006269D01*
X96624713Y-64161095D01*
X97076356Y-64250932D01*
X97527999Y-64161095D01*
X97910883Y-63905259D01*
X98166719Y-63522375D01*
X98256556Y-63070732D01*
X98256556Y-63024490D01*
X98166719Y-62572847D01*
X97910883Y-62189963D01*
X97766873Y-62093738D01*
X98936645Y-62086517D01*
X98781829Y-62189963D01*
X98525993Y-62572847D01*
X98436156Y-63024490D01*
X98436156Y-63070732D01*
X98525993Y-63522375D01*
X98781829Y-63905259D01*
X99164713Y-64161095D01*
X99616356Y-64250932D01*
X100067999Y-64161095D01*
X100450883Y-63905259D01*
X100706719Y-63522375D01*
X100742874Y-63340606D01*
X101118300Y-63340606D01*
X101309442Y-63715550D01*
X101629519Y-63988806D01*
X101863363Y-64085654D01*
X102029356Y-64061135D01*
X102029356Y-63174611D01*
X102283356Y-63174611D01*
X102283356Y-64061135D01*
X102449349Y-64085654D01*
X102683193Y-63988806D01*
X103003270Y-63715550D01*
X103194412Y-63340606D01*
X103170316Y-63174611D01*
X102283356Y-63174611D01*
X102029356Y-63174611D01*
X101142396Y-63174611D01*
X101118300Y-63340606D01*
X100742874Y-63340606D01*
X100796556Y-63070732D01*
X100796556Y-63024490D01*
X100706719Y-62572847D01*
X100450883Y-62189963D01*
X100283623Y-62078203D01*
X101719035Y-62069342D01*
X101629519Y-62106416D01*
X101309442Y-62379672D01*
X101118300Y-62754616D01*
X101142396Y-62920611D01*
X102029356Y-62920611D01*
X102029356Y-62900611D01*
X102283356Y-62900611D01*
X102283356Y-62920611D01*
X103170316Y-62920611D01*
X103194412Y-62754616D01*
X103003270Y-62379672D01*
X102683193Y-62106416D01*
X102580832Y-62064023D01*
X104064013Y-62054867D01*
X103861829Y-62189963D01*
X103605993Y-62572847D01*
X103516156Y-63024490D01*
X103516156Y-63070732D01*
X103605993Y-63522375D01*
X103861829Y-63905259D01*
X104244713Y-64161095D01*
X104696356Y-64250932D01*
X105147999Y-64161095D01*
X105530883Y-63905259D01*
X105786719Y-63522375D01*
X105876556Y-63070732D01*
X105876556Y-63024490D01*
X105786719Y-62572847D01*
X105530883Y-62189963D01*
X105317122Y-62047132D01*
X106627697Y-62039042D01*
X106401829Y-62189963D01*
X106145993Y-62572847D01*
X106056156Y-63024490D01*
X106056156Y-63070732D01*
X106145993Y-63522375D01*
X106401829Y-63905259D01*
X106784713Y-64161095D01*
X107236356Y-64250932D01*
X107687999Y-64161095D01*
X108070883Y-63905259D01*
X108326719Y-63522375D01*
X108362874Y-63340606D01*
X108738300Y-63340606D01*
X108929442Y-63715550D01*
X109249519Y-63988806D01*
X109483363Y-64085654D01*
X109649356Y-64061135D01*
X109649356Y-63174611D01*
X109903356Y-63174611D01*
X109903356Y-64061135D01*
X110069349Y-64085654D01*
X110303193Y-63988806D01*
X110623270Y-63715550D01*
X110814412Y-63340606D01*
X110790316Y-63174611D01*
X109903356Y-63174611D01*
X109649356Y-63174611D01*
X108762396Y-63174611D01*
X108738300Y-63340606D01*
X108362874Y-63340606D01*
X108416556Y-63070732D01*
X108416556Y-63024490D01*
X108326719Y-62572847D01*
X108070883Y-62189963D01*
X107833872Y-62031596D01*
X109454327Y-62021594D01*
X109249519Y-62106416D01*
X108929442Y-62379672D01*
X108738300Y-62754616D01*
X108762396Y-62920611D01*
X109649356Y-62920611D01*
X109649356Y-62900611D01*
X109903356Y-62900611D01*
X109903356Y-62920611D01*
X110790316Y-62920611D01*
X110814412Y-62754616D01*
X110623270Y-62379672D01*
X110303193Y-62106416D01*
X110088927Y-62017676D01*
X111755065Y-62007391D01*
X111481829Y-62189963D01*
X111225993Y-62572847D01*
X111136156Y-63024490D01*
X111136156Y-63070732D01*
X111225993Y-63522375D01*
X111481829Y-63905259D01*
X111864713Y-64161095D01*
X112316356Y-64250932D01*
X112767999Y-64161095D01*
X113150883Y-63905259D01*
X113406719Y-63522375D01*
X113496556Y-63070732D01*
X113496556Y-63024490D01*
X113406719Y-62572847D01*
X113150883Y-62189963D01*
X112867371Y-62000525D01*
X114318749Y-61991566D01*
X114021829Y-62189963D01*
X113765993Y-62572847D01*
X113676156Y-63024490D01*
X113676156Y-63070732D01*
X113765993Y-63522375D01*
X114021829Y-63905259D01*
X114404713Y-64161095D01*
X114856356Y-64250932D01*
X115307999Y-64161095D01*
X115690883Y-63905259D01*
X115946719Y-63522375D01*
X116036556Y-63070732D01*
X116036556Y-63024490D01*
X115946719Y-62572847D01*
X115690883Y-62189963D01*
X115384120Y-61984990D01*
X116882433Y-61975741D01*
X116561829Y-62189963D01*
X116305993Y-62572847D01*
X116216156Y-63024490D01*
X116216156Y-63070732D01*
X116305993Y-63522375D01*
X116561829Y-63905259D01*
X116944713Y-64161095D01*
X117396356Y-64250932D01*
X117847999Y-64161095D01*
X118230883Y-63905259D01*
X118486719Y-63522375D01*
X118576556Y-63070732D01*
X118576556Y-63024490D01*
X118486719Y-62572847D01*
X118230883Y-62189963D01*
X117900870Y-61969454D01*
X119446117Y-61959916D01*
X119101829Y-62189963D01*
X118845993Y-62572847D01*
X118756156Y-63024490D01*
X118756156Y-63070732D01*
X118845993Y-63522375D01*
X119101829Y-63905259D01*
X119484713Y-64161095D01*
X119936356Y-64250932D01*
X120387999Y-64161095D01*
X120770883Y-63905259D01*
X121026719Y-63522375D01*
X121062874Y-63340606D01*
X121438300Y-63340606D01*
X121629442Y-63715550D01*
X121949519Y-63988806D01*
X122183363Y-64085654D01*
X122349356Y-64061135D01*
X122349356Y-63174611D01*
X122603356Y-63174611D01*
X122603356Y-64061135D01*
X122769349Y-64085654D01*
X123003193Y-63988806D01*
X123323270Y-63715550D01*
X123514412Y-63340606D01*
X123490316Y-63174611D01*
X122603356Y-63174611D01*
X122349356Y-63174611D01*
X121462396Y-63174611D01*
X121438300Y-63340606D01*
X121062874Y-63340606D01*
X121116556Y-63070732D01*
X121116556Y-63024490D01*
X121062875Y-62754616D01*
X121438300Y-62754616D01*
X121462396Y-62920611D01*
X122349356Y-62920611D01*
X122349356Y-62034087D01*
X122603356Y-62034087D01*
X122603356Y-62920611D01*
X123490316Y-62920611D01*
X123514412Y-62754616D01*
X123323270Y-62379672D01*
X123003193Y-62106416D01*
X122769349Y-62009568D01*
X122603356Y-62034087D01*
X122349356Y-62034087D01*
X122183363Y-62009568D01*
X121949519Y-62106416D01*
X121629442Y-62379672D01*
X121438300Y-62754616D01*
X121062875Y-62754616D01*
X121026719Y-62572847D01*
X120770883Y-62189963D01*
X120417620Y-61953919D01*
X124594844Y-61928134D01*
X124564713Y-61934127D01*
X124181829Y-62189963D01*
X123925993Y-62572847D01*
X123836156Y-63024490D01*
X123836156Y-63070732D01*
X123925993Y-63522375D01*
X124181829Y-63905259D01*
X124564713Y-64161095D01*
X125016356Y-64250932D01*
X125467999Y-64161095D01*
X125850883Y-63905259D01*
X126106719Y-63522375D01*
X126142874Y-63340606D01*
X126518300Y-63340606D01*
X126709442Y-63715550D01*
X127029519Y-63988806D01*
X127263363Y-64085654D01*
X127429356Y-64061135D01*
X127429356Y-63174611D01*
X127683356Y-63174611D01*
X127683356Y-64061135D01*
X127849349Y-64085654D01*
X128083193Y-63988806D01*
X128403270Y-63715550D01*
X128594412Y-63340606D01*
X128570316Y-63174611D01*
X127683356Y-63174611D01*
X127429356Y-63174611D01*
X126542396Y-63174611D01*
X126518300Y-63340606D01*
X126142874Y-63340606D01*
X126196556Y-63070732D01*
X126196556Y-63024490D01*
X126142875Y-62754616D01*
X126518300Y-62754616D01*
X126542396Y-62920611D01*
X127429356Y-62920611D01*
X127429356Y-62034087D01*
X127683356Y-62034087D01*
X127683356Y-62920611D01*
X128570316Y-62920611D01*
X128594412Y-62754616D01*
X128403270Y-62379672D01*
X128083193Y-62106416D01*
X127849349Y-62009568D01*
X127683356Y-62034087D01*
X127429356Y-62034087D01*
X127263363Y-62009568D01*
X127029519Y-62106416D01*
X126709442Y-62379672D01*
X126518300Y-62754616D01*
X126142875Y-62754616D01*
X126106719Y-62572847D01*
X125850883Y-62189963D01*
X125467999Y-61934127D01*
X125412494Y-61923086D01*
X129837541Y-61895771D01*
X129644713Y-61934127D01*
X129261829Y-62189963D01*
X129005993Y-62572847D01*
X128916156Y-63024490D01*
X128916156Y-63070732D01*
X129005993Y-63522375D01*
X129261829Y-63905259D01*
X129644713Y-64161095D01*
X130096356Y-64250932D01*
X130547999Y-64161095D01*
X130930883Y-63905259D01*
X131186719Y-63522375D01*
X131276556Y-63070732D01*
X131276556Y-63024490D01*
X131186719Y-62572847D01*
X130930883Y-62189963D01*
X130547999Y-61934127D01*
X130339591Y-61892672D01*
X132458889Y-61879590D01*
X132184713Y-61934127D01*
X131801829Y-62189963D01*
X131545993Y-62572847D01*
X131456156Y-63024490D01*
X131456156Y-63070732D01*
X131545993Y-63522375D01*
X131801829Y-63905259D01*
X132184713Y-64161095D01*
X132636356Y-64250932D01*
X133087999Y-64161095D01*
X133470883Y-63905259D01*
X133726719Y-63522375D01*
X133816556Y-63070732D01*
X133816556Y-63024490D01*
X133726719Y-62572847D01*
X133470883Y-62189963D01*
X133087999Y-61934127D01*
X132803140Y-61877465D01*
X135080238Y-61863409D01*
X134724713Y-61934127D01*
X134341829Y-62189963D01*
X134085993Y-62572847D01*
X133996156Y-63024490D01*
X133996156Y-63070732D01*
X134085993Y-63522375D01*
X134341829Y-63905259D01*
X134724713Y-64161095D01*
X135176356Y-64250932D01*
X135627999Y-64161095D01*
X136010883Y-63905259D01*
X136266719Y-63522375D01*
X136356556Y-63070732D01*
X136356556Y-63024490D01*
X136266719Y-62572847D01*
X136010883Y-62189963D01*
X135627999Y-61934127D01*
X135266688Y-61862258D01*
X137356185Y-61849360D01*
X137634498Y-62171617D01*
M02*
