M48
;DRILL file {KiCad 4.0.6} date Sunday, December 16, 2018 'PMt' 05:25:40 PM
;FORMAT={2:4/ absolute / inch / keep zeros}
FMAT,2
INCH,TZ
T1C0.012
T2C0.026
T3C0.031
T4C0.039
T5C0.039
T6C0.040
T7C0.051
T8C0.108
%
G90
G05
M72
T1
X032150Y-032600
X032700Y-032100
X032850Y-033150
X034500Y-027900
X034550Y-027350
X034950Y-031850
X034950Y-032150
X034950Y-032450
X035400Y-030300
X035400Y-030700
X035500Y-033150
X035500Y-033450
X035500Y-033750
X035500Y-034050
X035500Y-034350
X035600Y-026700
X035750Y-033000
X035750Y-033300
X035750Y-033600
X035750Y-033900
X035750Y-034200
X036000Y-032850
X036000Y-033150
X036000Y-033450
X036000Y-033750
X036000Y-034050
X036000Y-034350
X036250Y-027150
X036250Y-033000
X036250Y-033300
X036250Y-033600
X036250Y-033900
X036250Y-034200
X036500Y-033150
X036500Y-033450
X036500Y-033750
X036500Y-034050
X036500Y-034350
X036900Y-027150
X037300Y-032850
X037750Y-034300
X040700Y-029800
X040700Y-030300
X040700Y-030800
X041200Y-029800
X041200Y-030300
X041200Y-030800
X047400Y-034000
X047900Y-034000
X048500Y-034000
X049000Y-034000
X049500Y-034000
X050300Y-026900
X050800Y-026900
X051300Y-026900
X051800Y-026900
X052400Y-027200
X052400Y-027600
X052400Y-028000
T2
X036200Y-030800
X038100Y-027500
X049300Y-032400
X051100Y-027900
X051700Y-034600
T3
X037706Y-031817
X038306Y-033617
X040274Y-033617
X041337Y-033617
X041706Y-031817
X042706Y-031817
X043306Y-033617
X044337Y-033617
X046306Y-033617
X046706Y-031817
T4
X031752Y-028346
X031752Y-029346
X031752Y-030346
X031752Y-031346
X034219Y-024822
X034219Y-025822
X034400Y-029150
X034400Y-031150
X035219Y-024822
X035219Y-025822
X036219Y-024822
X036219Y-025822
X037219Y-024822
X037219Y-025822
X038219Y-024822
X038219Y-025822
X039219Y-024822
X039219Y-025822
X039750Y-028050
X039750Y-029050
X039750Y-030050
X040219Y-024822
X040219Y-025822
X041219Y-024822
X041219Y-025822
X042219Y-024822
X042219Y-025822
X043219Y-024822
X043219Y-025822
X043500Y-029700
X044219Y-024822
X044219Y-025822
X045219Y-024822
X045219Y-025822
X045500Y-029700
X046219Y-024822
X046219Y-025822
X047100Y-028000
X047219Y-024822
X047219Y-025822
X048050Y-030350
X048050Y-031450
X048050Y-032450
X048219Y-024822
X048219Y-025822
X049100Y-028000
X049219Y-024822
X049219Y-025822
X050219Y-024822
X050219Y-025822
X051100Y-029500
X051100Y-032900
X051219Y-024822
X051219Y-025822
X052050Y-032900
X052100Y-029500
X052219Y-024822
X052219Y-025822
X053219Y-024822
X053219Y-025822
T5
X042600Y-027500
X043600Y-027500
T6
X034200Y-033800
X034200Y-034800
T7
X054806Y-027917
X054806Y-029886
X054806Y-031854
T8
X032299Y-025319
X032299Y-034374
X055134Y-025327
X055134Y-034374
T0
M30
